<?xml version="1.0" encoding="UTF-8"?>
<svg id="Layer_1" data-name="Layer 1" xmlns="http://www.w3.org/2000/svg" xmlns:xlink="http://www.w3.org/1999/xlink" viewBox="0 0 531.28 569.01">
  <defs>
    <style>
      .cls-1 {
        fill: #444952;
        font-family: MyriadPro-Regular, 'Myriad Pro';
        font-size: 112.74px;
      }

      .cls-2 {
        fill: #0a5e9c;
      }

      .cls-3 {
        fill: #1d6131;
      }

      .cls-4 {
        fill: url(#linear-gradient);
      }

      .cls-5 {
        fill: #5bbcd8;
      }
    </style>
    <linearGradient id="linear-gradient" x1="266.15" y1="525.46" x2="266.15" y2="164.4" gradientUnits="userSpaceOnUse">
      <stop offset="0" stop-color="#444952"/>
      <stop offset=".27" stop-color="#59616a"/>
      <stop offset=".83" stop-color="#8fa0a9"/>
      <stop offset="1" stop-color="#a1b4be"/>
    </linearGradient>
  </defs>
  <g>
    <path class="cls-4" d="M266.14,164.4h0c78.35,0,141.97,63.61,141.97,141.97v219.09H124.18v-219.09c0-78.35,63.61-141.97,141.97-141.97Z"/>
    <g>
      <path class="cls-3" d="M99.13,539.96c-1.13-.2-2.27,14.49-3.4,9.98-1.13,11.62-2.26-21.35-3.38-9.08-2.25-.34-4.48,1.03-6.7-3.82-1.11,5.3-2.21,11.54-3.31,8.59-.55,5.35-1.1-17.44-1.65,2.6-.55-5.62-1.09,2.69-1.64-10.21-1.09,14.48-2.17,15.37-3.25,8.06-.54-.72-1.08-15.65-1.61-5.25-.54,16.71-1.07,10.17-1.6-1.9-1.06-10.9-2.12-24.03-3.17-7.16-1.05,11.78-2.09-1.68-3.12,5.62-2.07,20.43-4.1-.05-6.1-.37-1,.64-1.99,16.68-2.97,9.86-.98-10.89-1.95,2.33-2.91-4.61-.96,12.72-1.91,4.89-2.84,2.17-.94-6.9-1.86-11.02-2.78-8.38-3.66-5.26-7.13,5.55-10.37-2.01-3.24,6.53-6.26-11.64-9.01-2.35-2.75-2.51-5.23,5.14-7.41,1.06-2.18,7.68-4.05-11.77-5.58-6.59-3.06-1.69-4.75-9.87-4.75-6.36,0,8.56,1.79-24.05,5.01-6.36,1.61-10.13,3.57,12.77,5.83,3.77,2.27,8.77,4.84,6.94,7.68-9.29,1.42-2.82,2.9,1.82,4.44-9.32,1.54,10.69,3.14-2.48,4.8,11.39,1.65,7.87,3.36-23.1,5.12-.5.88-29.31,1.77-8.12,2.67-5.19.9,5.77,1.81,19.86,2.74-.73.92-14.4,1.86-26.82,2.8-9.02.94.29,1.89-3.56,2.86,5.34,1.92-.53,3.88-7.29,5.87,2.83.99-1.14,2,9.48,3-5.92,1.01-3.77,2.02,5.87,3.04,8.41,1.02-2.52,2.05-2.19,3.08,4.39,1.03-11.01,2.07-14.84,3.11-8.89,1.04-3.42,2.09,2.54,3.14-4.92,1.05-8.55,2.1,5.5,3.16,8.03,2.11,9.33,4.24-13.45,6.37-3.94.53.68,1.07,24.25,1.6,12.85.53,17.35,1.07-3.9,1.6-7.85.27,20.89.53,10.89.8,21.42.27,9.58.53,9.26.8-5.76.53-8.08,1.07-6.82,1.6-9.05.27,4.13.53-1.39.8,5.04.27-13.54.53,6.32.8-7.94.27-7.76.53-12.44.8-12.86s.53,3.4.8,12.65c.53,1.4,1.07,8.84,1.6,5.29.53-9.72,1.07-3.85,1.6-13.98.58-2.21,1.15-.38,1.73-5.35.58-.41,1.15.3,1.73-2.49.57-4.05,1.15-5.77,1.72-7.62.57,4.07,1.14-1.19,1.71,7.31,1.14.85,2.28-1.96,3.41,6.71.57-.04,1.13,15.16,1.69,7.77.56,6.13,1.13-5.79,1.69-9.41,1.12,6.51,2.24,20.37,3.35,6.53.56-4.38,1.11,7.45,1.66,6.88.55-11.98,1.1,4.73,1.65-.83,1.1-7.02,2.19-7.74,3.27-9.02,1.08,7.44,2.16,1.65,3.23.54.53,6.79,1.07,12.47,1.6,12.01.53,13.86,1.06,1.3,1.59-4.73,1.05,1.29,2.1,11.97,3.14-3.8,1.04,12.35,2.07-9.01,3.09,4.68,1.02-10.66,2.03,8.3,3.03-7.15,2,1.66,3.96-3.83,5.88.7.96,2.11,1.91-3.97,2.84-12.69.94-7.35,1.86,13.23,2.77,13.83.91,12.56,1.81,5.73,2.7,16.84.89,12.71,1.76-3.35,2.62-20.56.86-10.21,1.71-9.4,2.54-3.95.83,3.81,1.65-.81,2.46,8.44.81-5.76,1.6-9.52,2.37-10.88.78-3.26,1.54,8.43,2.28,7.22.75,7.11,1.48,11.39,2.19,10.14.71-7.31,1.41-12.76,2.09-2.89.68,5.94,1.35-5.41,1.99-4.04.16,11.42.32,8.61.48,3.65.16,4.19.32,4.96.48,11.38.31,5.5.63-4.42.93-3.67,1.22-13.54,2.38-4.51,3.45-.74.54,2.17,1.06-.49,1.56-4.87.5,3.47.98-1.71,1.44,12.32.92-8.64,1.76-9.34,2.51-8.51,1.51-7.56,2.67-7.67,3.47-4.55.79,4.64,1.2.48,1.2,10.91,0-8.7-1.84,22.9-5.11,6.36-.82-10.96-1.73,6.39-2.72,3.78-.5,7.22-1.01,11.04-1.55,11.88-.27,2.37-.54,4.19-.82,2.56-.28-10.57-.56-4.98-.85-18.14-.58.65-1.17-8.33-1.78-7.84-.61-.84-1.25,5.91-1.9,5.76-.65,2.3-1.32-5.99-2-6.16-.34-9.45-.69,2.39-1.04,4.62-.35-1.19-.71-.96-1.06,9.07-1.44,10.54-2.94,6.39-4.49-2.5-.78-7.85-1.57-1.44-2.38-2.48-.81-.38-1.63,6.65-2.46,7.33-1.67-8.65-3.39,21.25-5.16,5.23-.88-3.54-1.78,7.16-2.68-6.58-.91-9.76-1.82-11.05-2.75,3.37-.46,10.7-.93,2.79-1.4,5.14-.47-6.84-.94,7.72-1.41,8.12-.47,11.57-.95,5.44-1.42,6.06-.48-14.35-.96,1.31-1.44-16.69-.96,11.09-1.93,3.34-2.91,4.58-.98-6.16-1.96-18.26-2.96-5.58-1.98-8.41-4,8.16-6.03-2.94-.51-1.4-1.02,6.09-1.53,12.52-.51,10.48-1.02,1.26-1.53-2.06-1.03-6.57-2.05-10.47-3.09-6.3-1.03,8.24-2.07,7.98-3.11,13.53-1.04,2.79-2.08-3.99-3.13-4.32-1.04-2.05-2.09-.24-3.14-8.36-1.05-9.57-2.1,4.84-3.15,2.11-2.1-2.26-4.2,15.9-6.29,1.48-.52-3.7-1.05-3.48-1.57-1.35-.52,14.02-1.05,15.27-1.57,9.13-1.04,2.42-2.09,2.6-3.13-11.19Z"/>
      <path class="cls-3" d="M234.46,541c-2.27,7.49-4.53,21.25-6.78-2.27-1.12-17.87-2.25-9.84-3.36-8.55-1.12,10.68-2.23-18.29-3.34,7.45-2.22,3.42-4.42-9.11-6.6.83-1.09,13.98-2.17,11.77-3.25,7.76-1.08,11.86-2.15-1.27-3.21-6.25-2.13-15.26-4.23-16.08-6.29-2.29-2.07.41-4.1,14.17-6.1,1.2-1,5.38-1.99-.98-2.97.56-.98-8.84-1.95-11.3-2.91-7.6-1.92.87-3.79,4.47-5.62,5.28-.91-3.92-1.82-2.36-2.71-5.06-.45-9.73-.89-15.39-1.33-7.35-.44,8.65-.87,10.35-1.31,7.26-.43-3.74-.86-13.73-1.29-14.05-.43-5.7-.85-8.8-1.27,9.46-.84-6.7-1.66-4.06-2.47,6.68-.41-8.97-.81-11.3-1.21-8.5-.4-4.16-.79-6.84-1.18-.57-.39-12.27-.78-4.45-1.16-7.34-.38-8.59-.76-.64-1.14,10.39-.75,12.48-1.49-8.85-2.21-3.81-.72-7.91-1.42-6.98-2.11,8.56-1.37,3.54-2.68-26.49-3.92-10.12-1.24-9.22-2.4,10.67-3.49,6.77-1.09,17.33-2.1-10.64-3.03-2.47-.93,7.01-1.78-3.7-2.55.29-1.53,19.21-2.72,17.65-3.52,2.19-.4-24.86-.71-17.21-.91-9.58-.21-2.78-.31-2.05-.31,1.03,0-2.05.45-23.45,1.3-8.48.85,3.72,2.1,1.38,3.71,2.11.8,8.82,1.69,7.81,2.67-6.02.49,8.51,1-2.21,1.52,1.74.53-9.16,1.08-11.04,1.64,1.4,1.13.54,2.34,14.57,3.63,3.77.64-16.13,1.3-.84,1.98-8.03.68,2.44,1.37,14.71,2.08,1.63,1.42-22.05,2.9-4.71,4.44,1.9,1.54-.83,3.14,3.7,4.8-3.62.83-8.95,1.67-9.18,2.52-5.54.43,2.33.86,3.67,1.29,6.58.43-.98.87-4.07,1.31-6.12.88,9.17,1.77,14.62,2.67,7.24.9-.07,1.81-6.83,2.74-4.8.92-4.54,1.86,7.91,2.8,15.21.94,6.24,1.89,15.72,2.86-4.16.96-8.34,1.93.86,2.91-10.64.98,9.33,1.96,5.44,2.96-3.03,1.99,8.38,4.01,11.21,6.05-6.32,1.02,3.86,2.05-12.42,3.08-3.67,1.03-.95,2.07,9.02,3.11,9.75,1.04-4.98,2.09,14.94,3.14-.24,1.05,8.7,2.1-3.11,3.16.82,2.11,27.2,4.24,13.54,6.37-1.15,2.13-9.3,4.27-4.74,6.41-2.8,2.14.15,4.28-4.25,6.41,2.35,1.16-2.75,2.31,4.39,3.46,9.33,1.15,4.94,2.29,8.27,3.43-3.9.57.16,1.14.8,1.71,5.65.57-7.11,1.14,10.52,1.7,7.66.57-3.12,1.13-12.7,1.69-4.23.56-6.93,1.13-17.41,1.69-15.3.56,10.04,1.12,9.65,1.68,14.4.56,19.24,1.11-1.43,1.67-1.26,1.11-9.31,2.22-17.04,3.31-2.78,1.1,3.23,2.19,3.62,3.27,5.28,1.08,4.83,2.16-11.39,3.23-13.83,1.07,2.85,2.13,2.92,3.19,1.18,1.05-7.89,2.1-6.03,3.14-10.84,1.04-.29,2.07,3.79,3.09.73,1.02-3.65,2.03,10.77,3.03,10.15,4,2.71,7.84-12.71,11.49,1.64,1.82-10.03,3.6-2.76,5.32,4.4,1.72,2.47,3.39,9.32,5-.88,3.22,16.49,6.21,14.71,8.94.84,1.36-.71,2.66-7.25,3.88-7.74,1.22-11.8,2.38-6.71,3.45,5.54,1.08,2.22,2.08-9.07,3-1.55.92,11.8,1.76-6.56,2.51,9.28,1.51-8.49,2.67,8.47,3.47-.98.79.51,1.2,1.85,1.2,7.35,0,5.78-.11-1.45-.34,6.19-.11,4.25-.25,17-.42,1.2-.17,12.4-.36-8.81-.57-8.69-.43-1.81-.97-1.6-1.6-6.18-.63,20.34-1.36,10.3-2.18,13.84-1.64,11.03-3.63,3.59-5.94,9.2-1.15,2.22-2.38-6.98-3.68,4.07-1.3-19.06-2.67-7-4.11-7.75-2.87,3.92-6,.69-9.34,7.5-3.34-12.99-6.88,9.12-10.58-3.15-.93,9.77-1.86,12.01-2.81,11.19s-1.9-4.73-2.86-7.25c-1.92,1.9-3.88-9.83-5.87-2.3-1.98-7.68-4-7.24-6.03-3.91-2.03-.18-4.08,8.36-6.15,5.13-2.07-17.9-4.15,15.87-6.24-3.74-1.04-4.64-2.09,8.71-3.14-8.07-.52-3.99-1.05,14.99-1.57,8.32-.52-4.49-1.05-.77-1.57,6.08-1.05-3.29-2.1-5.97-3.15-7.41-1.05-4.73-2.1.76-3.15,4.38-1.05,3.34-2.09-4.81-3.14-7.78-1.04,3.64-2.09,6.71-3.13,9.25Z"/>
      <path class="cls-3" d="M358.86,545.16c-2.27,2.43-4.53,14.61-6.78-.07-2.25,2.84-4.48,11.67-6.7-.2-1.11,3.58-2.21-5.45-3.31,9.84-1.1,12.82-2.19.17-3.28-13.1-2.18-11.39-4.33,10.15-6.46,2.5-1.06-6.47-2.12-10.08-3.17-1.16-1.05-3.09-2.09-6.61-3.12-7.73-2.07,19.67-4.1,1.84-6.1,3.88-3.99,8.7-7.84,1.47-11.5,2.15-1.83,12.93-3.61,11.59-5.34,1.16-1.73-3.12-3.41-25.05-5.03-.42-3.24-6.32-6.26,12.5-9.01-5.1-2.75-13.57-5.23,11.63-7.41-1.19-2.18,5.73-4.05,1.69-5.58-4.33-1.53-.68-2.72,4.72-3.52-5.09-.8,4.52-1.23-6.98-1.23-1.27,0-2.68.45,2.68,1.3-2.63.85-2.46,2.1-3.14,3.71-3.73.8,2.41,1.69,7.28,2.67,8.28.97,5.49,2.03,1.46,3.17-3.11,1.13.48,2.34-9.83,3.63-14.02,1.28,1.03,2.63-13.87,4.05,3.33,1.42,17.58,2.9-14.08,4.44,1.8,1.54,12.94,3.14,8.42,4.8-9.75,1.65-.91,3.36,8.31,5.12,2.3,1.76-4.64,3.56,3.56,5.4,1.29,1.84-2.71,3.73-6.47,5.65-.95,1.92-3.52,3.88,6.3,5.87-.88,1.99-10.98,4.01-9.06,6.05.08,2.04-9.25,4.11-9.15,6.19-1.11,2.08-6.34,4.19.95,6.3-4.71,2.11-14.84,4.24-13.82,6.37,2.15,2.13,8.01,4.27,11.84,6.41-.79,1.07,26.65,2.14-1.52,3.21,2.68,1.07,2.41,2.14-11.65,3.21-.36,2.31,21.83,4.61,4.64,6.89,7.21,2.28,2.56,4.55,15.69,6.79-6.95,2.24-8.26,4.47-3.63,6.66.84,2.2,4.47,4.37,20.21,6.51-.08,4.28-8.47,8.44,2.01,12.44-.8,4-2.32,7.84,8.18,11.49,3.66,1.82,3.41,3.6,6.36,5.32,6.7s3.39,4.62,5-8.94c1.61,7.12,3.16,23.12,4.66,7.34,1.49-2.76,2.92-24.22,4.28-.74,2.72-7.22,5.18,5.1,7.33,5.61,2.15,1.3,4,2.56,5.51-.09.75,6.05,1.42,11.27,2,10.49.58,10.75,1.07,2.32,1.46-10,.79-6.81,1.2-12.78,1.2,5.87,0-2.39-.46-6.98-1.33-7.98-.43-10.95-.97-16.01-1.6,4-.63,13.14-1.36-4.86-2.18,10.33-.82-7.12-1.73,1.79-2.72,8.44-.99,5.39-2.07-4.96-3.22-5.55-1.15-7.21-2.38-.3-3.68-8.7-1.3,4.34-2.67-9.06-4.11,11.34-2.87-2.23-6,2.66-9.34.79-3.34-8.93-6.88,1.66-10.58,3.57-2.47-24.16-5.01-23.47-7.6-14.35-2.59,7.13-5.24-4.38-7.93,2.4-2.69,10.59-5.42,13.13-8.17,14.81-4.13,2.44-8.32,5.26-12.52,6.19-2.1.46-4.2.46-6.29-.31-2.1,5.47-4.19-3.45-6.27-4.85Z"/>
      <path class="cls-3" d="M434.85,535.79c-2.27.04-4.53,7.64-6.78-4.91-2.25,5.38-4.48,1.99-6.7.54-2.22,9.24-4.42,12.45-6.6,12.16-2.18-.29-4.33-4.07-6.46-8.81-4.25,7.25-8.4,10.85-12.39.62-3.99,2.69-7.84,3.35-11.5-3.48-3.66,5.21-7.13-.45-10.37-1.98-3.24-2.37-6.26-9.18-9.01-2.38-2.75,15.11-5.23-4.43-7.41,9.51-2.18-9.49-4.05-27.14-5.58-15.04-1.53.44-2.72-14.82-3.52-14.07-.8-1.59-1.23-3.88-1.23,7.71,0-4.84.45,21.69,1.3,9.76.85-6.19,2.1-15.31,3.71-16.12,1.61,20.04,3.57-10.65,5.83,2.48,2.27,12.58,4.84.56,7.68-8,2.84-.49,5.93,6.32,9.24,1.09,3.31-1.25,6.83-3.58,10.52-5.45,3.69,6.08,7.55,5.13,11.52,7.67,3.98,7.09,8.07,23.42,12.24-10.53,2.08-2.34,4.19.33,6.3,2.16,2.11-.32,4.24,2.08,6.37-2.92,2.13,6.39,4.27,1.4,6.41-3.63,2.14-20.27,4.28-5.75,6.41,3.36,2.31-3.75,4.61-12.31,6.89,7.53,2.28,22.16,4.55,17,6.79,3.92,2.24,6.27,4.47,3.68,6.66-2.13,2.2-2.94,4.37-13.6,6.51-8.3,2.14-11.81,4.25,3.65,6.32,2.55,2.07.81,4.11,1.81,6.11-3.71,2-17.6,3.96,14.96,5.88,6.72,1.92-.52,3.79,1.15,5.61-2.71,3.65-9.66,7.1,20.27,10.32.69,3.22,8.42,6.21,16.16,8.94,3.67,2.72-12.57,5.18-7.26,7.33.25,2.15,8.48,4,7.51,5.51,5.28,1.51,13.66,2.67,13.86,3.47,11.34.79-2.52,1.2-7.76,1.2-4.98,0-3.39-.46-5.77-1.33-5.32-.87,1.16-2.15,13.36-3.78,11.68-1.64,8.73-3.63,8.8-5.94,7.55-2.3-17.67-4.92-5.87-7.79-2.02-2.87,6.23-6-5.97-9.34,2.35-1.67-24.26-3.39-9.49-5.16-6.43-1.77.76-3.58,8.01-5.43,8.44-1.85-6.85-3.74-16.16-5.67-2.19-1.92-.14-3.88,4.24-5.87,1.66-1.98,6.53-4,10.28-6.03-2.5-2.03,8.94-4.08-2.09-6.15,5.9-2.07-12.05-4.15-6.91-6.24-7.38-2.09-8.29-4.19-.66-6.28-5.24-2.1-4.5-4.2-.56-6.29,1.25-2.1,4.97-4.19,3.48-6.27,12.39Z"/>
    </g>
    <rect class="cls-3" x="8.75" y="520.68" width="512.27" height="37.13"/>
    <text class="cls-1" transform="translate(195.31 396.61)"><tspan x="0" y="0">RIP</tspan></text>
  </g>
  <g>
    <path class="cls-2" d="M194.52,123.22c1.82,3.02,1.82,7.25.01,10.26-1.81,1.81-4.83,2.41-7.24,1.81-7.85-3.02-10.26-12.07-9.05-19.92,2.41-15.09,13.88-23.54,25.01-32.05.63-2.04,1.37-4.04,2.19-5.99,4.95-11.7,13.21-21.65,23.62-28.68,1.73-1.17,3.53-2.26,5.44-3.14,6.51,2.26,7.11,9.5,11.34,14.33,6.04,5.43,14.49,13.28,22.94,9.66-9.05-6.04-17.5-15.69-16.3-27.76,1.21-7.85,6.04-18.11,14.49-16.9,9.66,1.81,9.66,13.28,16.9,19.31,2.41,1.21,4.83,2.41,7.24,3.62-6.64.6-15.09-5.43-18.71-1.21-7.24,8.45,7.85,16.3,16.3,19.31,1.21.6,2.41,3.02,1.81,4.22-10.26,10.86-26.56,9.05-39.38,4.58-3.09-.35-4.77.79-6.4,1.98-3.26,2.39-6.33,5-9.14,7.92,3.02-2.78,6.25-4.73,9.65-6.1,1.7-.68,3.43-1.22,5.2-1.64,17.14,4.72,36.45,4.11,49.73-9.16,1.81-1.81,3.62.6,5.43,0,4.22-1.81,6.04-9.66,1.21-10.86-9.66-1.81-19.92-4.22-29.57-1.21-.6,0-1.81-3.02-1.21-3.02,15.09-2.41,28.37-4.83,42.85-3.62,4.83,0,6.04,8.45,6.04,13.68.11,2.38,1.27,3.76,2.57,5.02,11.74,11.35,25.97,27.11,16.74,42.86-1.81,3.62-6.64,5.43-11.64,5.58-2.59.34-4.01,1.53-4.69,3.6-.43,1.6-.89,3.26-1.4,4.96s-1.06,3.45-2.13,4.87c-6.09,5.13-13.93-1.5-18.76-3.92-23.54-12.67-53.11-17.5-73.03,2.41-4.83,4.83-6.64,12.07-3.02,18.71.91,1.51,2.49,2.47,3.44,3.09.63.72,2.01.2,3.89-1.89,1.52-2.16,1.99-3.95,2.11-5.65.37-5.12-.54-10.33,2.63-14.85-6.64-1.21-10.86,6.04-9.05,11.47,0,.6,1.81-.6,2.41-.6.91,1.21,1.81,3.17,1.96,5.05s-.85,3.91-2.8,4.75c-1.57-.15-3.38-.75-4.59-2.56-3.62-7.85.6-16.3,7.24-21.12,7.85-6.04,16.9-8.45,25.95-9.05,20.62-2.01,42.92,10.65,51.18,28.89.83,1.82,1.11,3.39.98,4.69-6.29,9.27,1.56,18.93.35,29.19-.6,3.02-1.21,5.43-3.02,6.64-5.66,4.3-10.47,9.03-13.95,14.21-1.16,1.73-2.17,3.5-5.44,4.55-24.07,4.79-24.07,36.17-15.62,53.67,6.64-3.02,3.62-11.47,6.64-16.9,2.41-3.62,8.45-5.43,10.26-1.81,6.64,16.3-14.49,28.37-22.94,41.04-.6-7.24,0-15.09-4.83-20.52,5.43,4.83,4.83,13.28,4.83,19.92,9.66-9.66,18.11-19.92,24.14-31.99,1.81-3.62-1.21-9.05-6.04-7.85-1.21.6-3.02,2.41-2.41,3.62.6,10.86-4.83,19.92-12.07,27.16-4.22-16.9-14.49-29.57-31.39-36.82-6.04-2.41-7.85-9.66-6.64-16.3,2.41-10.26,12.67-12.67,20.53-17.86,2.23-1.25,4.32-2.16,5.97-2.83,3.3-1.34,7-1.79,10.92-1.04,2.62.8,4.03,2.47,3.36,4.33-1.55,4.12-12.41,8.95-6.98,13.78-1.21,0-1.81-.6-1.81-1.81,1.21-5.43,6.04-7.85,8.56-12.15.37-1.23.02-2.43-1.03-3.45-2.1-2.03-4.92-3.11-8.74-2.5,1.81-2.41,4.22,0,6.64-.6-2.41-4.22-7.85-3.02-10.26-6.64,7.85-6.04,13.88,8.45,18.11,8.45,6.64,0,1.81-13.28,5.43-19.92,3.02-6.04,12.07-1.81,13.88-6.04,2.41-4.22-5.43-10.86-12.07-9.66-7.85,1.81-22.33,6.04-18.11,16.3,0-9.05,9.66-13.28,16.3-15.69,7.24-3.02,12.67,3.62,14.49,10.26-16.3-3.62-14.49,14.49-18.71,25.35,0,.6-1.81-1.21-3.02-1.81-3.62-3.62-5.43-9.66-11.47-10.86-5.43-1.21-8.45,3.62-11.47,6.04-11.47,7.85-26.56,16.3-39.23,10.86-10.26-4.22-9.05-19.92-6.25-30.24.4-1.59.69-2.92,1-4.19.94-3.82,2.53-7.67,3.43-10.84,3.02-7.24,1.81-16.9,5.91-24.03,1.16-2.25,1.84-3.92,2.08-5.23.23-1.31.4-2.62.46-3.94.6-8.45-7.24-16.3-16.3-16.3-7.24,0-14.49,5.43-14.61,13.99.04,1.53.32,3.05.72,4.72Z"/>
    <ellipse class="cls-2" cx="261.29" cy="147.71" rx="40.57" ry="34.19"/>
    <path class="cls-5" d="M281.49,129.31c2.91-4.19,8.95-4.65,12.9-1.17,4.18,3.95,3.95,10.68-.09,14.96-1.51,1.49-1.68,1.91-1.82,2.3-1.4,5.01-4.31,9.39-8.21,12.61-.61.46-1.24.89-1.95-.86-1.4-4.39-5.35-8.34-10.22-7.87-2.55.23-5.34,1.39-6.5,3.95-.46,1.16-1.39,2.79-.23,4.18,1.16-4.18,5.81-7.2,9.98-4.64,3.48,2.09,4.64,6.5,3.02,9.98-2.09,4.64-7.9,6.73-12.54,4.88-2.55-.93-4.41-3.25-6.08-5.3-.43-.22-.82-.39-1.2-.55-9-3.81-15.32-12.72-15.32-23.11,0-.58.04-1.21.13-1.89s.21-1.42.37-2.19c4.22,1.01,9.1,1.7,12.35-1.78,1.86-2.09,2.79-5.11,1.63-7.66-.7-1.63-2.32-3.02-4.18-2.55,2.55,2.55,2.55,7.2-.93,8.82-3.25,1.63-7.2.23-9.06-3.02-4.18-6.73,1.63-13,7.43-15.51.37-.32.64-.61.95-.92,7.25-16.35,16.4-33.13,16.4-33.13,0,0,13.33,24.45,20.56,43.07-.09.21-.03.46-.29.71-5.8.67-11.37,5.09-10.44,11.59.7,4.18,5.34,8.36,9.52,5.81-2.55,0-5.11-.93-6.5-3.25-.93-1.86-1.16-3.95-.45-5.86.2-.55.46-1.07.79-1.56Z"/>
  </g>
</svg>