<?xml version="1.0" encoding="UTF-8"?>
<svg id="Layer_1" data-name="Layer 1" xmlns="http://www.w3.org/2000/svg" xmlns:xlink="http://www.w3.org/1999/xlink" viewBox="0 0 394.13 802.27">
  <defs>
    <style>
      .cls-1 {
        fill: url(#linear-gradient-13);
      }

      .cls-2 {
        fill: url(#linear-gradient-2);
      }

      .cls-3 {
        fill: url(#linear-gradient-10);
      }

      .cls-4 {
        fill: url(#linear-gradient-12);
      }

      .cls-5 {
        fill: url(#linear-gradient-4);
      }

      .cls-6 {
        fill: #0a5e9c;
      }

      .cls-7 {
        fill: #76cbf2;
      }

      .cls-8 {
        fill: url(#linear-gradient-3);
      }

      .cls-9 {
        fill: url(#linear-gradient-5);
      }

      .cls-10 {
        fill: url(#linear-gradient-8);
      }

      .cls-11 {
        fill: url(#linear-gradient-14);
      }

      .cls-12 {
        fill: url(#linear-gradient-7);
      }

      .cls-13 {
        fill: url(#linear-gradient-9);
      }

      .cls-14 {
        fill: url(#linear-gradient-11);
      }

      .cls-15 {
        fill: url(#linear-gradient-6);
      }

      .cls-16 {
        fill: url(#linear-gradient);
      }
    </style>
    <linearGradient id="linear-gradient" x1="202.19" y1="38.57" x2="202.19" y2="188.05" gradientTransform="translate(304.15 -94.84) rotate(86.83)" gradientUnits="userSpaceOnUse">
      <stop offset=".35" stop-color="#76cbf2"/>
      <stop offset="1" stop-color="#3586c7"/>
    </linearGradient>
    <linearGradient id="linear-gradient-2" x1="208.83" y1="202.55" x2="208.83" y2="394.04" gradientUnits="userSpaceOnUse">
      <stop offset=".35" stop-color="#76cbf2"/>
      <stop offset="1" stop-color="#3586c7"/>
    </linearGradient>
    <linearGradient id="linear-gradient-3" x1="210.99" y1="530.32" x2="210.99" y2="789.12" xlink:href="#linear-gradient-2"/>
    <linearGradient id="linear-gradient-4" x1="208.83" y1="416.87" x2="208.83" y2="454.43" xlink:href="#linear-gradient-2"/>
    <linearGradient id="linear-gradient-5" y1="469.08" y2="516.4" xlink:href="#linear-gradient-2"/>
    <linearGradient id="linear-gradient-6" x1="311.1" y1="188.24" x2="311.1" y2="18.02" gradientUnits="userSpaceOnUse">
      <stop offset=".35" stop-color="#0a5e9c"/>
      <stop offset=".91" stop-color="#3586c7"/>
    </linearGradient>
    <linearGradient id="linear-gradient-7" x1="84.65" y1="201.07" x2="84.65" y2="30.85" xlink:href="#linear-gradient-6"/>
    <linearGradient id="linear-gradient-8" x1="302.53" y1="424.18" x2="302.53" y2="241.44" xlink:href="#linear-gradient-6"/>
    <linearGradient id="linear-gradient-9" x1="112.7" y1="412.28" x2="112.7" y2="229.54" xlink:href="#linear-gradient-6"/>
    <linearGradient id="linear-gradient-10" x1="258.96" y1="770.71" x2="258.96" y2="547.05" xlink:href="#linear-gradient-6"/>
    <linearGradient id="linear-gradient-11" x1="162.28" y1="770.53" x2="162.28" y2="546.87" gradientTransform="translate(324.56 1317.39) rotate(-180)" xlink:href="#linear-gradient-6"/>
    <linearGradient id="linear-gradient-12" x1="204.71" y1="120.27" x2="204.71" y2="103.21" gradientUnits="userSpaceOnUse">
      <stop offset="0" stop-color="#76cbf2"/>
      <stop offset="1" stop-color="#5bbcd8"/>
    </linearGradient>
    <linearGradient id="linear-gradient-13" x1="248.87" y1="200.79" x2="252.79" y2="83.45" gradientTransform="translate(-48.57 144.78) rotate(-1.91)" gradientUnits="userSpaceOnUse">
      <stop offset="0" stop-color="#444952"/>
      <stop offset=".09" stop-color="#4c525b"/>
      <stop offset=".48" stop-color="#6a767f"/>
      <stop offset=".8" stop-color="#7d8c95"/>
      <stop offset="1" stop-color="#84949d"/>
    </linearGradient>
    <linearGradient id="linear-gradient-14" x1="239.67" y1="142.12" x2="261.98" y2="142.12" gradientTransform="translate(-48.57 144.78) rotate(-1.91)" gradientUnits="userSpaceOnUse">
      <stop offset=".39" stop-color="#a5acb4"/>
      <stop offset=".69" stop-color="#bdc2c8"/>
      <stop offset=".83" stop-color="#cbced3"/>
    </linearGradient>
  </defs>
  <g>
    <g>
      <circle class="cls-16" cx="202.19" cy="113.31" r="74.74" transform="translate(77.87 308.92) rotate(-86.83)"/>
      <path class="cls-2" d="M134.09,277.29c0,41.28,27.33,116.76,78.64,116.76,47.97,0,70.83-75.48,70.83-116.76s-33.46-74.74-74.74-74.74-74.74,33.46-74.74,74.74Z"/>
      <rect class="cls-8" x="184.78" y="530.32" width="52.43" height="258.8" rx="26.21" ry="26.21"/>
      <ellipse class="cls-5" cx="208.83" cy="435.65" rx="43.63" ry="18.78"/>
      <circle class="cls-9" cx="208.83" cy="492.74" r="23.66"/>
    </g>
    <path class="cls-7" d="M319.5,297.3h18.03c10.16,0,18.41,8.25,18.41,18.41v34.32c0,10.16-8.25,18.41-18.41,18.41h-18.03v-71.14h0Z" transform="translate(28.34 -26.49) rotate(4.69)"/>
    <path class="cls-7" d="M59.28,285.41h18.03c10.16,0,18.41,8.25,18.41,18.41v34.32c0,10.16-8.25,18.41-18.41,18.41h-18.03v-71.14h0Z" transform="translate(180.98 634.55) rotate(175.31)"/>
    <g>
      <path class="cls-15" d="M274.7,129.86c1.6-.15,1.08,8.49,7.81,15.62,8.11,8.58,24.27,12.35,36.25,6.14,16.74-8.69,19.7-33.97,11.16-49.08-9.51-16.81-32.84-20.31-46.85-18.41-10.95,1.49-14.42,6.04-21.75,3.9-12.1-3.52-21.54-21.39-18.96-34.58,4.68-23.96,51.41-44.54,88.12-31.23,33.9,12.29,48.06,49.39,49.64,75.85,1.8,30.32-11.71,67.05-41.83,81.99-14.06,6.97-43.44,15.01-59.12-1.67-15.89-16.89-7.47-48.24-4.46-48.52Z"/>
      <path class="cls-12" d="M121.05,142.68c-1.6-.15-1.08,8.49-7.81,15.62-8.11,8.58-24.27,12.35-36.25,6.14-16.74-8.69-19.7-33.97-11.16-49.08,9.51-16.81,32.84-20.31,46.85-18.41,10.95,1.49,14.42,6.04,21.75,3.9,12.1-3.52,21.54-21.39,18.96-34.58-4.68-23.96-51.41-44.54-88.12-31.23C31.37,47.32,17.21,84.43,15.63,110.89c-1.8,30.32,11.71,67.05,41.83,81.99,14.06,6.97,43.44,15.01,59.12-1.67,15.89-16.89,7.47-48.24,4.46-48.52Z"/>
      <path class="cls-10" d="M283.01,422.21l20.18,1.94c2.31.22,4.49-1.12,5.34-3.28h0c22.05-56.4,27.6-117.9,16-177.33h0s-21.23-2.04-21.23-2.04c-7.02-.68-13.06,4.92-12.92,11.98l.79,39.04c.5,24.94-1.84,49.87-7,74.28l-9.34,44.27c-1.14,5.42,2.68,10.62,8.19,11.15Z"/>
      <path class="cls-13" d="M132.21,410.31l-20.18,1.94c-2.31.22-4.49-1.12-5.34-3.28h0c-22.05-56.4-27.6-117.9-16-177.33h0s21.23-2.04,21.23-2.04c7.02-.68,13.06,4.92,12.92,11.98l-.79,39.04c-.5,24.94,1.84,49.87,7,74.28l9.34,44.27c1.14,5.42-2.68,10.62-8.19,11.15Z"/>
      <path class="cls-3" d="M232.74,547.05h0c28.94,0,52.43,23.49,52.43,52.43v118.8c0,28.94-23.49,52.43-52.43,52.43h0v-223.66h0Z"/>
      <path class="cls-14" d="M136.07,546.87h0c28.94,0,52.43,23.49,52.43,52.43v118.8c0,28.94-23.49,52.43-52.43,52.43h0v-223.66h0Z" transform="translate(324.56 1317.39) rotate(180)"/>
    </g>
    <ellipse class="cls-6" cx="203.47" cy="113.14" rx="50.76" ry="31.79"/>
    <ellipse class="cls-4" cx="204.71" cy="111.74" rx="35.76" ry="8.53"/>
  </g>
  <g>
    <path class="cls-1" d="M265.56,276.42h-.33s-23.8-12.69-23.8-12.69c-.52.45-1.04.95-1.52,1.5-.85.96-1.72,2.17-3.45,2.81-1.8.66-4.48.7-5.78-.79-1.65-1.89-.31-5.38-.08-5.99,0,0,0-.02,0-.02.4-1.04-.37-2.16-1.48-2.12l-4.3.14-.13-3.93c-.05-1.41-1.52-2.28-2.79-1.68,0,0-.02,0-.03.01-.59.27-3.99,1.85-5.98.32-1.57-1.2-1.71-3.87-1.17-5.71.52-1.77,1.67-2.72,2.57-3.63.66-.67,1.24-1.38,1.74-2.1l-13.98-22.45v-.33s-.1.17-.1.17l-.1-.16v.33s-12.69,23.8-12.69,23.8c.45.52.95,1.04,1.5,1.52.96.85,2.17,1.72,2.81,3.45.66,1.8.7,4.48-.79,5.78-1.89,1.65-5.38.31-5.99.08,0,0-.02,0-.02,0-1.04-.4-2.16.37-2.12,1.48l.14,4.3-3.96.13c-1.41.05-2.29,1.52-1.69,2.8,0,0,0,.02.01.03.27.59,1.85,3.99.32,5.98-1.2,1.57-3.87,1.71-5.71,1.17-1.77-.52-2.72-1.67-3.63-2.57-.66-.65-1.36-1.22-2.07-1.72l-22.45,13.98h-.33s.17.1.17.1l-.16.1h.33s23.77,12.67,23.77,12.67c.53-.45,1.04-.95,1.53-1.5.85-.96,1.72-2.17,3.45-2.81,1.8-.66,4.48-.7,5.78.79,1.65,1.89.31,5.38.08,5.99,0,0,0,.02,0,.02-.4,1.04.37,2.15,1.48,2.11l4.33-.14.13,3.96c.05,1.41,1.52,2.29,2.8,1.69,0,0,.02,0,.03-.01.59-.27,3.99-1.85,5.98-.32,1.57,1.2,1.71,3.87,1.17,5.71-.52,1.77-1.67,2.72-2.57,3.63-.65.66-1.22,1.36-1.72,2.07l13.98,22.45v.33s.1-.17.1-.17l.1.16v-.33s12.67-23.77,12.67-23.77c-.45-.53-.95-1.04-1.5-1.53-.96-.85-2.17-1.72-2.81-3.45-.66-1.8-.7-4.48.79-5.78,1.89-1.65,5.38-.31,5.99-.08,0,0,.02,0,.02,0,1.04.4,2.15-.37,2.11-1.48l-.14-4.33,3.93-.13c1.41-.05,2.28-1.52,1.68-2.79,0,0,0-.02-.01-.03-.27-.59-1.85-3.99-.32-5.98,1.2-1.57,3.87-1.71,5.71-1.17,1.77.52,2.72,1.67,3.63,2.57.67.66,1.38,1.24,2.1,1.74l22.45-13.98h.33s-.17-.1-.17-.1l.16-.1Z"/>
    <path class="cls-11" d="M215.33,287.79s-.1-3.05-.22-6.6c-.01-.36-.02-.72.02-1.07.83-1.15,3.29-1.24,2.79-3.1-.52-2.58-3.02-3.8-4.1-6.08-.93-1.99.89-3.64,2.15-4.98.7-.75.93-2.34-.24-2.88-1.62-.81-3.75.13-4.79-.71-3.27-2.64-6.4-1.38-9.7-.54.95-1.77,2.81-2.41,4.06-3.75-3.43,1.27-9.44,2.77-9.29,7.39.02.58-.84.89-.67,1.47,0,.29.72-.02,1.02.11.44.27,0,.29-.13.44,2.89.05,5.37.69,7.88,2.19-1.04-.83-.94-2.28-.55-3.45.14-.15.41-.59.7-.6,1.02.11,2.2,1.08,3.05.33-.6-.56-1.46-.38-1.78-1.24-.85.46-1.45-.1-2.32-.21-.29,0-.73-.12-1.01.18-.84.89.49,1.57.37,2.44-.22,2.03-3.61-.02-5.19.32.01-3.9,5.43-6.11,9.06-5.65,1.02.11,1.34,1.11,1.94,1.96.75.84,2.31-.08,3.61.02.29,0,.44.27.45.42-1.67,1.79-6.13,2.37-5.2,4.51.62,1.28,5.67,1.11,3.44,3.64-.84.89-4.21-.58-4.56,2.03,0,.14-.43.16-.57.31-.94,2.05-1.31,4.09-2.75,5.81-.1.37-.09.73-.08,1.09l.22,6.62h0s0,0,0,0v.06s.04,0,.04,0l6.47,10.39v.11s.03-.06.03-.06l.03.05v-.11s5.76-10.8,5.76-10.8h.04s0-.07,0-.07h0s0,0,0,0Z"/>
  </g>
</svg>