<?xml version="1.0" encoding="UTF-8"?>
<svg id="Layer_1" data-name="Layer 1" xmlns="http://www.w3.org/2000/svg" viewBox="0 0 555.66 716.94">
  <defs>
    <style>
      .cls-1 {
        fill: #186131;
      }

      .cls-2 {
        fill: #623814;
      }

      .cls-3 {
        fill: #532e14;
      }

      .cls-4 {
        fill: #267b3d;
      }
    </style>
  </defs>
  <rect class="cls-2" x="232.58" y="232.59" width="114.44" height="473.13" rx="31.21" ry="31.21"/>
  <polygon class="cls-3" points="346.85 418.47 286.16 403.93 232.41 418.47 232.41 310.24 346.85 310.24 346.85 418.47"/>
  <g>
    <polygon class="cls-4" points="545.49 286.15 546.48 284.98 455.19 268.24 455.18 268.22 455.13 268.23 454.41 268.1 454.54 268.45 330.58 312.61 330.62 312.74 270.09 383.9 270.78 384.02 545.49 286.15"/>
    <polygon class="cls-1" points="544.48 284.8 545.98 285.08 485.84 355.77 485.85 355.8 485.8 355.82 485.33 356.37 485.21 356.03 361.25 400.2 361.2 400.07 269.31 383.22 269.77 382.68 544.48 284.8"/>
  </g>
  <g>
    <polygon class="cls-4" points="155.51 44.58 155.75 42.79 243.15 109.52 243.18 109.51 243.2 109.56 243.88 110.08 243.49 110.25 303.49 254.14 303.34 254.21 289.16 363.98 288.49 363.47 155.51 44.58"/>
    <polygon class="cls-1" points="157.5 44.4 156.06 43.3 141.96 152.36 141.93 152.37 141.95 152.42 141.84 153.28 142.24 153.11 202.25 297.01 202.39 296.95 290.37 364.12 290.47 363.28 157.5 44.4"/>
  </g>
  <g>
    <polygon class="cls-4" points="419.77 38.76 419.52 36.85 326.37 107.98 326.33 107.96 326.31 108.02 325.58 108.58 326 108.75 262.05 262.12 262.2 262.19 277.32 379.19 278.03 378.64 419.77 38.76"/>
    <polygon class="cls-1" points="417.65 38.57 419.19 37.4 434.21 153.63 434.24 153.65 434.22 153.7 434.34 154.61 433.91 154.44 369.96 307.81 369.8 307.74 276.04 379.34 275.92 378.45 417.65 38.57"/>
  </g>
  <g>
    <polygon class="cls-4" points="9.81 299.87 8.77 298.75 99.19 277.8 99.2 277.77 99.24 277.79 99.95 277.62 99.85 277.97 225.72 316.34 225.68 316.47 289.45 384.74 288.76 384.9 9.81 299.87"/>
    <polygon class="cls-1" points="10.76 298.48 9.27 298.83 72.63 366.66 72.62 366.68 72.66 366.7 73.16 367.23 73.27 366.88 199.14 405.25 199.18 405.12 290.19 384.03 289.71 383.51 10.76 298.48"/>
  </g>
  <g>
    <polygon class="cls-4" points="12.32 213.61 11.45 212.41 100.92 203.2 100.93 203.17 100.97 203.19 101.67 203.12 101.53 203.44 217.92 255.56 217.86 255.68 270.92 329.04 270.24 329.11 12.32 213.61"/>
    <polygon class="cls-1" points="13.39 212.39 11.92 212.54 64.63 285.42 64.62 285.45 64.66 285.47 65.08 286.04 65.22 285.72 181.6 337.84 181.66 337.72 271.72 328.45 271.31 327.89 13.39 212.39"/>
  </g>
  <g>
    <polygon class="cls-4" points="73.96 100.92 73.74 99.11 171.51 141.57 171.53 141.55 171.57 141.6 172.33 141.93 172 142.2 263.26 266.8 263.14 266.9 276.95 377.39 276.2 377.06 73.96 100.92"/>
    <polygon class="cls-1" points="75.76 100.23 74.15 99.53 87.87 209.3 87.84 209.32 87.87 209.36 87.98 210.22 88.31 209.96 179.57 334.57 179.69 334.47 278.1 377.21 278 376.37 75.76 100.23"/>
  </g>
  <g>
    <polygon class="cls-4" points="535.14 219.25 535.94 218.13 452.67 209.56 452.66 209.54 452.62 209.55 451.97 209.49 452.1 209.79 343.78 258.29 343.83 258.41 294.45 326.68 295.09 326.75 535.14 219.25"/>
    <polygon class="cls-1" points="534.13 218.11 535.5 218.25 486.45 286.08 486.46 286.11 486.42 286.13 486.03 286.66 485.9 286.36 377.58 334.87 377.53 334.76 293.71 326.13 294.08 325.61 534.13 218.11"/>
  </g>
  <g>
    <polygon class="cls-4" points="481.07 101.1 481.3 99.29 383.53 141.75 383.5 141.73 383.47 141.78 382.7 142.11 383.03 142.38 291.77 266.98 291.89 267.08 278.09 377.57 278.83 377.24 481.07 101.1"/>
    <polygon class="cls-1" points="479.27 100.41 480.88 99.71 467.17 209.48 467.19 209.5 467.16 209.54 467.05 210.4 466.72 210.14 375.46 334.75 375.34 334.65 276.93 377.39 277.03 376.55 479.27 100.41"/>
  </g>
  <g>
    <polygon class="cls-4" points="288.44 12.18 289.21 10.86 335.62 91.24 335.64 91.24 335.64 91.29 336.01 91.92 335.64 91.92 335.64 223.51 335.51 223.51 288.8 304.42 288.44 303.8 288.44 12.18"/>
    <polygon class="cls-4" points="290.05 12.68 289.28 11.36 242.87 91.74 242.85 91.74 242.85 91.79 242.48 92.42 242.85 92.42 242.85 224.01 242.98 224.01 289.69 304.92 290.05 304.31 290.05 12.68"/>
  </g>
</svg>