<?xml version="1.0" encoding="UTF-8"?>
<svg id="Layer_1" data-name="Layer 1" xmlns="http://www.w3.org/2000/svg" xmlns:xlink="http://www.w3.org/1999/xlink" viewBox="0 0 418.51 841.89">
  <defs>
    <style>
      .cls-1 {
        fill: url(#linear-gradient-15);
      }

      .cls-2 {
        fill: url(#linear-gradient-13);
      }

      .cls-3 {
        fill: url(#linear-gradient-28);
      }

      .cls-4 {
        fill: url(#linear-gradient-2);
      }

      .cls-5 {
        fill: url(#linear-gradient-25);
      }

      .cls-6 {
        fill: url(#linear-gradient-10);
      }

      .cls-7 {
        fill: url(#linear-gradient-12);
      }

      .cls-8 {
        fill: url(#linear-gradient-40);
      }

      .cls-9 {
        fill: url(#linear-gradient-27);
      }

      .cls-10 {
        fill: url(#linear-gradient-37);
      }

      .cls-11 {
        fill: url(#linear-gradient-39);
      }

      .cls-12 {
        fill: url(#linear-gradient-26);
      }

      .cls-13 {
        fill: url(#linear-gradient-4);
      }

      .cls-14 {
        fill: url(#linear-gradient-35);
      }

      .cls-15 {
        fill: url(#linear-gradient-30);
      }

      .cls-16 {
        fill: url(#linear-gradient-3);
      }

      .cls-17 {
        fill: url(#linear-gradient-34);
      }

      .cls-18 {
        fill: url(#linear-gradient-5);
      }

      .cls-19 {
        fill: url(#linear-gradient-38);
      }

      .cls-20 {
        fill: url(#linear-gradient-22);
      }

      .cls-21 {
        fill: url(#linear-gradient-24);
      }

      .cls-22 {
        fill: url(#linear-gradient-33);
      }

      .cls-23 {
        fill: url(#linear-gradient-8);
      }

      .cls-24 {
        fill: url(#linear-gradient-14);
      }

      .cls-25 {
        fill: url(#linear-gradient-29);
      }

      .cls-26 {
        fill: url(#linear-gradient-20);
      }

      .cls-27 {
        fill: url(#linear-gradient-17);
      }

      .cls-28 {
        fill: url(#linear-gradient-7);
      }

      .cls-29 {
        fill: url(#linear-gradient-9);
      }

      .cls-30 {
        fill: url(#linear-gradient-11);
      }

      .cls-31 {
        fill: url(#linear-gradient-19);
      }

      .cls-32 {
        fill: url(#linear-gradient-6);
      }

      .cls-33 {
        fill: url(#linear-gradient-36);
      }

      .cls-34 {
        fill: url(#linear-gradient-21);
      }

      .cls-35 {
        fill: url(#linear-gradient-32);
      }

      .cls-36 {
        fill: url(#linear-gradient-41);
      }

      .cls-37 {
        fill: url(#linear-gradient-16);
      }

      .cls-38 {
        fill: url(#linear-gradient);
      }

      .cls-39 {
        fill: url(#linear-gradient-23);
      }

      .cls-40 {
        fill: url(#linear-gradient-31);
      }

      .cls-41 {
        fill: url(#linear-gradient-18);
      }
    </style>
    <linearGradient id="linear-gradient" x1="173.67" y1="379.28" x2="312.11" y2="379.28" gradientUnits="userSpaceOnUse">
      <stop offset=".39" stop-color="#a5acb4"/>
      <stop offset=".69" stop-color="#bdc2c8"/>
      <stop offset=".83" stop-color="#cbced3"/>
    </linearGradient>
    <linearGradient id="linear-gradient-2" x1="225.24" y1="796.95" x2="225.24" y2="774.75" gradientUnits="userSpaceOnUse">
      <stop offset="0" stop-color="#444952"/>
      <stop offset=".27" stop-color="#59616a"/>
      <stop offset=".83" stop-color="#8fa0a9"/>
      <stop offset="1" stop-color="#a1b4be"/>
    </linearGradient>
    <linearGradient id="linear-gradient-3" x1="140.5" y1="729.45" x2="140.5" y2="707.25" xlink:href="#linear-gradient-2"/>
    <linearGradient id="linear-gradient-4" x1="73" y1="710.3" x2="73" y2="688.1" xlink:href="#linear-gradient-2"/>
    <linearGradient id="linear-gradient-5" x1="22.74" y1="711.73" x2="22.74" y2="689.53" xlink:href="#linear-gradient-2"/>
    <linearGradient id="linear-gradient-6" x1="50.98" y1="593.01" x2="50.98" y2="570.81" xlink:href="#linear-gradient-2"/>
    <linearGradient id="linear-gradient-7" x1="153.91" y1="579.61" x2="153.91" y2="557.41" xlink:href="#linear-gradient-2"/>
    <linearGradient id="linear-gradient-8" x1="196.51" y1="510.19" x2="196.51" y2="487.99" xlink:href="#linear-gradient-2"/>
    <linearGradient id="linear-gradient-9" x1="288.91" y1="543.22" x2="288.91" y2="521.02" xlink:href="#linear-gradient-2"/>
    <linearGradient id="linear-gradient-10" x1="248.69" y1="632.74" x2="248.69" y2="610.54" xlink:href="#linear-gradient-2"/>
    <linearGradient id="linear-gradient-11" x1="116.93" y1="782.82" x2="116.93" y2="757.99" xlink:href="#linear-gradient-2"/>
    <linearGradient id="linear-gradient-12" x1="295.76" y1="604.74" x2="295.76" y2="566.92" xlink:href="#linear-gradient-2"/>
    <linearGradient id="linear-gradient-13" x1="259.82" y1="769.42" x2="259.82" y2="733.1" xlink:href="#linear-gradient"/>
    <linearGradient id="linear-gradient-14" x1="170.57" y1="786.65" x2="170.57" y2="732.08" xlink:href="#linear-gradient"/>
    <linearGradient id="linear-gradient-15" x1="68.61" y1="767.27" x2="68.61" y2="712.69" xlink:href="#linear-gradient"/>
    <linearGradient id="linear-gradient-16" x1="88.35" y1="686.84" x2="88.35" y2="612.88" xlink:href="#linear-gradient"/>
    <linearGradient id="linear-gradient-17" x1="228.86" y1="598.76" x2="228.86" y2="510.91" xlink:href="#linear-gradient"/>
    <linearGradient id="linear-gradient-18" x1="231.05" y1="246.98" x2="231.05" y2="145.17" xlink:href="#linear-gradient"/>
    <linearGradient id="linear-gradient-19" x1="163.75" y1="653.81" x2="163.75" y2="588.46" xlink:href="#linear-gradient"/>
    <linearGradient id="linear-gradient-20" x1="5559.89" y1="-6372.84" x2="5559.89" y2="-6408.71" gradientTransform="translate(-232.13 -7672) rotate(135.24)" xlink:href="#linear-gradient"/>
    <linearGradient id="linear-gradient-21" x1="173.84" y1="185.19" x2="173.84" y2="29.77" xlink:href="#linear-gradient-2"/>
    <linearGradient id="linear-gradient-22" x1="283.71" y1="183.03" x2="283.71" y2="27.62" xlink:href="#linear-gradient-2"/>
    <linearGradient id="linear-gradient-23" x1="-1774.3" y1="-708.71" x2="-1774.3" y2="-721" gradientTransform="translate(1888.66 997.18)" xlink:href="#linear-gradient-2"/>
    <linearGradient id="linear-gradient-24" x1="3548.12" y1="-8248.84" x2="3548.12" y2="-8261.13" gradientTransform="translate(-3405.68 8616.46)" xlink:href="#linear-gradient-2"/>
    <linearGradient id="linear-gradient-25" x1="2847.35" y1="196.1" x2="2847.35" y2="183.81" gradientTransform="translate(-2692.93 96.04)" xlink:href="#linear-gradient-2"/>
    <linearGradient id="linear-gradient-26" x1="-3382.6" y1="-3733.12" x2="-3382.6" y2="-3745.41" gradientTransform="translate(3475.26 4045.84)" xlink:href="#linear-gradient-2"/>
    <linearGradient id="linear-gradient-27" x1="-2325.19" y1="-7237.6" x2="-2325.19" y2="-7249.89" gradientTransform="translate(2420.41 7584.15)" xlink:href="#linear-gradient-2"/>
    <linearGradient id="linear-gradient-28" x1="131.46" y1="358.39" x2="131.46" y2="283.04" xlink:href="#linear-gradient"/>
    <linearGradient id="linear-gradient-29" x1="2662.21" y1="336.11" x2="2662.21" y2="305.32" gradientTransform="translate(2793.67) rotate(-180) scale(1 -1)" xlink:href="#linear-gradient-2"/>
    <linearGradient id="linear-gradient-30" x1="1163.31" y1="742.42" x2="1163.31" y2="730.13" gradientTransform="translate(-784.71 1011.1) scale(1 -1)" xlink:href="#linear-gradient-2"/>
    <linearGradient id="linear-gradient-31" x1="372.4" y1="-9055.14" x2="372.4" y2="-9067.42" gradientTransform="translate(-21.89 -8707.31) scale(1 -1)" xlink:href="#linear-gradient-2"/>
    <linearGradient id="linear-gradient-32" x1="5570.85" y1="-1625.41" x2="5570.85" y2="-1637.7" gradientTransform="translate(-5232.3 -1353.06) scale(1 -1)" xlink:href="#linear-gradient-2"/>
    <linearGradient id="linear-gradient-33" x1="-2223.1" y1="-668.67" x2="-2223.1" y2="-680.96" gradientTransform="translate(2623.4 -375.73) scale(1 -1)" xlink:href="#linear-gradient-2"/>
    <linearGradient id="linear-gradient-34" x1="-3745.77" y1="-4285.1" x2="-3745.77" y2="-4297.39" gradientTransform="translate(4143.52 -3958.34) scale(1 -1)" xlink:href="#linear-gradient-2"/>
    <linearGradient id="linear-gradient-35" x1="3407.93" y1="350.89" x2="3407.93" y2="275.54" gradientTransform="translate(3769.43) rotate(-180) scale(1 -1)" xlink:href="#linear-gradient"/>
    <linearGradient id="linear-gradient-36" x1="-614.26" y1="328.61" x2="-614.26" y2="297.82" gradientTransform="translate(975.77)" xlink:href="#linear-gradient-2"/>
    <linearGradient id="linear-gradient-37" x1="3954.47" y1="-427.37" x2="3917.19" y2="-427.37" gradientTransform="translate(-198.1 -3738.03) rotate(90)" xlink:href="#linear-gradient-2"/>
    <linearGradient id="linear-gradient-38" x1="3941.46" y1="-427.48" x2="3930.2" y2="-427.48" gradientTransform="translate(-198.1 -3738.03) rotate(90)" xlink:href="#linear-gradient"/>
    <linearGradient id="linear-gradient-39" x1="3321.27" y1="-4146.86" x2="3321.27" y2="-4113.09" gradientTransform="translate(3549.81 -3932.11) rotate(-180)" xlink:href="#linear-gradient"/>
    <linearGradient id="linear-gradient-40" x1="282.23" y1="299.22" x2="286.15" y2="181.88" gradientTransform="translate(-50.21 98.52) rotate(-1.91)" gradientUnits="userSpaceOnUse">
      <stop offset="0" stop-color="#444952"/>
      <stop offset=".09" stop-color="#4c525b"/>
      <stop offset=".48" stop-color="#6a767f"/>
      <stop offset=".8" stop-color="#7d8c95"/>
      <stop offset="1" stop-color="#84949d"/>
    </linearGradient>
    <linearGradient id="linear-gradient-41" x1="273.04" y1="240.55" x2="295.34" y2="240.55" gradientTransform="translate(-50.21 98.52) rotate(-1.91)" xlink:href="#linear-gradient"/>
  </defs>
  <g>
    <path class="cls-38" d="M174.24,352.64c0,52.4,25.21,148.21,72.54,148.21,44.24,0,65.33-95.82,65.33-148.21s-5.74-96.89-68.94-94.88c-80.44,2.56-68.94,42.48-68.94,94.88Z"/>
    <circle class="cls-4" cx="225.24" cy="785.85" r="11.1"/>
    <circle class="cls-16" cx="140.5" cy="718.35" r="11.1"/>
    <circle class="cls-13" cx="73" cy="699.2" r="11.1"/>
    <circle class="cls-18" cx="22.74" cy="700.63" r="11.1"/>
    <circle class="cls-32" cx="50.98" cy="581.91" r="11.1"/>
    <circle class="cls-28" cx="153.91" cy="568.51" r="11.1"/>
    <circle class="cls-23" cx="196.51" cy="499.09" r="11.1"/>
    <circle class="cls-29" cx="288.91" cy="532.12" r="11.1"/>
    <circle class="cls-6" cx="248.69" cy="621.64" r="11.1"/>
    <circle class="cls-30" cx="116.93" cy="770.41" r="12.42"/>
    <circle class="cls-7" cx="295.76" cy="585.83" r="18.91"/>
    <circle class="cls-2" cx="259.82" cy="751.26" r="18.16"/>
    <circle class="cls-24" cx="170.57" cy="759.37" r="27.29"/>
    <circle class="cls-1" cx="68.61" cy="739.98" r="27.29"/>
    <circle class="cls-37" cx="88.35" cy="649.86" r="36.98"/>
    <circle class="cls-27" cx="228.86" cy="554.83" r="43.92"/>
    <circle class="cls-41" cx="231.05" cy="196.07" r="50.9"/>
    <circle class="cls-31" cx="163.75" cy="621.14" r="32.67"/>
    <path class="cls-26" d="M317.76,808.21l2.16-5.45c6.24-15.75,7.01-33.14,2.19-49.38h0s-25.87,25.72-25.87,25.72h0c10,2.92,17.6,11.07,19.81,21.25l1.71,7.86Z"/>
    <path class="cls-34" d="M196.5,182.32c5.97-4.89,6.19-15.37,3.83-22.5-2.28-6.87-6.89-10.42-10.53-13.88-14.4-13.71-19.27-31.47-21.54-39.73-2.03-7.4-8.88-32.37,4.79-48.83,5.5-6.63,15.61-13.41,24.89-11.49,9.55,1.98,14.29,12.38,14.84,11.97.69-.52-5.33-17.78-21.06-24.89-12.78-5.77-27.96-3.03-36.86,2.87-35.55,23.55-20.13,129.79,18.19,146.01,2.35,1,15.84,6.71,23.46.48Z"/>
    <path class="cls-20" d="M261.05,180.17c-5.97-4.89-6.19-15.37-3.83-22.5,2.28-6.87,6.89-10.42,10.53-13.88,14.4-13.71,19.27-31.47,21.54-39.73,2.03-7.4,8.88-32.37-4.79-48.83-5.5-6.63-15.61-13.41-24.89-11.49-9.55,1.98-14.29,12.38-14.84,11.97-.69-.52,5.33-17.78,21.06-24.89,12.78-5.77,27.96-3.03,36.86,2.87,35.55,23.55,20.13,129.79-18.19,146.01-2.35,1-15.84,6.71-23.46.48Z"/>
    <path class="cls-39" d="M109.65,276.18h9.42c2.24,0,4.07,1.82,4.07,4.07v8.22h-17.55v-8.22c0-2.24,1.82-4.07,4.07-4.07Z" transform="translate(-113.67 80.37) rotate(-26.42)"/>
    <path class="cls-21" d="M137.74,355.33h9.42c2.24,0,4.07,1.82,4.07,4.07v8.22h-17.55v-8.22c0-2.24,1.82-4.07,4.07-4.07Z" transform="translate(370.19 676.25) rotate(165.62)"/>
    <path class="cls-5" d="M149.71,279.85h9.42c2.24,0,4.07,1.82,4.07,4.07v8.22h-17.55v-8.22c0-2.24,1.82-4.07,4.07-4.07Z" transform="translate(184.31 -37.65) rotate(33.64)"/>
    <path class="cls-12" d="M87.95,300.43h9.42c2.24,0,4.07,1.82,4.07,4.07v8.22h-17.55v-8.22c0-2.24,1.82-4.07,4.07-4.07Z" transform="translate(-226.92 285.48) rotate(-69.41)"/>
    <path class="cls-9" d="M90.5,334.26h9.42c2.24,0,4.07,1.82,4.07,4.07v8.22h-17.55v-8.22c0-2.24,1.82-4.07,4.07-4.07Z" transform="translate(-169.72 574.4) rotate(-115.83)"/>
    <circle class="cls-3" cx="131.46" cy="320.71" r="37.67"/>
    <circle class="cls-25" cx="131.46" cy="320.71" r="15.4"/>
    <path class="cls-15" d="M369.82,268.68h17.55v8.22c0,2.24-1.82,4.07-4.07,4.07h-9.42c-2.24,0-4.07-1.82-4.07-4.07v-8.22h0Z" transform="translate(595.37 689.4) rotate(-153.58)"/>
    <path class="cls-40" d="M341.74,347.83h17.55v8.22c0,2.24-1.82,4.07-4.07,4.07h-9.42c-2.24,0-4.07-1.82-4.07-4.07v-8.22h0Z" transform="translate(98.87 -75.95) rotate(14.38)"/>
    <path class="cls-35" d="M329.77,272.35h17.55v8.22c0,2.24-1.82,4.07-4.07,4.07h-9.42c-2.24,0-4.07-1.82-4.07-4.07v-8.22h0Z" transform="translate(774.68 322.77) rotate(146.36)"/>
    <path class="cls-22" d="M391.52,292.93h17.55v8.22c0,2.24-1.82,4.07-4.07,4.07h-9.42c-2.24,0-4.07-1.82-4.07-4.07v-8.22h0Z" transform="translate(261.14 779) rotate(-110.59)"/>
    <path class="cls-17" d="M388.97,326.76h17.55v8.22c0,2.24-1.82,4.07-4.07,4.07h-9.42c-2.24,0-4.07-1.82-4.07-4.07v-8.22h0Z" transform="translate(-75.18 545.91) rotate(-64.17)"/>
    <circle class="cls-14" cx="361.5" cy="313.22" r="37.67"/>
    <path class="cls-33" d="M346.1,313.22c0,8.5,6.89,15.4,15.4,15.4,8.5,0,15.4-6.89,15.4-15.4s-6.89-15.4-15.4-15.4c-8.5,0-15.4,6.89-15.4,15.4Z"/>
    <ellipse class="cls-10" cx="229.27" cy="197.8" rx="28.94" ry="18.64"/>
    <ellipse class="cls-19" cx="229.38" cy="197.8" rx="25.91" ry="5.63"/>
    <ellipse class="cls-11" cx="228.54" cy="197.86" rx="3.67" ry="16.88"/>
  </g>
  <g>
    <path class="cls-8" d="M300.55,327.41h-.33s-23.8-12.69-23.8-12.69c-.52.45-1.04.95-1.52,1.5-.85.96-1.72,2.17-3.45,2.81-1.8.66-4.48.7-5.78-.79-1.65-1.89-.31-5.38-.08-5.99,0,0,0-.02,0-.02.4-1.04-.37-2.16-1.48-2.12l-4.3.14-.13-3.93c-.05-1.41-1.52-2.28-2.79-1.68,0,0-.02,0-.03.01-.59.27-3.99,1.85-5.98.32-1.57-1.2-1.71-3.87-1.17-5.71.52-1.77,1.67-2.72,2.57-3.63.66-.67,1.24-1.38,1.74-2.1l-13.98-22.45v-.33s-.1.17-.1.17l-.1-.16v.33s-12.69,23.8-12.69,23.8c.45.52.95,1.04,1.5,1.52.96.85,2.17,1.72,2.81,3.45.66,1.8.7,4.48-.79,5.78-1.89,1.65-5.38.31-5.99.08,0,0-.02,0-.02,0-1.04-.4-2.16.37-2.12,1.48l.14,4.3-3.96.13c-1.41.05-2.29,1.52-1.69,2.8,0,0,0,.02.01.03.27.59,1.85,3.99.32,5.98-1.2,1.57-3.87,1.71-5.71,1.17-1.77-.52-2.72-1.67-3.63-2.57-.66-.65-1.36-1.22-2.07-1.72l-22.45,13.98h-.33s.17.1.17.1l-.16.1h.33s23.77,12.67,23.77,12.67c.53-.45,1.04-.95,1.53-1.5.85-.96,1.72-2.17,3.45-2.81,1.8-.66,4.48-.7,5.78.79,1.65,1.89.31,5.38.08,5.99,0,0,0,.02,0,.02-.4,1.04.37,2.15,1.48,2.11l4.33-.14.13,3.96c.05,1.41,1.52,2.29,2.8,1.69,0,0,.02,0,.03-.01.59-.27,3.99-1.85,5.98-.32,1.57,1.2,1.71,3.87,1.17,5.71-.52,1.77-1.67,2.72-2.57,3.63-.65.66-1.22,1.36-1.72,2.07l13.98,22.45v.33s.1-.17.1-.17l.1.16v-.33s12.67-23.77,12.67-23.77c-.45-.53-.95-1.04-1.5-1.53-.96-.85-2.17-1.72-2.81-3.45-.66-1.8-.7-4.48.79-5.78,1.89-1.65,5.38-.31,5.99-.08,0,0,.02,0,.02,0,1.04.4,2.15-.37,2.11-1.48l-.14-4.33,3.93-.13c1.41-.05,2.28-1.52,1.68-2.79,0,0,0-.02-.01-.03-.27-.59-1.85-3.99-.32-5.98,1.2-1.57,3.87-1.71,5.71-1.17,1.77.52,2.72,1.67,3.63,2.57.67.66,1.38,1.24,2.1,1.74l22.45-13.98h.33s-.17-.1-.17-.1l.16-.1Z"/>
    <path class="cls-36" d="M250.32,338.79s-.1-3.05-.22-6.6c-.01-.36-.02-.72.02-1.07.83-1.15,3.29-1.24,2.79-3.1-.52-2.58-3.02-3.8-4.1-6.08-.93-1.99.89-3.64,2.15-4.98.7-.75.93-2.34-.24-2.88-1.62-.81-3.75.13-4.79-.71-3.27-2.64-6.4-1.38-9.7-.54.95-1.77,2.81-2.41,4.06-3.75-3.43,1.27-9.44,2.77-9.29,7.39.02.58-.84.89-.67,1.47,0,.29.72-.02,1.02.11.44.27,0,.29-.13.44,2.89.05,5.37.69,7.88,2.19-1.04-.83-.94-2.28-.55-3.45.14-.15.41-.59.7-.6,1.02.11,2.2,1.08,3.05.33-.6-.56-1.46-.38-1.78-1.24-.85.46-1.45-.1-2.32-.21-.29,0-.73-.12-1.01.18-.84.89.49,1.57.37,2.44-.22,2.03-3.61-.02-5.19.32.01-3.9,5.43-6.11,9.06-5.65,1.02.11,1.34,1.11,1.94,1.96.75.84,2.31-.08,3.61.02.29,0,.44.27.45.42-1.67,1.79-6.13,2.37-5.2,4.51.62,1.28,5.67,1.11,3.44,3.64-.84.89-4.21-.58-4.56,2.03,0,.14-.43.16-.57.31-.94,2.05-1.31,4.09-2.75,5.81-.1.37-.09.73-.08,1.09l.22,6.62h0s0,0,0,0v.06s.04,0,.04,0l6.47,10.39v.11s.03-.06.03-.06l.03.05v-.11s5.76-10.8,5.76-10.8h.04s0-.07,0-.07h0s0,0,0,0Z"/>
  </g>
</svg>