<?xml version="1.0" encoding="UTF-8"?>
<svg id="Layer_1" data-name="Layer 1" xmlns="http://www.w3.org/2000/svg" xmlns:xlink="http://www.w3.org/1999/xlink" viewBox="0 0 418.51 841.89">
  <defs>
    <style>
      .cls-1 {
        fill: url(#linear-gradient-15);
      }

      .cls-2 {
        fill: url(#linear-gradient-13);
      }

      .cls-3 {
        fill: url(#linear-gradient-28);
      }

      .cls-4 {
        fill: url(#linear-gradient-2);
      }

      .cls-5 {
        fill: url(#linear-gradient-25);
      }

      .cls-6 {
        fill: url(#linear-gradient-10);
      }

      .cls-7 {
        fill: url(#linear-gradient-12);
      }

      .cls-8 {
        fill: url(#linear-gradient-27);
      }

      .cls-9 {
        fill: url(#linear-gradient-37);
      }

      .cls-10 {
        fill: url(#linear-gradient-39);
      }

      .cls-11 {
        fill: url(#linear-gradient-26);
      }

      .cls-12 {
        fill: url(#linear-gradient-4);
      }

      .cls-13 {
        fill: url(#linear-gradient-35);
      }

      .cls-14 {
        fill: url(#linear-gradient-30);
      }

      .cls-15 {
        fill: url(#linear-gradient-3);
      }

      .cls-16 {
        fill: url(#linear-gradient-34);
      }

      .cls-17 {
        fill: url(#linear-gradient-5);
      }

      .cls-18 {
        fill: url(#linear-gradient-38);
      }

      .cls-19 {
        fill: url(#linear-gradient-22);
      }

      .cls-20 {
        fill: url(#linear-gradient-24);
      }

      .cls-21 {
        fill: url(#linear-gradient-33);
      }

      .cls-22 {
        fill: url(#linear-gradient-8);
      }

      .cls-23 {
        fill: url(#linear-gradient-14);
      }

      .cls-24 {
        fill: url(#linear-gradient-29);
      }

      .cls-25 {
        fill: url(#linear-gradient-20);
      }

      .cls-26 {
        fill: url(#linear-gradient-17);
      }

      .cls-27 {
        fill: url(#linear-gradient-7);
      }

      .cls-28 {
        fill: url(#linear-gradient-9);
      }

      .cls-29 {
        fill: url(#linear-gradient-11);
      }

      .cls-30 {
        fill: url(#linear-gradient-19);
      }

      .cls-31 {
        fill: url(#linear-gradient-6);
      }

      .cls-32 {
        fill: url(#linear-gradient-36);
      }

      .cls-33 {
        fill: url(#linear-gradient-21);
      }

      .cls-34 {
        fill: url(#linear-gradient-32);
      }

      .cls-35 {
        fill: url(#linear-gradient-16);
      }

      .cls-36 {
        fill: url(#linear-gradient);
      }

      .cls-37 {
        fill: url(#linear-gradient-23);
      }

      .cls-38 {
        fill: url(#linear-gradient-31);
      }

      .cls-39 {
        fill: url(#linear-gradient-18);
      }
    </style>
    <linearGradient id="linear-gradient" x1="173.67" y1="379.28" x2="312.11" y2="379.28" gradientUnits="userSpaceOnUse">
      <stop offset=".39" stop-color="#a5acb4"/>
      <stop offset=".69" stop-color="#bdc2c8"/>
      <stop offset=".83" stop-color="#cbced3"/>
    </linearGradient>
    <linearGradient id="linear-gradient-2" x1="225.24" y1="796.95" x2="225.24" y2="774.75" gradientUnits="userSpaceOnUse">
      <stop offset="0" stop-color="#444952"/>
      <stop offset=".27" stop-color="#59616a"/>
      <stop offset=".83" stop-color="#8fa0a9"/>
      <stop offset="1" stop-color="#a1b4be"/>
    </linearGradient>
    <linearGradient id="linear-gradient-3" x1="140.5" y1="729.45" x2="140.5" y2="707.25" xlink:href="#linear-gradient-2"/>
    <linearGradient id="linear-gradient-4" x1="73" y1="710.3" x2="73" y2="688.1" xlink:href="#linear-gradient-2"/>
    <linearGradient id="linear-gradient-5" x1="22.74" y1="711.73" x2="22.74" y2="689.53" xlink:href="#linear-gradient-2"/>
    <linearGradient id="linear-gradient-6" x1="50.98" y1="593.01" x2="50.98" y2="570.81" xlink:href="#linear-gradient-2"/>
    <linearGradient id="linear-gradient-7" x1="153.91" y1="579.61" x2="153.91" y2="557.41" xlink:href="#linear-gradient-2"/>
    <linearGradient id="linear-gradient-8" x1="196.51" y1="510.19" x2="196.51" y2="487.99" xlink:href="#linear-gradient-2"/>
    <linearGradient id="linear-gradient-9" x1="288.91" y1="543.22" x2="288.91" y2="521.02" xlink:href="#linear-gradient-2"/>
    <linearGradient id="linear-gradient-10" x1="248.69" y1="632.74" x2="248.69" y2="610.54" xlink:href="#linear-gradient-2"/>
    <linearGradient id="linear-gradient-11" x1="116.93" y1="782.82" x2="116.93" y2="757.99" xlink:href="#linear-gradient-2"/>
    <linearGradient id="linear-gradient-12" x1="295.76" y1="604.74" x2="295.76" y2="566.92" xlink:href="#linear-gradient-2"/>
    <linearGradient id="linear-gradient-13" x1="259.82" y1="769.42" x2="259.82" y2="733.1" xlink:href="#linear-gradient"/>
    <linearGradient id="linear-gradient-14" x1="170.57" y1="786.65" x2="170.57" y2="732.08" xlink:href="#linear-gradient"/>
    <linearGradient id="linear-gradient-15" x1="68.61" y1="767.27" x2="68.61" y2="712.69" xlink:href="#linear-gradient"/>
    <linearGradient id="linear-gradient-16" x1="88.35" y1="686.84" x2="88.35" y2="612.88" xlink:href="#linear-gradient"/>
    <linearGradient id="linear-gradient-17" x1="228.86" y1="598.76" x2="228.86" y2="510.91" xlink:href="#linear-gradient"/>
    <linearGradient id="linear-gradient-18" x1="231.05" y1="246.98" x2="231.05" y2="145.17" xlink:href="#linear-gradient"/>
    <linearGradient id="linear-gradient-19" x1="163.75" y1="653.81" x2="163.75" y2="588.46" xlink:href="#linear-gradient"/>
    <linearGradient id="linear-gradient-20" x1="3581.67" y1="2339.47" x2="3581.67" y2="2303.6" gradientTransform="translate(4497.83 -92.74) rotate(135.24)" xlink:href="#linear-gradient"/>
    <linearGradient id="linear-gradient-21" x1="173.84" y1="185.19" x2="173.84" y2="29.77" xlink:href="#linear-gradient-2"/>
    <linearGradient id="linear-gradient-22" x1="283.71" y1="183.03" x2="283.71" y2="27.62" xlink:href="#linear-gradient-2"/>
    <linearGradient id="linear-gradient-23" x1="429.19" y1="-569.2" x2="429.19" y2="-581.49" gradientTransform="translate(-314.83 857.67)" xlink:href="#linear-gradient-2"/>
    <linearGradient id="linear-gradient-24" x1="3949.29" y1="1328.61" x2="3949.29" y2="1316.33" gradientTransform="translate(-3806.85 -961)" xlink:href="#linear-gradient-2"/>
    <linearGradient id="linear-gradient-25" x1="343.04" y1="1439.74" x2="343.04" y2="1427.45" gradientTransform="translate(-188.62 -1147.6)" xlink:href="#linear-gradient-2"/>
    <linearGradient id="linear-gradient-26" x1="1598" y1="-1398.36" x2="1598" y2="-1410.65" gradientTransform="translate(-1505.34 1711.08)" xlink:href="#linear-gradient-2"/>
    <linearGradient id="linear-gradient-27" x1="3117.56" y1="-1123.3" x2="3117.56" y2="-1135.58" gradientTransform="translate(-3022.35 1469.85)" xlink:href="#linear-gradient-2"/>
    <linearGradient id="linear-gradient-28" x1="131.46" y1="358.39" x2="131.46" y2="283.04" xlink:href="#linear-gradient"/>
    <linearGradient id="linear-gradient-29" x1="4271.35" y1="336.11" x2="4271.35" y2="305.32" gradientTransform="translate(4402.81) rotate(-180) scale(1 -1)" xlink:href="#linear-gradient-2"/>
    <linearGradient id="linear-gradient-30" x1="4807.88" y1="1597.91" x2="4807.88" y2="1585.62" gradientTransform="translate(-4429.28 1866.59) scale(1 -1)" xlink:href="#linear-gradient-2"/>
    <linearGradient id="linear-gradient-31" x1="-785.18" y1="122.76" x2="-785.18" y2="110.48" gradientTransform="translate(1135.69 470.59) scale(1 -1)" xlink:href="#linear-gradient-2"/>
    <linearGradient id="linear-gradient-32" x1="4406.14" y1="-1273.28" x2="4406.14" y2="-1285.56" gradientTransform="translate(-4067.6 -1000.93) scale(1 -1)" xlink:href="#linear-gradient-2"/>
    <linearGradient id="linear-gradient-33" x1="3323.51" y1="3172.41" x2="3323.51" y2="3160.12" gradientTransform="translate(-2923.21 3465.34) scale(1 -1)" xlink:href="#linear-gradient-2"/>
    <linearGradient id="linear-gradient-34" x1="995.99" y1="3277.64" x2="995.99" y2="3265.35" gradientTransform="translate(-598.24 3604.4) scale(1 -1)" xlink:href="#linear-gradient-2"/>
    <linearGradient id="linear-gradient-35" x1="5017.07" y1="350.89" x2="5017.07" y2="275.54" gradientTransform="translate(5378.58) rotate(-180) scale(1 -1)" xlink:href="#linear-gradient"/>
    <linearGradient id="linear-gradient-36" x1="-614.26" y1="328.61" x2="-614.26" y2="297.82" gradientTransform="translate(975.77)" xlink:href="#linear-gradient-2"/>
    <linearGradient id="linear-gradient-37" x1="-4.39" y1="5140.63" x2="-41.67" y2="5140.63" gradientTransform="translate(5369.9 220.83) rotate(90)" xlink:href="#linear-gradient-2"/>
    <linearGradient id="linear-gradient-38" x1="-17.4" y1="5140.52" x2="-28.66" y2="5140.52" gradientTransform="translate(5369.9 220.83) rotate(90)" xlink:href="#linear-gradient"/>
    <linearGradient id="linear-gradient-39" x1="4930.41" y1="5380" x2="4930.41" y2="5413.76" gradientTransform="translate(5158.95 5594.74) rotate(-180)" xlink:href="#linear-gradient"/>
  </defs>
  <path class="cls-36" d="M174.24,352.64c0,52.4,25.21,148.21,72.54,148.21,44.24,0,65.33-95.82,65.33-148.21s-5.74-96.89-68.94-94.88c-80.44,2.56-68.94,42.48-68.94,94.88Z"/>
  <circle class="cls-4" cx="225.24" cy="785.85" r="11.1"/>
  <circle class="cls-15" cx="140.5" cy="718.35" r="11.1"/>
  <circle class="cls-12" cx="73" cy="699.2" r="11.1"/>
  <circle class="cls-17" cx="22.74" cy="700.63" r="11.1"/>
  <circle class="cls-31" cx="50.98" cy="581.91" r="11.1"/>
  <circle class="cls-27" cx="153.91" cy="568.51" r="11.1"/>
  <circle class="cls-22" cx="196.51" cy="499.09" r="11.1"/>
  <circle class="cls-28" cx="288.91" cy="532.12" r="11.1"/>
  <circle class="cls-6" cx="248.69" cy="621.64" r="11.1"/>
  <circle class="cls-29" cx="116.93" cy="770.41" r="12.42"/>
  <circle class="cls-7" cx="295.76" cy="585.83" r="18.91"/>
  <circle class="cls-2" cx="259.82" cy="751.26" r="18.16"/>
  <circle class="cls-23" cx="170.57" cy="759.37" r="27.29"/>
  <circle class="cls-1" cx="68.61" cy="739.98" r="27.29"/>
  <circle class="cls-35" cx="88.35" cy="649.86" r="36.98"/>
  <circle class="cls-26" cx="228.86" cy="554.83" r="43.92"/>
  <circle class="cls-39" cx="231.05" cy="196.07" r="50.9"/>
  <circle class="cls-30" cx="163.75" cy="621.14" r="32.67"/>
  <path class="cls-25" d="M317.76,808.21l2.16-5.45c6.24-15.75,7.01-33.14,2.19-49.38h0s-25.87,25.72-25.87,25.72h0c10,2.92,17.6,11.07,19.81,21.25l1.71,7.86Z"/>
  <path class="cls-33" d="M196.5,182.32c5.97-4.89,6.19-15.37,3.83-22.5-2.28-6.87-6.89-10.42-10.53-13.88-14.4-13.71-19.27-31.47-21.54-39.73-2.03-7.4-8.88-32.37,4.79-48.83,5.5-6.63,15.61-13.41,24.89-11.49,9.55,1.98,14.29,12.38,14.84,11.97.69-.52-5.33-17.78-21.06-24.89-12.78-5.77-27.96-3.03-36.86,2.87-35.55,23.55-20.13,129.79,18.19,146.01,2.35,1,15.84,6.71,23.46.48Z"/>
  <path class="cls-19" d="M261.05,180.17c-5.97-4.89-6.19-15.37-3.83-22.5,2.28-6.87,6.89-10.42,10.53-13.88,14.4-13.71,19.27-31.47,21.54-39.73,2.03-7.4,8.88-32.37-4.79-48.83-5.5-6.63-15.61-13.41-24.89-11.49-9.55,1.98-14.29,12.38-14.84,11.97-.69-.52,5.33-17.78,21.06-24.89,12.78-5.77,27.96-3.03,36.86,2.87,35.55,23.55,20.13,129.79-18.19,146.01-2.35,1-15.84,6.71-23.46.48Z"/>
  <path class="cls-37" d="M109.65,276.18h9.42c2.24,0,4.07,1.82,4.07,4.07v8.22h-17.55v-8.22c0-2.24,1.82-4.07,4.07-4.07Z" transform="translate(-113.67 80.37) rotate(-26.42)"/>
  <path class="cls-20" d="M137.74,355.33h9.42c2.24,0,4.07,1.82,4.07,4.07v8.22h-17.55v-8.22c0-2.24,1.82-4.07,4.07-4.07Z" transform="translate(370.19 676.25) rotate(165.62)"/>
  <path class="cls-5" d="M149.71,279.85h9.42c2.24,0,4.07,1.82,4.07,4.07v8.22h-17.55v-8.22c0-2.24,1.82-4.07,4.07-4.07Z" transform="translate(184.31 -37.65) rotate(33.64)"/>
  <path class="cls-11" d="M87.95,300.43h9.42c2.24,0,4.07,1.82,4.07,4.07v8.22h-17.55v-8.22c0-2.24,1.82-4.07,4.07-4.07Z" transform="translate(-226.92 285.48) rotate(-69.41)"/>
  <path class="cls-8" d="M90.5,334.26h9.42c2.24,0,4.07,1.82,4.07,4.07v8.22h-17.55v-8.22c0-2.24,1.82-4.07,4.07-4.07Z" transform="translate(-169.72 574.4) rotate(-115.83)"/>
  <circle class="cls-3" cx="131.46" cy="320.71" r="37.67"/>
  <circle class="cls-24" cx="131.46" cy="320.71" r="15.4"/>
  <path class="cls-14" d="M369.82,268.68h17.55v8.22c0,2.24-1.82,4.07-4.07,4.07h-9.42c-2.24,0-4.07-1.82-4.07-4.07v-8.22h0Z" transform="translate(595.37 689.4) rotate(-153.58)"/>
  <path class="cls-38" d="M341.74,347.83h17.55v8.22c0,2.24-1.82,4.07-4.07,4.07h-9.42c-2.24,0-4.07-1.82-4.07-4.07v-8.22h0Z" transform="translate(98.87 -75.95) rotate(14.38)"/>
  <path class="cls-34" d="M329.77,272.35h17.55v8.22c0,2.24-1.82,4.07-4.07,4.07h-9.42c-2.24,0-4.07-1.82-4.07-4.07v-8.22h0Z" transform="translate(774.68 322.77) rotate(146.36)"/>
  <path class="cls-21" d="M391.52,292.93h17.55v8.22c0,2.24-1.82,4.07-4.07,4.07h-9.42c-2.24,0-4.07-1.82-4.07-4.07v-8.22h0Z" transform="translate(261.14 779) rotate(-110.59)"/>
  <path class="cls-16" d="M388.97,326.76h17.55v8.22c0,2.24-1.82,4.07-4.07,4.07h-9.42c-2.24,0-4.07-1.82-4.07-4.07v-8.22h0Z" transform="translate(-75.18 545.91) rotate(-64.17)"/>
  <circle class="cls-13" cx="361.5" cy="313.22" r="37.67"/>
  <path class="cls-32" d="M346.1,313.22c0,8.5,6.89,15.4,15.4,15.4,8.5,0,15.4-6.89,15.4-15.4s-6.89-15.4-15.4-15.4c-8.5,0-15.4,6.89-15.4,15.4Z"/>
  <ellipse class="cls-9" cx="229.27" cy="197.8" rx="28.94" ry="18.64"/>
  <ellipse class="cls-18" cx="229.38" cy="197.8" rx="25.91" ry="5.63"/>
  <ellipse class="cls-10" cx="228.54" cy="197.86" rx="3.67" ry="16.88"/>
</svg>