<?xml version="1.0" encoding="UTF-8"?>
<svg id="Layer_1" data-name="Layer 1" xmlns="http://www.w3.org/2000/svg" xmlns:xlink="http://www.w3.org/1999/xlink" viewBox="0 0 561.75 553.89">
  <defs>
    <style>
      .cls-1 {
        fill: url(#linear-gradient-2);
      }

      .cls-2 {
        fill: url(#linear-gradient);
      }
    </style>
    <linearGradient id="linear-gradient" x1="410.96" y1="374.83" x2="428.5" y2="-150.37" gradientTransform="translate(-139.25 175.81) rotate(-1.91)" gradientUnits="userSpaceOnUse">
      <stop offset="0" stop-color="#444952"/>
      <stop offset=".09" stop-color="#4c525b"/>
      <stop offset=".48" stop-color="#6a767f"/>
      <stop offset=".8" stop-color="#7d8c95"/>
      <stop offset="1" stop-color="#84949d"/>
    </linearGradient>
    <linearGradient id="linear-gradient-2" x1="369.81" y1="112.23" x2="469.65" y2="112.23" gradientTransform="translate(-139.25 175.81) rotate(-1.91)" gradientUnits="userSpaceOnUse">
      <stop offset=".39" stop-color="#a5acb4"/>
      <stop offset=".69" stop-color="#bdc2c8"/>
      <stop offset=".83" stop-color="#cbced3"/>
    </linearGradient>
  </defs>
  <path class="cls-2" d="M546.71,264.88l-1.49.05-106.55-56.86c-2.35,2.03-4.64,4.25-6.82,6.71-3.82,4.29-7.7,9.7-15.46,12.56-8.05,2.97-20.04,3.12-25.85-3.52-7.41-8.46-1.4-24.09-.35-26.82.01-.03.03-.07.04-.1,1.81-4.66-1.64-9.66-6.63-9.49l-19.24.64-.59-17.61c-.21-6.3-6.8-10.21-12.51-7.54-.04.02-.09.04-.13.06-2.65,1.23-17.84,8.27-26.78,1.44-7.01-5.36-7.66-17.33-5.23-25.56,2.34-7.93,7.48-12.17,11.5-16.26,2.96-3.01,5.54-6.17,7.79-9.38l-62.58-100.49-.05-1.49-.41.76-.46-.73.05,1.49-56.86,106.55c2.03,2.35,4.25,4.64,6.71,6.82,4.29,3.82,9.7,7.7,12.56,15.46,2.97,8.05,3.12,20.04-3.52,25.85-8.46,7.41-24.09,1.4-26.82.35-.03-.01-.07-.03-.1-.04-4.66-1.81-9.66,1.64-9.49,6.63l.64,19.24-17.73.59c-6.31.21-10.23,6.81-7.55,12.53.02.04.04.09.06.13,1.23,2.65,8.27,17.84,1.44,26.78-5.36,7.01-17.33,7.66-25.56,5.23-7.93-2.34-12.17-7.48-16.26-11.5-2.97-2.92-6.08-5.46-9.24-7.69l-100.49,62.58-1.49.05.76.41-.73.46,1.49-.05,106.4,56.78c2.35-2.03,4.65-4.26,6.84-6.72,3.82-4.29,7.7-9.7,15.46-12.56,8.05-2.97,20.04-3.12,25.85,3.52,7.41,8.46,1.4,24.09.35,26.82-.01.03-.03.07-.04.1-1.8,4.64,1.63,9.63,6.61,9.47l19.39-.65.59,17.73c.21,6.31,6.81,10.23,12.53,7.55.04-.02.09-.04.13-.06,2.65-1.23,17.84-8.27,26.78-1.44,7.01,5.36,7.66,17.33,5.23,25.56-2.34,7.93-7.48,12.17-11.5,16.26-2.92,2.97-5.46,6.08-7.69,9.24l62.58,100.49.05,1.49.41-.76.46.73-.05-1.49,56.78-106.4c-2.03-2.35-4.26-4.65-6.72-6.84-4.29-3.82-9.7-7.7-12.56-15.46-2.97-8.05-3.12-20.04,3.52-25.85,8.46-7.41,24.09-1.4,26.82-.35.03.01.07.03.1.04,4.64,1.8,9.63-1.63,9.47-6.61l-.65-19.39,17.61-.59c6.3-.21,10.21-6.8,7.54-12.51-.02-.04-.04-.09-.06-.13-1.23-2.65-8.27-17.84-1.44-26.78,5.36-7.01,17.33-7.66,25.56-5.23,7.93,2.34,12.17,7.48,16.26,11.5,3.01,2.96,6.17,5.54,9.38,7.79l100.49-62.58,1.49-.05-.76-.41.73-.46Z"/>
  <path class="cls-1" d="M321.9,315.8s-.46-13.64-.99-29.56c-.05-1.59-.11-3.21.09-4.78,3.72-5.17,14.71-5.53,12.49-13.86-2.33-11.56-13.5-17.01-18.37-27.19-4.18-8.91,3.98-16.3,9.6-22.31,3.12-3.34,4.18-10.49-1.08-12.9-7.24-3.64-16.8.56-21.45-3.16-14.62-11.8-28.66-6.16-43.41-2.43,4.26-7.9,12.57-10.77,18.19-16.78-15.33,5.69-42.27,12.41-41.58,33.08.09,2.58-3.75,4.01-3.01,6.57.04,1.29,3.23-.11,4.54.49,1.98,1.23.04,1.29-.58,1.96,12.94.21,24.03,3.08,35.25,9.82-4.65-3.72-4.22-10.21-2.46-15.44.62-.67,1.85-2.65,3.14-2.69,4.54.49,9.86,4.84,13.63,1.48-2.67-2.5-6.52-1.72-7.95-5.55-3.81,2.07-6.48-.43-10.38-.95-1.29.04-3.25-.54-4.5.8-3.75,4.01,2.18,7.04,1.66,10.94-.99,9.09-16.17-.11-23.23,1.42.06-17.46,24.31-27.33,40.54-25.28,4.54.49,5.99,4.97,8.7,8.76,3.36,3.77,10.34-.35,16.17.11,1.29-.04,1.98,1.23,2,1.87-7.49,8.01-27.45,10.62-23.25,20.18,2.78,5.73,25.39,4.97,15.42,16.3-3.75,4.01-18.84-2.6-20.39,9.09.02.65-1.92.71-2.54,1.38-4.22,9.19-5.86,18.3-12.3,26-.46,1.65-.41,3.27-.36,4.86.53,15.96.99,29.64.99,29.64h0s0,.01,0,.01v.29s.18,0,.18,0l28.97,46.52.02.5.14-.25.15.24-.02-.5,25.8-48.35h.17s0-.3,0-.3h0s0-.01,0-.01Z"/>
</svg>