<?xml version="1.0" encoding="UTF-8"?>
<svg id="Layer_1" data-name="Layer 1" xmlns="http://www.w3.org/2000/svg" viewBox="0 0 415.47 608.75">
  <defs>
    <style>
      .cls-1 {
        fill: #0a5e9c;
      }

      .cls-2 {
        fill: #5bbcd8;
      }
    </style>
  </defs>
  <path class="cls-1" d="M51.62,237.91c4.14,6.86,4.14,16.46.03,23.31-4.11,4.11-10.97,5.48-16.45,4.11-17.82-6.86-23.31-27.42-20.57-45.24,5.48-34.28,31.53-53.47,56.81-72.81,1.44-4.64,3.11-9.18,4.98-13.6,11.24-26.57,30.02-49.18,53.65-65.15,3.94-2.66,8.01-5.14,12.37-7.13,14.78,5.13,16.15,21.58,25.75,32.55,13.71,12.34,32.91,30.16,52.1,21.94-20.57-13.71-39.76-35.65-37.02-63.07,2.74-17.82,13.71-41.13,32.91-38.39,21.94,4.11,21.94,30.16,38.39,43.87,5.48,2.74,10.97,5.48,16.45,8.23-15.08,1.37-34.28-12.34-42.5-2.74-16.45,19.19,17.82,37.02,37.02,43.87,2.74,1.37,5.48,6.86,4.11,9.6-23.31,24.68-60.33,20.57-89.46,10.42-7.03-.8-10.84,1.79-14.54,4.5-7.4,5.42-14.37,11.36-20.77,17.99,6.86-6.31,14.2-10.75,21.91-13.85,3.86-1.55,7.8-2.77,11.82-3.72,38.93,10.72,82.8,9.35,112.97-20.82,4.11-4.11,8.23,1.37,12.34,0,9.6-4.11,13.71-21.94,2.74-24.68-21.94-4.11-45.24-9.6-67.18-2.74-1.37,0-4.11-6.86-2.74-6.86,34.28-5.48,64.44-10.97,97.34-8.23,10.97,0,13.71,19.19,13.73,31.08.25,5.4,2.88,8.54,5.84,11.41,26.67,25.79,58.99,61.57,38.02,97.36-4.11,8.23-15.08,12.34-26.44,12.68-5.89.77-9.11,3.47-10.66,8.17-.97,3.64-2.03,7.4-3.19,11.26s-2.4,7.83-4.84,11.06c-13.83,11.66-31.65-3.42-42.62-8.9-53.47-28.79-120.65-39.76-165.9,5.48-10.97,10.97-15.08,27.42-6.86,42.5,2.06,3.43,5.65,5.62,7.82,7.01,1.43,1.63,4.57.46,8.83-4.3,3.46-4.91,4.52-8.96,4.79-12.84.84-11.63-1.22-23.46,5.98-33.74-15.08-2.74-24.68,13.71-20.57,26.05,0,1.37,4.11-1.37,5.48-1.37,2.06,2.74,4.11,7.2,4.46,11.48s-1.93,8.88-6.37,10.8c-3.57-.34-7.69-1.71-10.43-5.83-8.23-17.82,1.37-37.02,16.45-47.99,17.82-13.71,38.39-19.19,58.96-20.57,46.84-4.57,97.5,24.18,116.25,65.63,1.88,4.14,2.53,7.71,2.23,10.65-14.28,21.07,3.54,43,.8,66.31-1.37,6.86-2.74,12.34-6.86,15.08-12.85,9.77-23.78,20.5-31.69,32.27-2.64,3.92-4.94,7.96-12.35,10.33-54.68,10.87-54.68,82.16-35.48,121.92,15.08-6.86,8.23-26.05,15.08-38.39,5.48-8.23,19.19-12.34,23.31-4.11,15.08,37.02-32.91,64.44-52.1,93.23-1.37-16.45,0-34.28-10.97-46.62,12.34,10.97,10.97,30.16,10.97,45.24,21.94-21.94,41.13-45.24,54.84-72.67,4.11-8.23-2.74-20.57-13.71-17.82-2.74,1.37-6.86,5.48-5.48,8.23,1.37,24.68-10.97,45.24-27.42,61.7-9.6-38.39-32.91-67.18-71.29-83.63-13.71-5.48-17.82-21.94-15.08-37.02,5.48-23.31,28.79-28.79,46.64-40.58,5.08-2.84,9.82-4.91,13.57-6.43,7.49-3.04,15.89-4.07,24.8-2.35,5.94,1.83,9.16,5.6,7.63,9.83-3.51,9.36-28.19,20.33-15.85,31.3-2.74,0-4.11-1.37-4.11-4.11,2.74-12.34,13.71-17.82,19.44-27.61.85-2.79.06-5.52-2.33-7.83-4.77-4.62-11.17-7.06-19.85-5.69,4.11-5.48,9.6,0,15.08-1.37-5.48-9.6-17.82-6.86-23.31-15.08,17.82-13.71,31.53,19.19,41.13,19.19,15.08,0,4.11-30.16,12.34-45.24,6.86-13.71,27.42-4.11,31.53-13.71,5.48-9.6-12.34-24.68-27.42-21.94-17.82,4.11-50.73,13.71-41.13,37.02,0-20.57,21.94-30.16,37.02-35.65,16.45-6.86,28.79,8.23,32.91,23.31-37.02-8.23-32.91,32.91-42.5,57.58,0,1.37-4.11-2.74-6.86-4.11-8.23-8.23-12.34-21.94-26.05-24.68-12.34-2.74-19.19,8.23-26.05,13.71-26.05,17.82-60.33,37.02-89.12,24.68-23.31-9.6-20.57-45.24-14.19-68.69.92-3.6,1.56-6.63,2.28-9.52,2.14-8.68,5.74-17.42,7.8-24.62,6.86-16.45,4.11-38.39,13.43-54.58,2.64-5.12,4.19-8.9,4.72-11.87.53-2.97.9-5.96,1.04-8.96,1.37-19.19-16.45-37.02-37.02-37.02-16.45,0-32.91,12.34-33.19,31.78.09,3.47.73,6.92,1.63,10.72Z"/>
  <ellipse class="cls-1" cx="203.29" cy="293.52" rx="92.15" ry="77.67"/>
  <path class="cls-2" d="M249.17,251.73c6.62-9.51,20.33-10.56,29.3-2.65,9.49,8.97,8.97,24.26-.21,33.98-3.43,3.38-3.82,4.33-4.14,5.22-3.17,11.38-9.78,21.32-18.65,28.63-1.39,1.05-2.83,2.03-4.42-1.95-3.18-9.97-12.14-18.94-23.22-17.89-5.8.53-12.13,3.16-14.77,8.97-1.05,2.64-3.16,6.33-.53,9.49,2.64-9.49,13.19-16.35,22.68-10.55,7.91,4.75,10.55,14.77,6.86,22.68-4.75,10.55-17.93,15.3-28.48,11.08-5.8-2.11-10.02-7.38-13.81-12.05-.98-.5-1.86-.89-2.72-1.25-20.45-8.65-34.79-28.89-34.79-52.49,0-1.31.1-2.75.29-4.3.19-1.55.47-3.22.83-4.98,9.59,2.28,20.66,3.87,28.05-4.05,4.22-4.75,6.33-11.6,3.69-17.41-1.58-3.69-5.27-6.86-9.49-5.8,5.8,5.8,5.8,16.35-2.11,20.04-7.38,3.69-16.35.53-20.57-6.86-9.49-15.3,3.69-29.54,16.87-35.23.84-.72,1.46-1.39,2.15-2.09,16.46-37.13,37.26-75.27,37.26-75.27,0,0,30.29,55.55,46.7,97.84-.19.48-.06,1.05-.67,1.61-13.17,1.53-25.83,11.55-23.72,26.32,1.58,9.49,12.13,18.99,21.63,13.19-5.8,0-11.6-2.11-14.77-7.38-2.11-4.22-2.64-8.97-1.02-13.32.45-1.25,1.05-2.44,1.79-3.55Z"/>
</svg>