<?xml version="1.0" encoding="UTF-8"?>
<svg id="Layer_1" data-name="Layer 1" xmlns="http://www.w3.org/2000/svg" viewBox="0 0 491.66 305.51">
  <defs>
    <style>
      .cls-1 {
        fill: #3586c7;
      }

      .cls-2 {
        fill: #37a0d9;
      }
    </style>
  </defs>
  <path class="cls-2" d="M243.06,292.43c-120.56,0-232.51-22.37-232.51-49.96s119.13-49.96,232.51-49.96c122.71,0,232.51,22.37,232.51,49.96s-122,49.96-232.51,49.96Z"/>
  <path class="cls-1" d="M246.45,277.66c-86.92,0-167.63-16.13-167.63-36.02s85.89-36.02,167.63-36.02c88.47,0,167.63,16.13,167.63,36.02s-87.96,36.02-167.63,36.02Z"/>
  <path class="cls-2" d="M242.93,263.94c-52.31,0-100.89-9.71-100.89-21.68s51.69-21.68,100.89-21.68c53.24,0,100.89,9.71,100.89,21.68s-52.93,21.68-100.89,21.68Z"/>
  <path class="cls-1" d="M241.25,255.43c-21.27,0-41.02-3.95-41.02-8.81s21.02-8.81,41.02-8.81c21.65,0,41.02,3.95,41.02,8.81s-21.52,8.81-41.02,8.81Z"/>
  <path class="cls-1" d="M257.75,235.05c0,8.14-6.6,14.75-14.75,14.75-8.14,0-14.75-6.6-14.75-14.75,0-8.14,14.75-35.19,14.75-35.19,0,0,14.75,27.04,14.75,35.19Z"/>
  <path class="cls-1" d="M218.64,162.58c0,8.14-6.6,14.75-14.75,14.75s-14.75-6.6-14.75-14.75,14.75-35.19,14.75-35.19c0,0,14.75,27.04,14.75,35.19Z"/>
  <path class="cls-1" d="M318.69,158.47c0,8.14-6.6,14.75-14.75,14.75-8.14,0-14.75-6.6-14.75-14.75s14.75-35.19,14.75-35.19c0,0,14.75,27.04,14.75,35.19Z"/>
  <path class="cls-1" d="M395.69,100.41c0,8.14-6.6,14.75-14.75,14.75s-14.75-6.6-14.75-14.75c0-8.14,14.75-35.19,14.75-35.19,0,0,14.75,27.04,14.75,35.19Z"/>
  <path class="cls-1" d="M150.29,110.7c0,8.14-6.6,14.75-14.75,14.75-8.14,0-14.75-6.6-14.75-14.75,0-8.14,14.75-35.19,14.75-35.19,0,0,14.75,27.04,14.75,35.19Z"/>
  <path class="cls-1" d="M254.87,88.06c0,8.14-6.6,14.75-14.75,14.75-8.14,0-14.75-6.6-14.75-14.75,0-8.14,14.75-35.19,14.75-35.19,0,0,14.75,27.04,14.75,35.19Z"/>
  <path class="cls-1" d="M338.05,56.76c0,8.14-6.6,14.75-14.75,14.75-8.14,0-14.75-6.6-14.75-14.75,0-8.14,14.75-35.19,14.75-35.19,0,0,14.75,27.04,14.75,35.19Z"/>
  <path class="cls-1" d="M196.4,45.23c0,8.14-6.6,14.75-14.75,14.75-8.14,0-14.75-6.6-14.75-14.75,0-8.14,14.75-35.19,14.75-35.19,0,0,14.75,27.04,14.75,35.19Z"/>
</svg>