<?xml version="1.0" encoding="UTF-8"?>
<svg id="Layer_1" data-name="Layer 1" xmlns="http://www.w3.org/2000/svg" xmlns:xlink="http://www.w3.org/1999/xlink" viewBox="0 0 496.23 811.41">
  <defs>
    <style>
      .cls-1 {
        fill: url(#linear-gradient-15);
      }

      .cls-2 {
        fill: url(#linear-gradient-13);
      }

      .cls-3 {
        fill: url(#linear-gradient-2);
      }

      .cls-4 {
        fill: url(#linear-gradient-10);
      }

      .cls-5 {
        fill: url(#linear-gradient-12);
      }

      .cls-6 {
        fill: url(#linear-gradient-4);
      }

      .cls-7 {
        fill: #0a5e9c;
      }

      .cls-8 {
        fill: url(#linear-gradient-3);
      }

      .cls-9 {
        fill: url(#linear-gradient-5);
      }

      .cls-10 {
        fill: url(#linear-gradient-8);
      }

      .cls-11 {
        fill: url(#linear-gradient-14);
      }

      .cls-12 {
        fill: url(#linear-gradient-20);
      }

      .cls-13 {
        fill: url(#linear-gradient-17);
      }

      .cls-14 {
        fill: url(#linear-gradient-7);
      }

      .cls-15 {
        fill: url(#linear-gradient-9);
      }

      .cls-16 {
        fill: url(#linear-gradient-11);
      }

      .cls-17 {
        fill: url(#linear-gradient-19);
      }

      .cls-18 {
        fill: url(#linear-gradient-6);
      }

      .cls-19 {
        fill: url(#linear-gradient-21);
      }

      .cls-20 {
        fill: url(#linear-gradient-16);
      }

      .cls-21 {
        fill: url(#linear-gradient);
      }

      .cls-22 {
        fill: #5bbcd8;
      }

      .cls-23 {
        fill: url(#linear-gradient-18);
      }
    </style>
    <linearGradient id="linear-gradient" x1="254.55" y1="796.62" x2="254.55" y2="415.24" gradientUnits="userSpaceOnUse">
      <stop offset="0" stop-color="#f58120"/>
      <stop offset=".07" stop-color="#f5891c"/>
      <stop offset=".52" stop-color="#fbc308"/>
      <stop offset=".74" stop-color="#feda00"/>
    </linearGradient>
    <linearGradient id="linear-gradient-2" x1="354.17" y1="409.64" x2="354.17" y2="569.41" gradientUnits="userSpaceOnUse">
      <stop offset="0" stop-color="#f8961d"/>
      <stop offset="1" stop-color="#cf4327"/>
    </linearGradient>
    <linearGradient id="linear-gradient-3" x1="145.3" y1="423.16" x2="145.3" y2="582.94" xlink:href="#linear-gradient-2"/>
    <linearGradient id="linear-gradient-4" x1="198.29" y1="517.82" x2="198.29" y2="471.7" gradientUnits="userSpaceOnUse">
      <stop offset=".14" stop-color="#f58120"/>
      <stop offset=".21" stop-color="#f5891c"/>
      <stop offset=".7" stop-color="#fbc308"/>
      <stop offset=".93" stop-color="#feda00"/>
    </linearGradient>
    <linearGradient id="linear-gradient-5" x1="316.5" y1="522.33" x2="316.5" y2="476.21" xlink:href="#linear-gradient-4"/>
    <linearGradient id="linear-gradient-6" x1="933.87" y1="-2898.63" x2="933.87" y2="-2974.63" gradientTransform="translate(-6657.43 527.67) rotate(79.93) scale(1 2.38)" xlink:href="#linear-gradient-2"/>
    <linearGradient id="linear-gradient-7" x1="1115.63" y1="-2725.95" x2="1115.63" y2="-2801.95" gradientTransform="translate(-5206.77 -483.68) rotate(86.09) scale(1 2)" xlink:href="#linear-gradient"/>
    <linearGradient id="linear-gradient-8" x1="1255.53" y1="-2442.93" x2="1255.53" y2="-2518.92" gradientTransform="translate(-3419.42 -951.17) rotate(89.84) scale(1 1.52)" gradientUnits="userSpaceOnUse">
      <stop offset="0" stop-color="#feda00"/>
      <stop offset=".34" stop-color="#fdd304"/>
      <stop offset=".81" stop-color="#fdc00f"/>
      <stop offset=".83" stop-color="#fdc010"/>
    </linearGradient>
    <linearGradient id="linear-gradient-9" x1="2375.46" y1="-6052.17" x2="2375.46" y2="-6128.17" gradientTransform="translate(14795.12 569.27) rotate(100.64) scale(1 -2.38)" gradientUnits="userSpaceOnUse">
      <stop offset="0" stop-color="#f8961d"/>
      <stop offset="1" stop-color="#cf4327"/>
    </linearGradient>
    <linearGradient id="linear-gradient-10" x1="1744.41" y1="-6540.36" x2="1744.41" y2="-6616.36" gradientTransform="translate(13354.65 -456.53) rotate(94.49) scale(1 -2)" xlink:href="#linear-gradient"/>
    <linearGradient id="linear-gradient-11" x1="1384.96" y1="-7476.79" x2="1384.96" y2="-7552.79" gradientTransform="translate(11572.06 -941.87) rotate(90.74) scale(1 -1.52)" xlink:href="#linear-gradient-8"/>
    <linearGradient id="linear-gradient-12" x1="255.65" y1="369.25" x2="255.65" y2="189.06" gradientUnits="userSpaceOnUse">
      <stop offset="0" stop-color="#f58120"/>
      <stop offset=".11" stop-color="#f79817"/>
      <stop offset=".27" stop-color="#fab50d"/>
      <stop offset=".43" stop-color="#fcc905"/>
      <stop offset=".58" stop-color="#fdd501"/>
      <stop offset=".74" stop-color="#feda00"/>
    </linearGradient>
    <linearGradient id="linear-gradient-13" x1="3353.22" y1="-4620.92" x2="3353.22" y2="-4666.26" gradientTransform="translate(376.99 -5576.26) rotate(37.42) scale(1 -1)" xlink:href="#linear-gradient-2"/>
    <linearGradient id="linear-gradient-14" x1="2403.17" y1="-3827.61" x2="2403.17" y2="-3872.95" gradientTransform="translate(-3156.71 -2812.35) rotate(-17.16) scale(1 -1)" xlink:href="#linear-gradient-2"/>
    <linearGradient id="linear-gradient-15" x1="3627.04" y1="-3197.55" x2="3627.04" y2="-3242.9" gradientTransform="translate(-4003.43 2329.6) rotate(-68.73) scale(1 -1)" xlink:href="#linear-gradient-2"/>
    <linearGradient id="linear-gradient-16" x1="4727.47" y1="-4646.21" x2="4727.47" y2="-4691.56" gradientTransform="translate(5780.63 -3508.45) rotate(102.56) scale(1 -1)" xlink:href="#linear-gradient-2"/>
    <linearGradient id="linear-gradient-17" x1="5149.12" y1="-3053.9" x2="5149.12" y2="-3099.24" gradientTransform="translate(5936.15 1915.02) rotate(167.33) scale(1 -1)" xlink:href="#linear-gradient-2"/>
    <linearGradient id="linear-gradient-18" x1="3743.37" y1="-1864.55" x2="3743.37" y2="-1909.89" gradientTransform="translate(670.4 4236.45) rotate(-121.83) scale(1 -1)" xlink:href="#linear-gradient-2"/>
    <linearGradient id="linear-gradient-19" x1="975.62" y1="1042.53" x2="975.62" y2="949.75" gradientTransform="translate(-468.66 -1091.33) rotate(13.11)" xlink:href="#linear-gradient-8"/>
    <linearGradient id="linear-gradient-20" x1="257.35" y1="74.46" x2="257.35" y2="127.12" gradientTransform="translate(-2.36 .92)" xlink:href="#linear-gradient-2"/>
    <linearGradient id="linear-gradient-21" x1="257.35" y1="77.12" x2="257.35" y2="124.26" gradientTransform="translate(-2.36 .92)" xlink:href="#linear-gradient-8"/>
  </defs>
  <g>
    <polygon class="cls-21" points="278.78 796.62 301.67 415.24 207.44 421.27 278.78 796.62"/>
    <polygon class="cls-3" points="396.35 569.41 366.4 409.64 311.99 430.46 396.35 569.41"/>
    <polygon class="cls-8" points="103.13 582.94 133.07 423.16 187.48 443.98 103.13 582.94"/>
    <polygon class="cls-6" points="193.39 517.82 185.63 471.7 210.95 474.48 193.39 517.82"/>
    <polygon class="cls-9" points="321.41 522.33 329.16 476.21 303.84 478.99 321.41 522.33"/>
    <path class="cls-18" d="M480.21,253.44l-13.66-9.14c-39.44-26.39-102.75-42.67-179.78-46.23h0s13.74,76.05,13.74,76.05h0c43.35-18.56,98.77-27.66,144.44-23.72l35.26,3.04Z"/>
    <path class="cls-14" d="M451.28,291.77l-10.7-10.68c-30.88-30.85-82.53-54.48-146.65-67.1h0s5.47,77.09,5.47,77.09h0c37.71-13.3,84.77-15.79,122.64-6.49l29.24,7.18Z"/>
    <path class="cls-10" d="M405.95,337.74l-7.59-11.37c-21.92-32.82-59.94-59.81-107.96-76.65h0s.37,77.29.37,77.29h0c29.26-10.78,65.09-10.15,93.36,1.63l21.83,9.1Z"/>
    <path class="cls-15" d="M22.19,255.1l13.75-9c39.7-26,103.17-41.65,180.23-44.43h0s-14.5,75.91-14.5,75.91h0c-43.16-18.99-98.49-28.65-144.19-25.17l-35.29,2.69Z"/>
    <path class="cls-4" d="M50.74,293.71l10.8-10.58c31.19-30.54,83.07-53.65,147.32-65.63h0s-6.24,77.03-6.24,77.03h0c-37.58-13.67-84.61-16.63-122.57-7.71l-29.31,6.89Z"/>
    <path class="cls-16" d="M95.61,340.13l7.7-11.29c22.24-32.6,60.53-59.21,108.73-75.57h0s-1.14,77.28-1.14,77.28h0c-29.15-11.07-64.98-10.8-93.37.7l-21.92,8.88Z"/>
    <path class="cls-5" d="M185.32,259.39c0,38.84,25.72,109.87,74,109.87,45.14,0,66.65-71.02,66.65-109.87s-31.49-70.33-70.33-70.33-70.33,31.49-70.33,70.33Z"/>
    <path class="cls-2" d="M225.77,183.32l-3.59-6.49c-10.37-18.74-14.14-40.41-10.72-61.55h0s36.59,28.06,36.59,28.06h0c-12.07,5.27-20.28,16.72-21.41,29.84l-.87,10.13Z"/>
    <path class="cls-11" d="M307.31,171.43l-7.37-.84c-21.28-2.41-41.13-11.9-56.37-26.94h0s44.08-13.55,44.08-13.55h0c-2.7,12.89,1.87,26.22,11.91,34.74l7.75,6.58Z"/>
    <path class="cls-1" d="M343.98,101.65l-5.23,5.25c-15.12,15.17-34.89,24.82-56.14,27.41h0s16.78-42.95,16.78-42.95h0c8.42,10.12,21.7,14.83,34.62,12.26l9.97-1.98Z"/>
    <path class="cls-20" d="M167.36,111.05l4.38-5.99c12.64-17.28,30.73-29.82,51.34-35.6h0s-10.09,45-10.09,45h0c-9.86-8.73-23.7-11.37-36.08-6.88l-9.56,3.47Z"/>
    <path class="cls-13" d="M207,26.19l7.28,1.41c21.02,4.07,40.07,15.08,54.09,31.27h0s-45,10.06-45,10.06h0c3.7-12.64.19-26.29-9.16-35.57l-7.21-7.17Z"/>
    <path class="cls-23" d="M304.84,26.36l1.06,7.34c3.06,21.19-1.09,42.8-11.78,61.36h0s-24.27-39.21-24.27-39.21h0c13.15-.66,24.89-8.45,30.59-20.32l4.4-9.17Z"/>
    <circle class="cls-17" cx="255.5" cy="100.19" r="46.39"/>
    <ellipse class="cls-12" cx="254.99" cy="101.71" rx="16.96" ry="26.33"/>
    <ellipse class="cls-19" cx="254.99" cy="101.61" rx="5.12" ry="23.57"/>
  </g>
  <g>
    <path class="cls-7" d="M218.97,263.32c.98,1.62.98,3.89,0,5.51-.97.97-2.59,1.3-3.89.97-4.21-1.62-5.51-6.48-4.86-10.69,1.3-8.1,7.45-12.63,13.42-17.2.34-1.1.73-2.17,1.18-3.21,2.66-6.28,7.09-11.62,12.67-15.39.93-.63,1.89-1.21,2.92-1.68,3.49,1.21,3.82,5.1,6.08,7.69,3.24,2.92,7.77,7.13,12.31,5.18-4.86-3.24-9.39-8.42-8.75-14.9.65-4.21,3.24-9.72,7.77-9.07,5.18.97,5.18,7.13,9.07,10.37l3.89,1.94c-3.56.32-8.1-2.92-10.04-.65-3.89,4.53,4.21,8.75,8.75,10.37.65.32,1.3,1.62.97,2.27-5.51,5.83-14.25,4.86-21.14,2.46-1.66-.19-2.56.42-3.43,1.06-1.75,1.28-3.39,2.68-4.91,4.25,1.62-1.49,3.36-2.54,5.18-3.27.91-.37,1.84-.65,2.79-.88,9.2,2.53,19.56,2.21,26.69-4.92.97-.97,1.94.32,2.92,0,2.27-.97,3.24-5.18.65-5.83-5.18-.97-10.69-2.27-15.87-.65-.32,0-.97-1.62-.65-1.62,8.1-1.3,15.22-2.59,23-1.94,2.59,0,3.24,4.53,3.24,7.34.06,1.28.68,2.02,1.38,2.69,6.3,6.09,13.94,14.55,8.98,23-.97,1.94-3.56,2.92-6.25,3-1.39.18-2.15.82-2.52,1.93-.23.86-.48,1.75-.75,2.66s-.57,1.85-1.14,2.61c-3.27,2.76-7.48-.81-10.07-2.1-12.63-6.8-28.51-9.39-39.19,1.3-2.59,2.59-3.56,6.48-1.62,10.04.49.81,1.34,1.33,1.85,1.66.34.39,1.08.11,2.09-1.02.82-1.16,1.07-2.12,1.13-3.03.2-2.75-.29-5.54,1.41-7.97-3.56-.65-5.83,3.24-4.86,6.15,0,.32.97-.32,1.3-.32.49.65.97,1.7,1.05,2.71s-.46,2.1-1.5,2.55c-.84-.08-1.82-.4-2.46-1.38-1.94-4.21.32-8.75,3.89-11.34,4.21-3.24,9.07-4.53,13.93-4.86,11.07-1.08,23.03,5.71,27.47,15.51.44.98.6,1.82.53,2.51-3.37,4.98.84,10.16.19,15.67-.32,1.62-.65,2.92-1.62,3.56-3.04,2.31-5.62,4.84-7.49,7.62-.62.93-1.17,1.88-2.92,2.44-12.92,2.57-12.92,19.41-8.38,28.81,3.56-1.62,1.94-6.15,3.56-9.07,1.3-1.94,4.53-2.92,5.51-.97,3.56,8.75-7.77,15.22-12.31,22.03-.32-3.89,0-8.1-2.59-11.01,2.92,2.59,2.59,7.13,2.59,10.69,5.18-5.18,9.72-10.69,12.96-17.17.97-1.94-.65-4.86-3.24-4.21-.65.32-1.62,1.3-1.3,1.94.32,5.83-2.59,10.69-6.48,14.58-2.27-9.07-7.77-15.87-16.84-19.76-3.24-1.3-4.21-5.18-3.56-8.75,1.3-5.51,6.8-6.8,11.02-9.59,1.2-.67,2.32-1.16,3.2-1.52,1.77-.72,3.75-.96,5.86-.56,1.4.43,2.16,1.32,1.8,2.32-.83,2.21-6.66,4.8-3.75,7.39-.65,0-.97-.32-.97-.97.65-2.92,3.24-4.21,4.59-6.52.2-.66.01-1.3-.55-1.85-1.13-1.09-2.64-1.67-4.69-1.34.97-1.3,2.27,0,3.56-.32-1.3-2.27-4.21-1.62-5.51-3.56,4.21-3.24,7.45,4.53,9.72,4.53,3.56,0,.97-7.13,2.92-10.69,1.62-3.24,6.48-.97,7.45-3.24,1.3-2.27-2.92-5.83-6.48-5.18-4.21.97-11.99,3.24-9.72,8.75,0-4.86,5.18-7.13,8.75-8.42,3.89-1.62,6.8,1.94,7.77,5.51-8.75-1.94-7.77,7.77-10.04,13.6,0,.32-.97-.65-1.62-.97-1.94-1.94-2.92-5.18-6.15-5.83-2.92-.65-4.53,1.94-6.15,3.24-6.15,4.21-14.25,8.75-21.05,5.83-5.51-2.27-4.86-10.69-3.35-16.23.22-.85.37-1.57.54-2.25.51-2.05,1.36-4.12,1.84-5.82,1.62-3.89.97-9.07,3.17-12.89.62-1.21.99-2.1,1.12-2.81.13-.7.21-1.41.25-2.12.32-4.53-3.89-8.75-8.75-8.75-3.89,0-7.77,2.92-7.84,7.51.02.82.17,1.64.38,2.53Z"/>
    <ellipse class="cls-7" cx="254.8" cy="276.46" rx="21.77" ry="18.35"/>
    <path class="cls-22" d="M265.64,266.59c1.56-2.25,4.8-2.5,6.92-.63,2.24,2.12,2.12,5.73-.05,8.03-.81.8-.9,1.02-.98,1.23-.75,2.69-2.31,5.04-4.41,6.77-.33.25-.67.48-1.04-.46-.75-2.36-2.87-4.47-5.49-4.23-1.37.12-2.87.75-3.49,2.12-.25.62-.75,1.5-.12,2.24.62-2.24,3.12-3.86,5.36-2.49,1.87,1.12,2.49,3.49,1.62,5.36-1.12,2.49-4.24,3.61-6.73,2.62-1.37-.5-2.37-1.74-3.26-2.85-.23-.12-.44-.21-.64-.3-4.83-2.04-8.22-6.83-8.22-12.4,0-.31.02-.65.07-1.02s.11-.76.2-1.18c2.26.54,4.88.91,6.63-.96,1-1.12,1.5-2.74.87-4.11-.37-.87-1.25-1.62-2.24-1.37,1.37,1.37,1.37,3.86-.5,4.74-1.74.87-3.86.12-4.86-1.62-2.24-3.61.87-6.98,3.99-8.32.2-.17.34-.33.51-.49,3.89-8.77,8.8-17.78,8.8-17.78,0,0,7.16,13.12,11.03,23.11-.05.11-.02.25-.16.38-3.11.36-6.1,2.73-5.6,6.22.37,2.24,2.87,4.49,5.11,3.12-1.37,0-2.74-.5-3.49-1.74-.5-1-.62-2.12-.24-3.15.11-.3.25-.58.42-.84Z"/>
  </g>
</svg>