<?xml version="1.0" encoding="UTF-8"?>
<svg id="Layer_1" data-name="Layer 1" xmlns="http://www.w3.org/2000/svg" xmlns:xlink="http://www.w3.org/1999/xlink" viewBox="0 0 418.51 841.89">
  <defs>
    <style>
      .cls-1 {
        fill: url(#linear-gradient-15);
      }

      .cls-2 {
        fill: url(#linear-gradient-13);
      }

      .cls-3 {
        fill: url(#linear-gradient-28);
      }

      .cls-4 {
        fill: url(#linear-gradient-2);
      }

      .cls-5 {
        fill: url(#linear-gradient-25);
      }

      .cls-6 {
        fill: url(#linear-gradient-10);
      }

      .cls-7 {
        fill: url(#linear-gradient-12);
      }

      .cls-8 {
        fill: url(#linear-gradient-27);
      }

      .cls-9 {
        fill: url(#linear-gradient-37);
      }

      .cls-10 {
        fill: url(#linear-gradient-39);
      }

      .cls-11 {
        fill: url(#linear-gradient-26);
      }

      .cls-12 {
        fill: url(#linear-gradient-4);
      }

      .cls-13 {
        fill: #0a5e9c;
      }

      .cls-14 {
        fill: url(#linear-gradient-35);
      }

      .cls-15 {
        fill: url(#linear-gradient-30);
      }

      .cls-16 {
        fill: url(#linear-gradient-3);
      }

      .cls-17 {
        fill: url(#linear-gradient-34);
      }

      .cls-18 {
        fill: url(#linear-gradient-5);
      }

      .cls-19 {
        fill: url(#linear-gradient-38);
      }

      .cls-20 {
        fill: url(#linear-gradient-22);
      }

      .cls-21 {
        fill: url(#linear-gradient-24);
      }

      .cls-22 {
        fill: url(#linear-gradient-33);
      }

      .cls-23 {
        fill: url(#linear-gradient-8);
      }

      .cls-24 {
        fill: url(#linear-gradient-14);
      }

      .cls-25 {
        fill: url(#linear-gradient-29);
      }

      .cls-26 {
        fill: url(#linear-gradient-20);
      }

      .cls-27 {
        fill: url(#linear-gradient-17);
      }

      .cls-28 {
        fill: url(#linear-gradient-7);
      }

      .cls-29 {
        fill: url(#linear-gradient-9);
      }

      .cls-30 {
        fill: url(#linear-gradient-11);
      }

      .cls-31 {
        fill: url(#linear-gradient-19);
      }

      .cls-32 {
        fill: url(#linear-gradient-6);
      }

      .cls-33 {
        fill: url(#linear-gradient-36);
      }

      .cls-34 {
        fill: url(#linear-gradient-21);
      }

      .cls-35 {
        fill: url(#linear-gradient-32);
      }

      .cls-36 {
        fill: url(#linear-gradient-16);
      }

      .cls-37 {
        fill: url(#linear-gradient);
      }

      .cls-38 {
        fill: url(#linear-gradient-23);
      }

      .cls-39 {
        fill: url(#linear-gradient-31);
      }

      .cls-40 {
        fill: #5bbcd8;
      }

      .cls-41 {
        fill: url(#linear-gradient-18);
      }
    </style>
    <linearGradient id="linear-gradient" x1="173.67" y1="379.28" x2="312.11" y2="379.28" gradientUnits="userSpaceOnUse">
      <stop offset=".39" stop-color="#a5acb4"/>
      <stop offset=".69" stop-color="#bdc2c8"/>
      <stop offset=".83" stop-color="#cbced3"/>
    </linearGradient>
    <linearGradient id="linear-gradient-2" x1="225.24" y1="796.95" x2="225.24" y2="774.75" gradientUnits="userSpaceOnUse">
      <stop offset="0" stop-color="#444952"/>
      <stop offset=".27" stop-color="#59616a"/>
      <stop offset=".83" stop-color="#8fa0a9"/>
      <stop offset="1" stop-color="#a1b4be"/>
    </linearGradient>
    <linearGradient id="linear-gradient-3" x1="140.5" y1="729.45" x2="140.5" y2="707.25" xlink:href="#linear-gradient-2"/>
    <linearGradient id="linear-gradient-4" x1="73" y1="710.3" x2="73" y2="688.1" xlink:href="#linear-gradient-2"/>
    <linearGradient id="linear-gradient-5" x1="22.74" y1="711.73" x2="22.74" y2="689.53" xlink:href="#linear-gradient-2"/>
    <linearGradient id="linear-gradient-6" x1="50.98" y1="593.01" x2="50.98" y2="570.81" xlink:href="#linear-gradient-2"/>
    <linearGradient id="linear-gradient-7" x1="153.91" y1="579.61" x2="153.91" y2="557.41" xlink:href="#linear-gradient-2"/>
    <linearGradient id="linear-gradient-8" x1="196.51" y1="510.19" x2="196.51" y2="487.99" xlink:href="#linear-gradient-2"/>
    <linearGradient id="linear-gradient-9" x1="288.91" y1="543.22" x2="288.91" y2="521.02" xlink:href="#linear-gradient-2"/>
    <linearGradient id="linear-gradient-10" x1="248.69" y1="632.74" x2="248.69" y2="610.54" xlink:href="#linear-gradient-2"/>
    <linearGradient id="linear-gradient-11" x1="116.93" y1="782.82" x2="116.93" y2="757.99" xlink:href="#linear-gradient-2"/>
    <linearGradient id="linear-gradient-12" x1="295.76" y1="604.74" x2="295.76" y2="566.92" xlink:href="#linear-gradient-2"/>
    <linearGradient id="linear-gradient-13" x1="259.82" y1="769.42" x2="259.82" y2="733.1" xlink:href="#linear-gradient"/>
    <linearGradient id="linear-gradient-14" x1="170.57" y1="786.65" x2="170.57" y2="732.08" xlink:href="#linear-gradient"/>
    <linearGradient id="linear-gradient-15" x1="68.61" y1="767.27" x2="68.61" y2="712.69" xlink:href="#linear-gradient"/>
    <linearGradient id="linear-gradient-16" x1="88.35" y1="686.84" x2="88.35" y2="612.88" xlink:href="#linear-gradient"/>
    <linearGradient id="linear-gradient-17" x1="228.86" y1="598.76" x2="228.86" y2="510.91" xlink:href="#linear-gradient"/>
    <linearGradient id="linear-gradient-18" x1="231.05" y1="246.98" x2="231.05" y2="145.17" xlink:href="#linear-gradient"/>
    <linearGradient id="linear-gradient-19" x1="163.75" y1="653.81" x2="163.75" y2="588.46" xlink:href="#linear-gradient"/>
    <linearGradient id="linear-gradient-20" x1="4328.9" y1="-3250" x2="4328.9" y2="-3285.87" gradientTransform="translate(1092.68 -4587.79) rotate(135.24)" xlink:href="#linear-gradient"/>
    <linearGradient id="linear-gradient-21" x1="173.84" y1="185.19" x2="173.84" y2="29.77" xlink:href="#linear-gradient-2"/>
    <linearGradient id="linear-gradient-22" x1="283.71" y1="183.03" x2="283.71" y2="27.62" xlink:href="#linear-gradient-2"/>
    <linearGradient id="linear-gradient-23" x1="-963.92" y1="-531.37" x2="-963.92" y2="-543.66" gradientTransform="translate(1078.29 819.83)" xlink:href="#linear-gradient-2"/>
    <linearGradient id="linear-gradient-24" x1="3151.49" y1="-4669.15" x2="3151.49" y2="-4681.44" gradientTransform="translate(-3009.04 5036.77)" xlink:href="#linear-gradient-2"/>
    <linearGradient id="linear-gradient-25" x1="1846.46" y1="515.29" x2="1846.46" y2="503" gradientTransform="translate(-1692.04 -223.15)" xlink:href="#linear-gradient-2"/>
    <linearGradient id="linear-gradient-26" x1="-1665.93" y1="-2582.31" x2="-1665.93" y2="-2594.59" gradientTransform="translate(1758.6 2895.03)" xlink:href="#linear-gradient-2"/>
    <linearGradient id="linear-gradient-27" x1="-652.22" y1="-4656.83" x2="-652.22" y2="-4669.12" gradientTransform="translate(747.43 5003.38)" xlink:href="#linear-gradient-2"/>
    <linearGradient id="linear-gradient-28" x1="131.46" y1="358.39" x2="131.46" y2="283.04" xlink:href="#linear-gradient"/>
    <linearGradient id="linear-gradient-29" x1="2717.07" y1="336.11" x2="2717.07" y2="305.32" gradientTransform="translate(2848.52) rotate(-180) scale(1 -1)" xlink:href="#linear-gradient-2"/>
    <linearGradient id="linear-gradient-30" x1="2022.81" y1="944.17" x2="2022.81" y2="931.88" gradientTransform="translate(-1644.21 1212.85) scale(1 -1)" xlink:href="#linear-gradient-2"/>
    <linearGradient id="linear-gradient-31" x1="-77.37" y1="-5489.07" x2="-77.37" y2="-5501.36" gradientTransform="translate(427.89 -5141.24) scale(1 -1)" xlink:href="#linear-gradient-2"/>
    <linearGradient id="linear-gradient-32" x1="4615.62" y1="-1336.61" x2="4615.62" y2="-1348.9" gradientTransform="translate(-4277.08 -1064.26) scale(1 -1)" xlink:href="#linear-gradient-2"/>
    <linearGradient id="linear-gradient-33" x1="-487.14" y1="533.5" x2="-487.14" y2="521.21" gradientTransform="translate(887.44 826.43) scale(1 -1)" xlink:href="#linear-gradient-2"/>
    <linearGradient id="linear-gradient-34" x1="-2096.69" y1="-1654.95" x2="-2096.69" y2="-1667.23" gradientTransform="translate(2494.44 -1328.18) scale(1 -1)" xlink:href="#linear-gradient-2"/>
    <linearGradient id="linear-gradient-35" x1="3462.79" y1="350.89" x2="3462.79" y2="275.54" gradientTransform="translate(3824.29) rotate(-180) scale(1 -1)" xlink:href="#linear-gradient"/>
    <linearGradient id="linear-gradient-36" x1="-614.26" y1="328.61" x2="-614.26" y2="297.82" gradientTransform="translate(975.77)" xlink:href="#linear-gradient-2"/>
    <linearGradient id="linear-gradient-37" x1="2167.04" y1="1414.92" x2="2129.76" y2="1414.92" gradientTransform="translate(1644.19 -1950.6) rotate(90)" xlink:href="#linear-gradient-2"/>
    <linearGradient id="linear-gradient-38" x1="2154.03" y1="1414.81" x2="2142.77" y2="1414.81" gradientTransform="translate(1644.19 -1950.6) rotate(90)" xlink:href="#linear-gradient"/>
    <linearGradient id="linear-gradient-39" x1="3376.13" y1="-517.15" x2="3376.13" y2="-483.38" gradientTransform="translate(3604.66 -302.4) rotate(-180)" xlink:href="#linear-gradient"/>
  </defs>
  <g>
    <path class="cls-37" d="M174.24,352.64c0,52.4,25.21,148.21,72.54,148.21,44.24,0,65.33-95.82,65.33-148.21s-5.74-96.89-68.94-94.88c-80.44,2.56-68.94,42.48-68.94,94.88Z"/>
    <circle class="cls-4" cx="225.24" cy="785.85" r="11.1"/>
    <circle class="cls-16" cx="140.5" cy="718.35" r="11.1"/>
    <circle class="cls-12" cx="73" cy="699.2" r="11.1"/>
    <circle class="cls-18" cx="22.74" cy="700.63" r="11.1"/>
    <circle class="cls-32" cx="50.98" cy="581.91" r="11.1"/>
    <circle class="cls-28" cx="153.91" cy="568.51" r="11.1"/>
    <circle class="cls-23" cx="196.51" cy="499.09" r="11.1"/>
    <circle class="cls-29" cx="288.91" cy="532.12" r="11.1"/>
    <circle class="cls-6" cx="248.69" cy="621.64" r="11.1"/>
    <circle class="cls-30" cx="116.93" cy="770.41" r="12.42"/>
    <circle class="cls-7" cx="295.76" cy="585.83" r="18.91"/>
    <circle class="cls-2" cx="259.82" cy="751.26" r="18.16"/>
    <circle class="cls-24" cx="170.57" cy="759.37" r="27.29"/>
    <circle class="cls-1" cx="68.61" cy="739.98" r="27.29"/>
    <circle class="cls-36" cx="88.35" cy="649.86" r="36.98"/>
    <circle class="cls-27" cx="228.86" cy="554.83" r="43.92"/>
    <circle class="cls-41" cx="231.05" cy="196.07" r="50.9"/>
    <circle class="cls-31" cx="163.75" cy="621.14" r="32.67"/>
    <path class="cls-26" d="M317.76,808.21l2.16-5.45c6.24-15.75,7.01-33.14,2.19-49.38h0s-25.87,25.72-25.87,25.72h0c10,2.92,17.6,11.07,19.81,21.25l1.71,7.86Z"/>
    <path class="cls-34" d="M196.5,182.32c5.97-4.89,6.19-15.37,3.83-22.5-2.28-6.87-6.89-10.42-10.53-13.88-14.4-13.71-19.27-31.47-21.54-39.73-2.03-7.4-8.88-32.37,4.79-48.83,5.5-6.63,15.61-13.41,24.89-11.49,9.55,1.98,14.29,12.38,14.84,11.97.69-.52-5.33-17.78-21.06-24.89-12.78-5.77-27.96-3.03-36.86,2.87-35.55,23.55-20.13,129.79,18.19,146.01,2.35,1,15.84,6.71,23.46.48Z"/>
    <path class="cls-20" d="M261.05,180.17c-5.97-4.89-6.19-15.37-3.83-22.5,2.28-6.87,6.89-10.42,10.53-13.88,14.4-13.71,19.27-31.47,21.54-39.73,2.03-7.4,8.88-32.37-4.79-48.83-5.5-6.63-15.61-13.41-24.89-11.49-9.55,1.98-14.29,12.38-14.84,11.97-.69-.52,5.33-17.78,21.06-24.89,12.78-5.77,27.96-3.03,36.86,2.87,35.55,23.55,20.13,129.79-18.19,146.01-2.35,1-15.84,6.71-23.46.48Z"/>
    <path class="cls-38" d="M109.65,276.18h9.42c2.24,0,4.07,1.82,4.07,4.07v8.22h-17.55v-8.22c0-2.24,1.82-4.07,4.07-4.07Z" transform="translate(-113.67 80.37) rotate(-26.42)"/>
    <path class="cls-21" d="M137.74,355.33h9.42c2.24,0,4.07,1.82,4.07,4.07v8.22h-17.55v-8.22c0-2.24,1.82-4.07,4.07-4.07Z" transform="translate(370.19 676.25) rotate(165.62)"/>
    <path class="cls-5" d="M149.71,279.85h9.42c2.24,0,4.07,1.82,4.07,4.07v8.22h-17.55v-8.22c0-2.24,1.82-4.07,4.07-4.07Z" transform="translate(184.31 -37.65) rotate(33.64)"/>
    <path class="cls-11" d="M87.95,300.43h9.42c2.24,0,4.07,1.82,4.07,4.07v8.22h-17.55v-8.22c0-2.24,1.82-4.07,4.07-4.07Z" transform="translate(-226.92 285.48) rotate(-69.41)"/>
    <path class="cls-8" d="M90.5,334.26h9.42c2.24,0,4.07,1.82,4.07,4.07v8.22h-17.55v-8.22c0-2.24,1.82-4.07,4.07-4.07Z" transform="translate(-169.72 574.4) rotate(-115.83)"/>
    <circle class="cls-3" cx="131.46" cy="320.71" r="37.67"/>
    <circle class="cls-25" cx="131.46" cy="320.71" r="15.4"/>
    <path class="cls-15" d="M369.82,268.68h17.55v8.22c0,2.24-1.82,4.07-4.07,4.07h-9.42c-2.24,0-4.07-1.82-4.07-4.07v-8.22h0Z" transform="translate(595.37 689.4) rotate(-153.58)"/>
    <path class="cls-39" d="M341.74,347.83h17.55v8.22c0,2.24-1.82,4.07-4.07,4.07h-9.42c-2.24,0-4.07-1.82-4.07-4.07v-8.22h0Z" transform="translate(98.87 -75.95) rotate(14.38)"/>
    <path class="cls-35" d="M329.77,272.35h17.55v8.22c0,2.24-1.82,4.07-4.07,4.07h-9.42c-2.24,0-4.07-1.82-4.07-4.07v-8.22h0Z" transform="translate(774.68 322.77) rotate(146.36)"/>
    <path class="cls-22" d="M391.52,292.93h17.55v8.22c0,2.24-1.82,4.07-4.07,4.07h-9.42c-2.24,0-4.07-1.82-4.07-4.07v-8.22h0Z" transform="translate(261.14 779) rotate(-110.59)"/>
    <path class="cls-17" d="M388.97,326.76h17.55v8.22c0,2.24-1.82,4.07-4.07,4.07h-9.42c-2.24,0-4.07-1.82-4.07-4.07v-8.22h0Z" transform="translate(-75.18 545.91) rotate(-64.17)"/>
    <circle class="cls-14" cx="361.5" cy="313.22" r="37.67"/>
    <path class="cls-33" d="M346.1,313.22c0,8.5,6.89,15.4,15.4,15.4,8.5,0,15.4-6.89,15.4-15.4s-6.89-15.4-15.4-15.4c-8.5,0-15.4,6.89-15.4,15.4Z"/>
    <ellipse class="cls-9" cx="229.27" cy="197.8" rx="28.94" ry="18.64"/>
    <ellipse class="cls-19" cx="229.38" cy="197.8" rx="25.91" ry="5.63"/>
    <ellipse class="cls-10" cx="228.54" cy="197.86" rx="3.67" ry="16.88"/>
  </g>
  <g>
    <path class="cls-13" d="M202.42,335.82c.98,1.62.98,3.89,0,5.51-.97.97-2.59,1.3-3.89.97-4.21-1.62-5.51-6.48-4.86-10.69,1.3-8.1,7.45-12.63,13.42-17.2.34-1.1.73-2.17,1.18-3.21,2.66-6.28,7.09-11.62,12.67-15.39.93-.63,1.89-1.21,2.92-1.68,3.49,1.21,3.82,5.1,6.08,7.69,3.24,2.92,7.77,7.13,12.31,5.18-4.86-3.24-9.39-8.42-8.75-14.9.65-4.21,3.24-9.72,7.77-9.07,5.18.97,5.18,7.13,9.07,10.37l3.89,1.94c-3.56.32-8.1-2.92-10.04-.65-3.89,4.53,4.21,8.75,8.75,10.37.65.32,1.3,1.62.97,2.27-5.51,5.83-14.25,4.86-21.14,2.46-1.66-.19-2.56.42-3.43,1.06-1.75,1.28-3.39,2.68-4.91,4.25,1.62-1.49,3.36-2.54,5.18-3.27.91-.37,1.84-.65,2.79-.88,9.2,2.53,19.56,2.21,26.69-4.92.97-.97,1.94.32,2.92,0,2.27-.97,3.24-5.18.65-5.83-5.18-.97-10.69-2.27-15.87-.65-.32,0-.97-1.62-.65-1.62,8.1-1.3,15.22-2.59,23-1.94,2.59,0,3.24,4.53,3.24,7.34.06,1.28.68,2.02,1.38,2.69,6.3,6.09,13.94,14.55,8.98,23-.97,1.94-3.56,2.92-6.25,3-1.39.18-2.15.82-2.52,1.93-.23.86-.48,1.75-.75,2.66s-.57,1.85-1.14,2.61c-3.27,2.76-7.48-.81-10.07-2.1-12.63-6.8-28.51-9.39-39.19,1.3-2.59,2.59-3.56,6.48-1.62,10.04.49.81,1.34,1.33,1.85,1.66.34.39,1.08.11,2.09-1.02.82-1.16,1.07-2.12,1.13-3.03.2-2.75-.29-5.54,1.41-7.97-3.56-.65-5.83,3.24-4.86,6.15,0,.32.97-.32,1.3-.32.49.65.97,1.7,1.05,2.71s-.46,2.1-1.5,2.55c-.84-.08-1.82-.4-2.46-1.38-1.94-4.21.32-8.75,3.89-11.34,4.21-3.24,9.07-4.53,13.93-4.86,11.07-1.08,23.03,5.71,27.47,15.51.44.98.6,1.82.53,2.51-3.37,4.98.84,10.16.19,15.67-.32,1.62-.65,2.92-1.62,3.56-3.04,2.31-5.62,4.84-7.49,7.62-.62.93-1.17,1.88-2.92,2.44-12.92,2.57-12.92,19.41-8.38,28.81,3.56-1.62,1.94-6.15,3.56-9.07,1.3-1.94,4.53-2.92,5.51-.97,3.56,8.75-7.77,15.22-12.31,22.03-.32-3.89,0-8.1-2.59-11.01,2.92,2.59,2.59,7.13,2.59,10.69,5.18-5.18,9.72-10.69,12.96-17.17.97-1.94-.65-4.86-3.24-4.21-.65.32-1.62,1.3-1.3,1.94.32,5.83-2.59,10.69-6.48,14.58-2.27-9.07-7.77-15.87-16.84-19.76-3.24-1.3-4.21-5.18-3.56-8.75,1.3-5.51,6.8-6.8,11.02-9.59,1.2-.67,2.32-1.16,3.2-1.52,1.77-.72,3.75-.96,5.86-.56,1.4.43,2.16,1.32,1.8,2.32-.83,2.21-6.66,4.8-3.75,7.39-.65,0-.97-.32-.97-.97.65-2.92,3.24-4.21,4.59-6.52.2-.66.01-1.3-.55-1.85-1.13-1.09-2.64-1.67-4.69-1.34.97-1.3,2.27,0,3.56-.32-1.3-2.27-4.21-1.62-5.51-3.56,4.21-3.24,7.45,4.53,9.72,4.53,3.56,0,.97-7.13,2.92-10.69,1.62-3.24,6.48-.97,7.45-3.24,1.3-2.27-2.92-5.83-6.48-5.18-4.21.97-11.99,3.24-9.72,8.75,0-4.86,5.18-7.13,8.75-8.42,3.89-1.62,6.8,1.94,7.77,5.51-8.75-1.94-7.77,7.77-10.04,13.6,0,.32-.97-.65-1.62-.97-1.94-1.94-2.92-5.18-6.15-5.83-2.92-.65-4.53,1.94-6.15,3.24-6.15,4.21-14.25,8.75-21.05,5.83-5.51-2.27-4.86-10.69-3.35-16.23.22-.85.37-1.57.54-2.25.51-2.05,1.36-4.12,1.84-5.82,1.62-3.89.97-9.07,3.17-12.89.62-1.21.99-2.1,1.12-2.81.13-.7.21-1.41.25-2.12.32-4.53-3.89-8.75-8.75-8.75-3.89,0-7.77,2.92-7.84,7.51.02.82.17,1.64.38,2.53Z"/>
    <ellipse class="cls-13" cx="238.26" cy="348.95" rx="21.77" ry="18.35"/>
    <path class="cls-40" d="M249.09,339.08c1.56-2.25,4.8-2.5,6.92-.63,2.24,2.12,2.12,5.73-.05,8.03-.81.8-.9,1.02-.98,1.23-.75,2.69-2.31,5.04-4.41,6.77-.33.25-.67.48-1.04-.46-.75-2.36-2.87-4.47-5.49-4.23-1.37.12-2.87.75-3.49,2.12-.25.62-.75,1.5-.12,2.24.62-2.24,3.12-3.86,5.36-2.49,1.87,1.12,2.49,3.49,1.62,5.36-1.12,2.49-4.24,3.61-6.73,2.62-1.37-.5-2.37-1.74-3.26-2.85-.23-.12-.44-.21-.64-.3-4.83-2.04-8.22-6.83-8.22-12.4,0-.31.02-.65.07-1.02s.11-.76.2-1.18c2.26.54,4.88.91,6.63-.96,1-1.12,1.5-2.74.87-4.11-.37-.87-1.25-1.62-2.24-1.37,1.37,1.37,1.37,3.86-.5,4.74-1.74.87-3.86.12-4.86-1.62-2.24-3.61.87-6.98,3.99-8.32.2-.17.34-.33.51-.49,3.89-8.77,8.8-17.78,8.8-17.78,0,0,7.16,13.12,11.03,23.11-.05.11-.02.25-.16.38-3.11.36-6.1,2.73-5.6,6.22.37,2.24,2.87,4.49,5.11,3.12-1.37,0-2.74-.5-3.49-1.74-.5-1-.62-2.12-.24-3.15.11-.3.25-.58.42-.84Z"/>
  </g>
</svg>