<?xml version="1.0" encoding="UTF-8"?>
<svg id="Layer_1" data-name="Layer 1" xmlns="http://www.w3.org/2000/svg" xmlns:xlink="http://www.w3.org/1999/xlink" viewBox="0 0 394.13 802.27">
  <defs>
    <style>
      .cls-1 {
        fill: url(#linear-gradient-2);
      }

      .cls-2 {
        fill: url(#linear-gradient-10);
      }

      .cls-3 {
        fill: url(#linear-gradient-12);
      }

      .cls-4 {
        fill: url(#linear-gradient-4);
      }

      .cls-5 {
        fill: #0a5e9c;
      }

      .cls-6 {
        fill: #76cbf2;
      }

      .cls-7 {
        fill: url(#linear-gradient-3);
      }

      .cls-8 {
        fill: url(#linear-gradient-5);
      }

      .cls-9 {
        fill: url(#linear-gradient-8);
      }

      .cls-10 {
        fill: url(#linear-gradient-7);
      }

      .cls-11 {
        fill: url(#linear-gradient-9);
      }

      .cls-12 {
        fill: url(#linear-gradient-11);
      }

      .cls-13 {
        fill: url(#linear-gradient-6);
      }

      .cls-14 {
        fill: url(#linear-gradient);
      }

      .cls-15 {
        fill: #5bbcd8;
      }
    </style>
    <linearGradient id="linear-gradient" x1="202.19" y1="38.57" x2="202.19" y2="188.05" gradientTransform="translate(304.15 -94.84) rotate(86.83)" gradientUnits="userSpaceOnUse">
      <stop offset=".35" stop-color="#76cbf2"/>
      <stop offset="1" stop-color="#3586c7"/>
    </linearGradient>
    <linearGradient id="linear-gradient-2" x1="208.83" y1="202.55" x2="208.83" y2="394.04" gradientUnits="userSpaceOnUse">
      <stop offset=".35" stop-color="#76cbf2"/>
      <stop offset="1" stop-color="#3586c7"/>
    </linearGradient>
    <linearGradient id="linear-gradient-3" x1="210.99" y1="530.32" x2="210.99" y2="789.12" xlink:href="#linear-gradient-2"/>
    <linearGradient id="linear-gradient-4" x1="208.83" y1="416.87" x2="208.83" y2="454.43" xlink:href="#linear-gradient-2"/>
    <linearGradient id="linear-gradient-5" x1="208.83" y1="469.08" x2="208.83" y2="516.4" xlink:href="#linear-gradient-2"/>
    <linearGradient id="linear-gradient-6" x1="311.1" y1="188.24" x2="311.1" y2="18.02" gradientUnits="userSpaceOnUse">
      <stop offset=".35" stop-color="#0a5e9c"/>
      <stop offset=".91" stop-color="#3586c7"/>
    </linearGradient>
    <linearGradient id="linear-gradient-7" x1="84.65" y1="201.07" x2="84.65" y2="30.85" xlink:href="#linear-gradient-6"/>
    <linearGradient id="linear-gradient-8" x1="302.53" y1="424.18" x2="302.53" y2="241.44" xlink:href="#linear-gradient-6"/>
    <linearGradient id="linear-gradient-9" x1="112.7" y1="412.28" x2="112.7" y2="229.54" xlink:href="#linear-gradient-6"/>
    <linearGradient id="linear-gradient-10" x1="258.96" y1="770.71" x2="258.96" y2="547.05" xlink:href="#linear-gradient-6"/>
    <linearGradient id="linear-gradient-11" x1="162.28" y1="770.53" x2="162.28" y2="546.87" gradientTransform="translate(324.56 1317.39) rotate(180)" xlink:href="#linear-gradient-6"/>
    <linearGradient id="linear-gradient-12" x1="204.71" y1="120.27" x2="204.71" y2="103.21" gradientUnits="userSpaceOnUse">
      <stop offset="0" stop-color="#76cbf2"/>
      <stop offset="1" stop-color="#5bbcd8"/>
    </linearGradient>
  </defs>
  <g>
    <g>
      <circle class="cls-14" cx="202.19" cy="113.31" r="74.74" transform="translate(77.87 308.92) rotate(-86.83)"/>
      <path class="cls-1" d="M134.09,277.29c0,41.28,27.33,116.76,78.64,116.76,47.97,0,70.83-75.48,70.83-116.76s-33.46-74.74-74.74-74.74-74.74,33.46-74.74,74.74Z"/>
      <rect class="cls-7" x="184.78" y="530.32" width="52.43" height="258.8" rx="26.21" ry="26.21"/>
      <ellipse class="cls-4" cx="208.83" cy="435.65" rx="43.63" ry="18.78"/>
      <circle class="cls-8" cx="208.83" cy="492.74" r="23.66"/>
    </g>
    <path class="cls-6" d="M319.5,297.3h18.03c10.16,0,18.41,8.25,18.41,18.41v34.32c0,10.16-8.25,18.41-18.41,18.41h-18.03v-71.14h0Z" transform="translate(28.34 -26.49) rotate(4.69)"/>
    <path class="cls-6" d="M59.28,285.41h18.03c10.16,0,18.41,8.25,18.41,18.41v34.32c0,10.16-8.25,18.41-18.41,18.41h-18.03v-71.14h0Z" transform="translate(180.98 634.55) rotate(175.31)"/>
    <g>
      <path class="cls-13" d="M274.7,129.86c1.6-.15,1.08,8.49,7.81,15.62,8.11,8.58,24.27,12.35,36.25,6.14,16.74-8.69,19.7-33.97,11.16-49.08-9.51-16.81-32.84-20.31-46.85-18.41-10.95,1.49-14.42,6.04-21.75,3.9-12.1-3.52-21.54-21.39-18.96-34.58,4.68-23.96,51.41-44.54,88.12-31.23,33.9,12.29,48.06,49.39,49.64,75.85,1.8,30.32-11.71,67.05-41.83,81.99-14.06,6.97-43.44,15.01-59.12-1.67-15.89-16.89-7.47-48.24-4.46-48.52Z"/>
      <path class="cls-10" d="M121.05,142.68c-1.6-.15-1.08,8.49-7.81,15.62-8.11,8.58-24.27,12.35-36.25,6.14-16.74-8.69-19.7-33.97-11.16-49.08,9.51-16.81,32.84-20.31,46.85-18.41,10.95,1.49,14.42,6.04,21.75,3.9,12.1-3.52,21.54-21.39,18.96-34.58-4.68-23.96-51.41-44.54-88.12-31.23C31.37,47.32,17.21,84.43,15.63,110.89c-1.8,30.32,11.71,67.05,41.83,81.99,14.06,6.97,43.44,15.01,59.12-1.67,15.89-16.89,7.47-48.24,4.46-48.52Z"/>
      <path class="cls-9" d="M283.01,422.21l20.18,1.94c2.31.22,4.49-1.12,5.34-3.28h0c22.05-56.4,27.6-117.9,16-177.33h0s-21.23-2.04-21.23-2.04c-7.02-.68-13.06,4.92-12.92,11.98l.79,39.04c.5,24.94-1.84,49.87-7,74.28l-9.34,44.27c-1.14,5.42,2.68,10.62,8.19,11.15Z"/>
      <path class="cls-11" d="M132.21,410.31l-20.18,1.94c-2.31.22-4.49-1.12-5.34-3.28h0c-22.05-56.4-27.6-117.9-16-177.33h0s21.23-2.04,21.23-2.04c7.02-.68,13.06,4.92,12.92,11.98l-.79,39.04c-.5,24.94,1.84,49.87,7,74.28l9.34,44.27c1.14,5.42-2.68,10.62-8.19,11.15Z"/>
      <path class="cls-2" d="M232.74,547.05h0c28.94,0,52.43,23.49,52.43,52.43v118.8c0,28.94-23.49,52.43-52.43,52.43h0v-223.66h0Z"/>
      <path class="cls-12" d="M136.07,546.87h0c28.94,0,52.43,23.49,52.43,52.43v118.8c0,28.94-23.49,52.43-52.43,52.43h0v-223.66h0Z" transform="translate(324.56 1317.39) rotate(-180)"/>
    </g>
    <ellipse class="cls-5" cx="203.47" cy="113.14" rx="50.76" ry="31.79"/>
    <ellipse class="cls-3" cx="204.71" cy="111.74" rx="35.76" ry="8.53"/>
  </g>
  <g>
    <path class="cls-5" d="M170.56,274.47c.98,1.62.98,3.89,0,5.51-.97.97-2.59,1.3-3.89.97-4.21-1.62-5.51-6.48-4.86-10.69,1.3-8.1,7.45-12.63,13.42-17.2.34-1.1.73-2.17,1.18-3.21,2.66-6.28,7.09-11.62,12.67-15.39.93-.63,1.89-1.21,2.92-1.68,3.49,1.21,3.82,5.1,6.08,7.69,3.24,2.92,7.77,7.13,12.31,5.18-4.86-3.24-9.39-8.42-8.75-14.9.65-4.21,3.24-9.72,7.77-9.07,5.18.97,5.18,7.13,9.07,10.37l3.89,1.94c-3.56.32-8.1-2.92-10.04-.65-3.89,4.53,4.21,8.75,8.75,10.37.65.32,1.3,1.62.97,2.27-5.51,5.83-14.25,4.86-21.14,2.46-1.66-.19-2.56.42-3.43,1.06-1.75,1.28-3.39,2.68-4.91,4.25,1.62-1.49,3.36-2.54,5.18-3.27.91-.37,1.84-.65,2.79-.88,9.2,2.53,19.56,2.21,26.69-4.92.97-.97,1.94.32,2.92,0,2.27-.97,3.24-5.18.65-5.83-5.18-.97-10.69-2.27-15.87-.65-.32,0-.97-1.62-.65-1.62,8.1-1.3,15.22-2.59,23-1.94,2.59,0,3.24,4.53,3.24,7.34.06,1.28.68,2.02,1.38,2.69,6.3,6.09,13.94,14.55,8.98,23-.97,1.94-3.56,2.92-6.25,3-1.39.18-2.15.82-2.52,1.93-.23.86-.48,1.75-.75,2.66s-.57,1.85-1.14,2.61c-3.27,2.76-7.48-.81-10.07-2.1-12.63-6.8-28.51-9.39-39.19,1.3-2.59,2.59-3.56,6.48-1.62,10.04.49.81,1.34,1.33,1.85,1.66.34.39,1.08.11,2.09-1.02.82-1.16,1.07-2.12,1.13-3.03.2-2.75-.29-5.54,1.41-7.97-3.56-.65-5.83,3.24-4.86,6.15,0,.32.97-.32,1.3-.32.49.65.97,1.7,1.05,2.71s-.46,2.1-1.5,2.55c-.84-.08-1.82-.4-2.46-1.38-1.94-4.21.32-8.75,3.89-11.34,4.21-3.24,9.07-4.53,13.93-4.86,11.07-1.08,23.03,5.71,27.47,15.51.44.98.6,1.82.53,2.51-3.37,4.98.84,10.16.19,15.67-.32,1.62-.65,2.92-1.62,3.56-3.04,2.31-5.62,4.84-7.49,7.62-.62.93-1.17,1.88-2.92,2.44-12.92,2.57-12.92,19.41-8.38,28.81,3.56-1.62,1.94-6.15,3.56-9.07,1.3-1.94,4.53-2.92,5.51-.97,3.56,8.75-7.77,15.22-12.31,22.03-.32-3.89,0-8.1-2.59-11.01,2.92,2.59,2.59,7.13,2.59,10.69,5.18-5.18,9.72-10.69,12.96-17.17.97-1.94-.65-4.86-3.24-4.21-.65.32-1.62,1.3-1.3,1.94.32,5.83-2.59,10.69-6.48,14.58-2.27-9.07-7.77-15.87-16.84-19.76-3.24-1.3-4.21-5.18-3.56-8.75,1.3-5.51,6.8-6.8,11.02-9.59,1.2-.67,2.32-1.16,3.2-1.52,1.77-.72,3.75-.96,5.86-.56,1.4.43,2.16,1.32,1.8,2.32-.83,2.21-6.66,4.8-3.75,7.39-.65,0-.97-.32-.97-.97.65-2.92,3.24-4.21,4.59-6.52.2-.66.01-1.3-.55-1.85-1.13-1.09-2.64-1.67-4.69-1.34.97-1.3,2.27,0,3.56-.32-1.3-2.27-4.21-1.62-5.51-3.56,4.21-3.24,7.45,4.53,9.72,4.53,3.56,0,.97-7.13,2.92-10.69,1.62-3.24,6.48-.97,7.45-3.24,1.3-2.27-2.92-5.83-6.48-5.18-4.21.97-11.99,3.24-9.72,8.75,0-4.86,5.18-7.13,8.75-8.42,3.89-1.62,6.8,1.94,7.77,5.51-8.75-1.94-7.77,7.77-10.04,13.6,0,.32-.97-.65-1.62-.97-1.94-1.94-2.92-5.18-6.15-5.83-2.92-.65-4.53,1.94-6.15,3.24-6.15,4.21-14.25,8.75-21.05,5.83-5.51-2.27-4.86-10.69-3.35-16.23.22-.85.37-1.57.54-2.25.51-2.05,1.36-4.12,1.84-5.82,1.62-3.89.97-9.07,3.17-12.89.62-1.21.99-2.1,1.12-2.81.13-.7.21-1.41.25-2.12.32-4.53-3.89-8.75-8.75-8.75-3.89,0-7.77,2.92-7.84,7.51.02.82.17,1.64.38,2.53Z"/>
    <ellipse class="cls-5" cx="206.4" cy="287.61" rx="21.77" ry="18.35"/>
    <path class="cls-15" d="M217.24,277.74c1.56-2.25,4.8-2.5,6.92-.63,2.24,2.12,2.12,5.73-.05,8.03-.81.8-.9,1.02-.98,1.23-.75,2.69-2.31,5.04-4.41,6.77-.33.25-.67.48-1.04-.46-.75-2.36-2.87-4.47-5.49-4.23-1.37.12-2.87.75-3.49,2.12-.25.62-.75,1.5-.12,2.24.62-2.24,3.12-3.86,5.36-2.49,1.87,1.12,2.49,3.49,1.62,5.36-1.12,2.49-4.24,3.61-6.73,2.62-1.37-.5-2.37-1.74-3.26-2.85-.23-.12-.44-.21-.64-.3-4.83-2.04-8.22-6.83-8.22-12.4,0-.31.02-.65.07-1.02s.11-.76.2-1.18c2.26.54,4.88.91,6.63-.96,1-1.12,1.5-2.74.87-4.11-.37-.87-1.25-1.62-2.24-1.37,1.37,1.37,1.37,3.86-.5,4.74-1.74.87-3.86.12-4.86-1.62-2.24-3.61.87-6.98,3.99-8.32.2-.17.34-.33.51-.49,3.89-8.77,8.8-17.78,8.8-17.78,0,0,7.16,13.12,11.03,23.11-.05.11-.02.25-.16.38-3.11.36-6.1,2.73-5.6,6.22.37,2.24,2.87,4.49,5.11,3.12-1.37,0-2.74-.5-3.49-1.74-.5-1-.62-2.12-.24-3.15.11-.3.25-.58.42-.84Z"/>
  </g>
</svg>