<?xml version="1.0" encoding="UTF-8"?>
<svg id="Layer_1" data-name="Layer 1" xmlns="http://www.w3.org/2000/svg" xmlns:xlink="http://www.w3.org/1999/xlink" viewBox="0 0 595.28 431.99">
  <defs>
    <style>
      .cls-1 {
        fill: url(#linear-gradient);
      }

      .cls-2 {
        fill: #ffcd33;
      }
    </style>
    <linearGradient id="linear-gradient" x1="8658.47" y1="-16171.05" x2="8658.47" y2="-16597.97" gradientTransform="translate(-11737.59 -13839.75) rotate(-12.67) scale(1 -1)" gradientUnits="userSpaceOnUse">
      <stop offset=".31" stop-color="#cf4327"/>
      <stop offset=".38" stop-color="#d75325"/>
      <stop offset=".54" stop-color="#e57021"/>
      <stop offset=".7" stop-color="#ef851f"/>
      <stop offset=".85" stop-color="#f5911d"/>
      <stop offset="1" stop-color="#f8961d"/>
    </linearGradient>
  </defs>
  <path class="cls-1" d="M571.29,397.2c0-16.1-15.81-9.57-31.62-6.12-15.81,39.2-31.62-28-31.62-6.12-6.22-24.29-12.43,2.83-18.61-3.83-6.18-22.17-12.35,51.46-18.49-4.24-6.14,48.44-12.26,10.36-18.35-4.65-6.1,7.61-12.17,19.71-18.22-5.06-6.05.39-12.07-15.41-18.07-5.24-3-12.33-5.99,4.43-8.98,15.13-2.99,10.7-5.97,15.34-8.94-21.24-2.97-29.4-5.94-35.03-8.9-28.22-2.96,6.95-5.91,21.8-8.86,19.18-5.89-5.93-11.76,24.47-17.6-3.9-3.89-27.06-7.77,34.34-11.64,15.03-3.87,50.58-7.72,11.48-11.56-23.94-3.84,41.32-7.67-3.84-11.48,16.08-3.81,10.68-7.61-29.24-11.4-26.85-3.79-6.05-7.56-34.7-11.32-32.52-3.76-2.56-7.5,1.14-11.23,19.25-1.86-20.12-3.73-28.44-5.58-30.17-1.86,2.47-3.71,3.11-5.56,9.32-3.7,12.41-7.39,30.25-11.06,11.73-3.67,4.74-7.33-9.81-10.97-20.15-1.82-3.09-3.64-11.66-5.45-14.53-1.81,5.41-3.62,4.1-5.43,19.66-1.8-12.14-3.61-13.38-5.4-20.98-1.8,5.5-3.59-27.56-5.38-3.13-3.58,13.94-7.14,9.19-10.68,14.1-7.09-10.39-14.11-3.46-21.07-11.86-6.96-37.3-13.85-1.26-20.66-15.75-3.41,20.89-6.8-23.73-10.17-8.58-3.37.87-6.73-25.57-10.07-10.91-6.68,16.09-13.28-17.94-19.8-10.63-6.53,4.98-12.98-31.39-19.35-15.98-6.37,2.98-12.67-9.1-18.89-16.58-8.29-33.85-16.43-.58-24.43-23.02-8,4.3-15.84-17.41-23.54-24.05-7.69-.78-15.23-21.34-22.61-25.06h0s6.11-1.36,16.79-3.75c10.69-.62,25.95-4.13,44.27-9.89,9.16-2.72,19.08-22.14,29.58-8.22,10.5,29.44,21.56-14.29,33.01-5.77,5.73-6.95,11.55-13.03,17.44,1.96,2.95-10.54,5.91-8.5,8.89-4.22,2.98-4.5,5.97,1.77,8.98,9.14,3.01,1.42,6.02,14.28,9.05-5.31,3.03-8.17,6.06-1.41,9.1,4.41,3.04,36.5,6.09-16.23,9.14-14.24,3.05-2.39,6.1-12.89,9.16-7.76,6.11,42.15,12.21-15.17,18.3-10.86,6.08-12.11,12.14-16.21,18.15-3.83,6.01-17.64,11.98-34.65,17.87-7.43,5.89,11.22,11.71-2.06,17.44,6.09,5.73-23.5,11.35-6.35,16.87-6.54,5.51-18.87,10.9,5.21,16.15-.84,5.25-20.86,10.35-14.84,15.29-14.96,4.94-5.02,9.71-6.83,14.29,8.35,9.16,10.05,17.56,8.1,25,3.9,7.44-18.17,13.93-24.42,19.27-13.79,5.34-1.12,9.54-9.3,12.4,14.58,2.86,25.02,4.39-12.62,4.39-18.33,0-18.91,0,15.18,0,0-1.15-7.76-2.21-12.09-3.2-9.36-.99,2.73-1.9,20.02-2.73,33-1.66,4.91-3-4.99-4.04,23.8-1.03,17.24-1.76,3.8-2.17,23.87-.42-10.93-.53,28.02-.33,23.83.02,6.24.05,23.99.09,16.34.03-4.55.07-6.8.11-20.64.04-29.09.09-10.27.14-6.15.03,15.72.05,19.62.08,27.13.03-3.96.06,15.73.09,6.11.06,5.23.13,34.52.2,17.27.07,11.67.15,28.71.23,10.57.08-35.45.17-17.71.25-23.67.09,9.03.18-4.55.28,14.07.2,42.25.41,30.01.65,16.99.24-22.41.49-12.38.76-11.82.54-22.43,1.16,4.47,1.85.93.35-29.01.71-6.56,1.09-3.67.19,4.72.39,1.98.59,14.48.2,22.38.41,29.71.61,14.16.42-18.38.86-33.43,1.31-5.69.45-1.93.93,15.24,1.42,16.31.49,6.45,1-13.28,1.53,23.59.53,17.9,1.07,3.3,1.64.53.56,8.92,1.14,4.08,1.74,12.33.6-.09,1.22-17.23,1.85-26.27.63,20.23,1.29,15.16,1.96-.02.67,8.22,1.36-12.03,2.06,23.41,1.41,20.66,2.89-13.56,4.44-2.99,1.55,11.26,3.17-.09,4.86,16.09,1.69,20.85,3.45,21.04,5.28,7.08.91,16.49,1.85,46.89,2.8,25.68.95-.59,1.92,10.26,2.9,3.11,1.97,6.51,4-17.7,6.1-9.03,2.1,29.75,4.27,14.52,6.51.27,2.24-28.77,4.54-31.42,6.92,20.53,2.37,8.47,4.81,24.08,7.32,18.31,2.5,5.48,5.08-10.03,7.71.59,2.64-16.09,5.34,17.33,8.11,6.24,2.77-17.2,5.6,8.97,8.5,11.6,0,20.99,1.74,34.81,4.64,38.48,2.9,3.68,6.96-2.79,11.6-22.34,9.28,33.78,20.88,18.44,30.16,29.97,9.28,8.83,16.24,39.88,16.24,16.14Z"/>
  <path class="cls-2" d="M229.33,249.8c8.91-9.52,20.78-21.24,6.33-8.65,8.71-8.31,17.37-15.69,17.71-16.1,3.67-3.32-.7.06-11.38,7.44,5.64-4.09,13.99-10.68,19.56-14.83,5.65-4.24,8.63-6.15,2.89-.22,7.93-7.77,29.98-27.56,11.83-14.64,17.99-14.95-3.69-1.26-14.74,5.88,11.06-7.14,43.86-31.53,21.83-13.09,23.96-19.06,17.47-8.35-2.7,13.41,20.8-22.19,26.28-42.34,9.06-26.46,17.15-16.58,16.7-13.46-6.26,4.78,22.95-18.26,22.16-23.49,8.39-8.57,14.06-14.64,21.38-5.22,5.66,20.51,15.76-25.72,10.83-33.1.86-16.83,10.08-16.32,14.71-11.81,11.55,10.36,3.17-22.18-4.71-30.3-12.5-17.53,7.72-13.01,7.1-13.93,10.13-6.69-3.02-7.24-2.27-6.21-8.46,6.45,6.32-12.48,13.63-5.11,19.76,12.43-6.12-17.55-10.18-21.48-13.15-6.81,3.01-14.69,7.03-10.88,20.8.21-13.77-11.1-18.77-16.05-13.69-6.96-5.04-9.16-.02-5.59,20.75-21.3-20.77,15.71-25.39,12.54-17.98,20.2-7.42-7.61-2.06-2.56,18.24-.52-20.3-2.04-23.44-4.82-12.5,3.27-10.89-8.11-3.31-2.59,24.1-11.7-27.25,8.92-26.89,8.13-.55-6.22-25.44,13.42,1.43-1.73,16.39-18.08-15.53,17.77-28.19,28.42-3.42,11.58-24.18,17.64-13.8,12.52,7.14-2.09-17.06,12.15,6.81-4.76,12.56-9.32,4.52-3.6,9.1-7.33,12.87-10.13q-7.37,9.02,0,0c-3.69,4.51-12.19,14.15-11.12,16.24-5.06,6-1.03,5.41,8.08-2.71-3.27,3.75-17.47,13.33-9.79,11.57-12.77,8-33.48,17.01-8.61,11.17-27.2,8.86-40.23,10.75-9.63,9.94-31.37,1.74-29.22,2.62,2.71,4.97-31.74-1.95-30.1-1.57,1.41.94-29.49-2.96-2.91-2.71,16.67-6.33-19.58,3.62-51.43,2.71-22.24,9.34-31.21-5.72-31.78-5.3-3.15,8.59-29.1-13.38-34.06-16.74-16.13,3.75-17.99-20.29-11.08-13.49,12.2,9.59-22.9-22.58-21.46-21.23.73,1.41-19.39-21.51,5.83-1.75,19.96,5.82-14.13-7.57-38.01-26.02-19.66-4.16-21.53-22.5-21.79-21.71-2.79,3.49-19.8-24.97-24.4-30.85-10.86-2.66-13.45-27.65-4.58-12.59,9.51,11.59-13.04-22.16-7.14-10.8,2.66,6.52-4.08-10.06,9.83,11.93,13.9,17.49-4.07-5.56-15.4-23.34-12.47-15.72-8.28-14.13-13.4-23.46-3.13-4.64-14.11-22.56-10.13-14.6.02,4.88-6.39-12.18.1,2.91,3.38,9.86,2.62,5.41,6.21,12.36,9.18,19.15-2.97-6.79-6.18-13.26-8.53-18.2-2.76-5.89-8.25-18.55-3.34-8.94q-8.28-15.91,0,0c-4.91-9.61.58,3.05,3.34,8.94,2.35,4.94,5.56,11.42,8.53,18.2-2.97-6.79-6.87-14.06-9.84-19.7-3.79-7.63-10.83-23.8-4.24-9.81-8.82-17.78-19.2-39.68-10.18-11.71-10.22-29.04-7.51-21.31,2.8,5.88-10.78-26.49-11.37-26.15-5.74,1.27-4.87-23.18,2.88,10.09,3.91,18.48-1.03-8.4-10.21-45.99-5.79-20.58-5.76-29.69-5.87-31.34,4.31-1.77-10.41-30.41-16.53-43.74-13.15-15.02-3.62-28.87-.26-20.05,6.24,12.85-6.94-32.62-9.5-38.66-13.5-7.37,3.4-30.3-.08,2.24-4.24,23.18,4.15-20.94,7.33-53.68,2.29-23.58,5.27-31.09,6.67-23.58,7.49,9.82-.95-33.58-4.58-45.62-10.95-17.6,6.07-28.01,5.67-12.1-2.02,19.55,6.68-31.29,6.48-38.28-9.61-10.56,13.92-25.75-8.35,12-14.7,20.84,6.34-8.83,26.63-42.84,11.61-19.27,16.14-25.59,8.08-10.85-2.6,11.19,10.13-22.42,18.49-40.21-.04-15.5,16.98-24.05-6.47,6.36-14.48,16.73,3.96-9.09-.78-6.51-6.26-1.94-5.35,4.36-12.26,11.5-15.62,14.72,4.87-4.77,8.91-9.55,10.65-12.21,1.74-2.66,1.17-3.2-3.19.51,1.34-2.62-1.62-.79-6.1,2.87-4.48,3.66-10.46,9.14-15.18,13.84,13.42-16.8-4.9-4.51-13.82,5.02Z"/>
</svg>