<?xml version="1.0" encoding="UTF-8"?>
<svg id="Layer_1" data-name="Layer 1" xmlns="http://www.w3.org/2000/svg" viewBox="0 0 546.51 482.27">
  <defs>
    <style>
      .cls-1 {
        fill: #cf4327;
      }

      .cls-2 {
        fill: #623814;
      }
    </style>
  </defs>
  <path class="cls-2" d="M193.17,32.06h0c-29.73,132.14-73.96,260.59-131.9,383.02l-6.54,13.82,432.09.42-10.72-27.6c-46.45-119.55-81.06-243.36-103.34-369.67h0s-179.58,0-179.58,0Z"/>
  <path class="cls-2" d="M62.36,434.77c-23.42,0-45.16-10-45.16-22.33s23.14-22.33,45.16-22.33c23.84,0,45.16,10,45.16,22.33s-23.7,22.33-45.16,22.33Z"/>
  <path class="cls-2" d="M103.92,450.88c-23.42,0-45.16-10-45.16-22.33s23.14-22.33,45.16-22.33c23.84,0,45.16,10,45.16,22.33s-23.7,22.33-45.16,22.33Z"/>
  <path class="cls-2" d="M186.18,455.12c-23.42,0-45.16-10-45.16-22.33s23.14-22.33,45.16-22.33c23.84,0,45.16,10,45.16,22.33s-23.7,22.33-45.16,22.33Z"/>
  <path class="cls-2" d="M272.68,456.82c-23.42,0-45.16-10-45.16-22.33s23.14-22.33,45.16-22.33c23.84,0,45.16,10,45.16,22.33s-23.7,22.33-45.16,22.33Z"/>
  <path class="cls-2" d="M350.71,461.9c-23.42,0-45.16-10-45.16-22.33s23.14-22.33,45.16-22.33c23.84,0,45.16,10,45.16,22.33s-23.7,22.33-45.16,22.33Z"/>
  <path class="cls-2" d="M413.46,460.21c-23.42,0-45.16-10-45.16-22.33s23.14-22.33,45.16-22.33c23.84,0,45.16,10,45.16,22.33s-23.7,22.33-45.16,22.33Z"/>
  <path class="cls-2" d="M84.65,398.43c-23.42,0-45.16-5.63-45.16-12.58s23.14-12.58,45.16-12.58c23.84,0,45.16,5.63,45.16,12.58s-23.7,12.58-45.16,12.58Z"/>
  <path class="cls-2" d="M465.96,393.34c-23.42,0-45.16-5.63-45.16-12.58s23.14-12.58,45.16-12.58c23.84,0,45.16,5.63,45.16,12.58s-23.7,12.58-45.16,12.58Z"/>
  <path class="cls-2" d="M473.68,451.73c-23.42,0-45.16-10-45.16-22.33s23.14-22.33,45.16-22.33c23.84,0,45.16,10,45.16,22.33s-23.7,22.33-45.16,22.33Z"/>
  <path class="cls-2" d="M487.14,431.37c-23.42,0-45.16-10-45.16-22.33s23.14-22.33,45.16-22.33c23.84,0,45.16,10,45.16,22.33s-23.7,22.33-45.16,22.33Z"/>
  <path class="cls-1" d="M282.97,51.36c-46.56,0-89.79-8.64-89.79-19.29s46-19.29,89.79-19.29c47.39,0,89.79,8.64,89.79,19.29s-47.11,19.29-89.79,19.29Z"/>
</svg>