<?xml version="1.0" encoding="UTF-8"?>
<svg id="Layer_1" data-name="Layer 1" xmlns="http://www.w3.org/2000/svg" xmlns:xlink="http://www.w3.org/1999/xlink" viewBox="0 0 394.13 802.27">
  <defs>
    <style>
      .cls-1 {
        fill: url(#linear-gradient-13);
      }

      .cls-2 {
        fill: url(#linear-gradient-2);
      }

      .cls-3 {
        fill: url(#linear-gradient-10);
      }

      .cls-4 {
        fill: url(#linear-gradient-12);
      }

      .cls-5 {
        fill: url(#linear-gradient-4);
      }

      .cls-6 {
        fill: #0a5e9c;
      }

      .cls-7 {
        fill: #76cbf2;
      }

      .cls-8 {
        fill: url(#linear-gradient-3);
      }

      .cls-9 {
        fill: url(#linear-gradient-5);
      }

      .cls-10 {
        fill: url(#linear-gradient-8);
      }

      .cls-11 {
        fill: url(#linear-gradient-7);
      }

      .cls-12 {
        fill: url(#linear-gradient-9);
      }

      .cls-13 {
        fill: url(#linear-gradient-11);
      }

      .cls-14 {
        fill: url(#linear-gradient-6);
      }

      .cls-15 {
        fill: url(#linear-gradient);
      }

      .cls-16 {
        fill: #ffcd33;
      }
    </style>
    <linearGradient id="linear-gradient" x1="202.19" y1="38.57" x2="202.19" y2="188.05" gradientTransform="translate(304.15 -94.84) rotate(86.83)" gradientUnits="userSpaceOnUse">
      <stop offset=".35" stop-color="#76cbf2"/>
      <stop offset="1" stop-color="#3586c7"/>
    </linearGradient>
    <linearGradient id="linear-gradient-2" x1="208.83" y1="202.55" x2="208.83" y2="394.04" gradientUnits="userSpaceOnUse">
      <stop offset=".35" stop-color="#76cbf2"/>
      <stop offset="1" stop-color="#3586c7"/>
    </linearGradient>
    <linearGradient id="linear-gradient-3" x1="210.99" y1="530.32" x2="210.99" y2="789.12" xlink:href="#linear-gradient-2"/>
    <linearGradient id="linear-gradient-4" x1="208.83" y1="416.87" x2="208.83" y2="454.43" xlink:href="#linear-gradient-2"/>
    <linearGradient id="linear-gradient-5" y1="469.08" y2="516.4" xlink:href="#linear-gradient-2"/>
    <linearGradient id="linear-gradient-6" x1="311.1" y1="188.24" x2="311.1" y2="18.02" gradientUnits="userSpaceOnUse">
      <stop offset=".35" stop-color="#0a5e9c"/>
      <stop offset=".91" stop-color="#3586c7"/>
    </linearGradient>
    <linearGradient id="linear-gradient-7" x1="84.65" y1="201.07" x2="84.65" y2="30.85" xlink:href="#linear-gradient-6"/>
    <linearGradient id="linear-gradient-8" x1="302.53" y1="424.18" x2="302.53" y2="241.44" xlink:href="#linear-gradient-6"/>
    <linearGradient id="linear-gradient-9" x1="112.7" y1="412.28" x2="112.7" y2="229.54" xlink:href="#linear-gradient-6"/>
    <linearGradient id="linear-gradient-10" x1="258.96" y1="770.71" x2="258.96" y2="547.05" xlink:href="#linear-gradient-6"/>
    <linearGradient id="linear-gradient-11" x1="162.28" y1="770.53" x2="162.28" y2="546.87" gradientTransform="translate(324.56 1317.39) rotate(180)" xlink:href="#linear-gradient-6"/>
    <linearGradient id="linear-gradient-12" x1="204.71" y1="120.27" x2="204.71" y2="103.21" gradientUnits="userSpaceOnUse">
      <stop offset="0" stop-color="#76cbf2"/>
      <stop offset="1" stop-color="#5bbcd8"/>
    </linearGradient>
    <linearGradient id="linear-gradient-13" x1="7981.72" y1="-21490.47" x2="7981.72" y2="-21580.03" gradientTransform="translate(-12307.49 -18973.96) rotate(-12.67) scale(1 -1)" gradientUnits="userSpaceOnUse">
      <stop offset=".31" stop-color="#cf4327"/>
      <stop offset=".38" stop-color="#d75325"/>
      <stop offset=".54" stop-color="#e57021"/>
      <stop offset=".7" stop-color="#ef851f"/>
      <stop offset=".85" stop-color="#f5911d"/>
      <stop offset="1" stop-color="#f8961d"/>
    </linearGradient>
  </defs>
  <g>
    <g>
      <circle class="cls-15" cx="202.19" cy="113.31" r="74.74" transform="translate(77.87 308.92) rotate(-86.83)"/>
      <path class="cls-2" d="M134.09,277.29c0,41.28,27.33,116.76,78.64,116.76,47.97,0,70.83-75.48,70.83-116.76s-33.46-74.74-74.74-74.74-74.74,33.46-74.74,74.74Z"/>
      <rect class="cls-8" x="184.78" y="530.32" width="52.43" height="258.8" rx="26.21" ry="26.21"/>
      <ellipse class="cls-5" cx="208.83" cy="435.65" rx="43.63" ry="18.78"/>
      <circle class="cls-9" cx="208.83" cy="492.74" r="23.66"/>
    </g>
    <path class="cls-7" d="M319.5,297.3h18.03c10.16,0,18.41,8.25,18.41,18.41v34.32c0,10.16-8.25,18.41-18.41,18.41h-18.03v-71.14h0Z" transform="translate(28.34 -26.49) rotate(4.69)"/>
    <path class="cls-7" d="M59.28,285.41h18.03c10.16,0,18.41,8.25,18.41,18.41v34.32c0,10.16-8.25,18.41-18.41,18.41h-18.03v-71.14h0Z" transform="translate(180.98 634.55) rotate(175.31)"/>
    <g>
      <path class="cls-14" d="M274.7,129.86c1.6-.15,1.08,8.49,7.81,15.62,8.11,8.58,24.27,12.35,36.25,6.14,16.74-8.69,19.7-33.97,11.16-49.08-9.51-16.81-32.84-20.31-46.85-18.41-10.95,1.49-14.42,6.04-21.75,3.9-12.1-3.52-21.54-21.39-18.96-34.58,4.68-23.96,51.41-44.54,88.12-31.23,33.9,12.29,48.06,49.39,49.64,75.85,1.8,30.32-11.71,67.05-41.83,81.99-14.06,6.97-43.44,15.01-59.12-1.67-15.89-16.89-7.47-48.24-4.46-48.52Z"/>
      <path class="cls-11" d="M121.05,142.68c-1.6-.15-1.08,8.49-7.81,15.62-8.11,8.58-24.27,12.35-36.25,6.14-16.74-8.69-19.7-33.97-11.16-49.08,9.51-16.81,32.84-20.31,46.85-18.41,10.95,1.49,14.42,6.04,21.75,3.9,12.1-3.52,21.54-21.39,18.96-34.58-4.68-23.96-51.41-44.54-88.12-31.23C31.37,47.32,17.21,84.43,15.63,110.89c-1.8,30.32,11.71,67.05,41.83,81.99,14.06,6.97,43.44,15.01,59.12-1.67,15.89-16.89,7.47-48.24,4.46-48.52Z"/>
      <path class="cls-10" d="M283.01,422.21l20.18,1.94c2.31.22,4.49-1.12,5.34-3.28h0c22.05-56.4,27.6-117.9,16-177.33h0s-21.23-2.04-21.23-2.04c-7.02-.68-13.06,4.92-12.92,11.98l.79,39.04c.5,24.94-1.84,49.87-7,74.28l-9.34,44.27c-1.14,5.42,2.68,10.62,8.19,11.15Z"/>
      <path class="cls-12" d="M132.21,410.31l-20.18,1.94c-2.31.22-4.49-1.12-5.34-3.28h0c-22.05-56.4-27.6-117.9-16-177.33h0s21.23-2.04,21.23-2.04c7.02-.68,13.06,4.92,12.92,11.98l-.79,39.04c-.5,24.94,1.84,49.87,7,74.28l9.34,44.27c1.14,5.42-2.68,10.62-8.19,11.15Z"/>
      <path class="cls-3" d="M232.74,547.05h0c28.94,0,52.43,23.49,52.43,52.43v118.8c0,28.94-23.49,52.43-52.43,52.43h0v-223.66h0Z"/>
      <path class="cls-13" d="M136.07,546.87h0c28.94,0,52.43,23.49,52.43,52.43v118.8c0,28.94-23.49,52.43-52.43,52.43h0v-223.66h0Z" transform="translate(324.56 1317.39) rotate(-180)"/>
    </g>
    <ellipse class="cls-6" cx="203.47" cy="113.14" rx="50.76" ry="31.79"/>
    <ellipse class="cls-4" cx="204.71" cy="111.74" rx="35.76" ry="8.53"/>
  </g>
  <g>
    <path class="cls-1" d="M258.82,318.18c0-3.38-3.32-2.01-6.63-1.28-3.32,8.22-6.63-5.87-6.63-1.28-1.31-5.1-2.61.59-3.9-.8-1.3-4.65-2.59,10.8-3.88-.89-1.29,10.16-2.57,2.17-3.85-.98-1.28,1.6-2.55,4.13-3.82-1.06-1.27.08-2.53-3.23-3.79-1.1-.63-2.59-1.26.93-1.88,3.17s-1.25,3.22-1.88-4.45c-.62-6.17-1.25-7.35-1.87-5.92-.62,1.46-1.24,4.57-1.86,4.02-1.24-1.24-2.47,5.13-3.69-.82-.82-5.68-1.63,7.2-2.44,3.15-.81,10.61-1.62,2.41-2.43-5.02-.81,8.67-1.61-.8-2.41,3.37-.8,2.24-1.6-6.13-2.39-5.63-.79-1.27-1.59-7.28-2.37-6.82-.79-.54-1.57.24-2.36,4.04-.39-4.22-.78-5.97-1.17-6.33-.39.52-.78.65-1.17,1.95-.78,2.6-1.55,6.35-2.32,2.46-.77.99-1.54-2.06-2.3-4.23-.38-.65-.76-2.45-1.14-3.05-.38,1.14-.76.86-1.14,4.12-.38-2.55-.76-2.81-1.13-4.4-.38,1.15-.75-5.78-1.13-.66-.75,2.92-1.5,1.93-2.24,2.96-1.49-2.18-2.96-.73-4.42-2.49-1.46-7.83-2.9-.27-4.33-3.3-.72,4.38-1.43-4.98-2.13-1.8-.71.18-1.41-5.36-2.11-2.29-1.4,3.37-2.79-3.76-4.15-2.23-1.37,1.05-2.72-6.59-4.06-3.35-1.34.63-2.66-1.91-3.96-3.48-1.74-7.1-3.45-.12-5.12-4.83-1.68.9-3.32-3.65-4.94-5.05-1.61-.16-3.2-4.48-4.74-5.26h0s1.28-.29,3.52-.79c2.24-.13,5.44-.87,9.29-2.08,1.92-.57,4-4.64,6.21-1.72,2.2,6.18,4.52-3,6.93-1.21,1.2-1.46,2.42-2.73,3.66.41.62-2.21,1.24-1.78,1.86-.89.62-.94,1.25.37,1.88,1.92.63.3,1.26,3,1.9-1.11.63-1.71,1.27-.3,1.91.92.64,7.66,1.28-3.4,1.92-2.99.64-.5,1.28-2.7,1.92-1.63,1.28,8.84,2.56-3.18,3.84-2.28,1.28-2.54,2.55-3.4,3.81-.8,1.26-3.7,2.51-7.27,3.75-1.56,1.24,2.35,2.46-.43,3.66,1.28,1.2-4.93,2.38-1.33,3.54-1.37,1.16-3.96,2.29,1.09,3.39-.18,1.1-4.38,2.17-3.11,3.21-3.14,1.04-1.05,2.04-1.43,3,1.75,1.92,2.11,3.68,1.7,5.24.82,1.56-3.81,2.92-5.12,4.04-2.89,1.12-.24,2-1.95,2.6,3.06.6,5.25.92-2.65.92-3.85,0-3.97,0,3.18,0,0-.24-1.63-.46-2.54-.67-1.96s-.4,4.2-.57,6.92c-.35,1.03-.63-1.05-.85,4.99-.22,3.62-.37.8-.46,5.01-.09-2.29-.11,5.88-.07,5,0,1.31.01,5.03.02,3.43,0-.95.02-1.43.02-4.33,0-6.1.02-2.15.03-1.29,0,3.3.01,4.12.02,5.69,0-.83.01,3.3.02,1.28.01,1.1.03,7.24.04,3.62.01,2.45.03,6.02.05,2.22.02-7.44.03-3.71.05-4.97.02,1.89.04-.95.06,2.95.04,8.86.09,6.29.14,3.56.05-4.7.1-2.6.16-2.48.11-4.7.24.94.39.19.07-6.09.15-1.38.23-.77.04.99.08.42.12,3.04.04,4.69.08,6.23.13,2.97.09-3.86.18-7.01.27-1.19.1-.41.19,3.2.3,3.42.1,1.35.21-2.79.32,4.95.11,3.76.22.69.34.11.12,1.87.24.86.37,2.59.13-.02.26-3.61.39-5.51.13,4.24.27,3.18.41,0,.14,1.72.28-2.52.43,4.91.3,4.33.61-2.84.93-.63.33,2.36.67-.02,1.02,3.38.35,4.37.72,4.41,1.11,1.49.19,3.46.39,9.84.59,5.39.2-.12.4,2.15.61.65.41,1.36.84-3.71,1.28-1.89.44,6.24.9,3.05,1.37.06.47-6.03.95-6.59,1.45,4.31.5,1.78,1.01,5.05,1.53,3.84.53,1.15,1.06-2.1,1.62.12.55-3.38,1.12,3.64,1.7,1.31.58-3.61,1.17,1.88,1.78,2.43,0,4.4.37,7.3.97,8.07s1.46-.58,2.43-4.69c1.95,7.09,4.38,3.87,6.33,6.29,1.95,1.85,3.41,8.37,3.41,3.39Z"/>
    <path class="cls-16" d="M187.08,287.26c1.87-2,4.36-4.46,1.33-1.82,1.83-1.74,3.64-3.29,3.72-3.38.77-.7-.15.01-2.39,1.56,1.18-.86,2.93-2.24,4.1-3.11,1.19-.89,1.81-1.29.61-.05,1.66-1.63,6.29-5.78,2.48-3.07,3.77-3.14-.77-.26-3.09,1.23,2.32-1.5,9.2-6.62,4.58-2.75,5.03-4,3.67-1.75-.57,2.81,4.36-4.66,5.51-8.88,1.9-5.55,3.6-3.48,3.5-2.82-1.31,1,4.81-3.83,4.65-4.93,1.76-1.8,2.95-3.07,4.49-1.09,1.19,4.3,3.31-5.4,2.27-6.94.18-3.53,2.12-3.42,3.09-2.48,2.42,2.17.66-4.65-.99-6.36-2.62-3.68,1.62-2.73,1.49-2.92,2.12-1.4-.63-1.52-.48-1.3-1.77,1.35,1.33-2.62,2.86-1.07,4.14,2.61-1.28-3.68-2.14-4.51-2.76-1.43.63-3.08,1.48-2.28,4.36.04-2.89-2.33-3.94-3.37-2.87-1.46-1.06-1.92,0-1.17,4.35-4.47-4.36,3.3-5.33,2.63-3.77,4.24-1.56-1.6-.43-.54,3.83-.11-4.26-.43-4.92-1.01-2.62.69-2.28-1.7-.69-.54,5.05-2.46-5.72,1.87-5.64,1.71-.12-1.3-5.34,2.81.3-.36,3.44-3.79-3.26,3.73-5.91,5.96-.72,2.43-5.07,3.7-2.89,2.63,1.5-.44-3.58,2.55,1.43-1,2.63-1.95.95-.75,1.91-1.54,2.7-2.12q-1.55,1.89,0,0c-.77.95-2.56,2.97-2.33,3.41-1.06,1.26-.22,1.14,1.7-.57-.69.79-3.67,2.8-2.05,2.43-2.68,1.68-7.02,3.57-1.81,2.34-5.71,1.86-8.44,2.26-2.02,2.08-6.58.36-6.13.55.57,1.04-6.66-.41-6.31-.33.3.2-6.19-.62-.61-.57,3.5-1.33-4.11.76-10.79.57-4.67,1.96-6.55-1.2-6.67-1.11-.66,1.8-6.11-2.81-7.15-3.51-3.38.79-3.77-4.26-2.32-2.83,2.56,2.01-4.8-4.74-4.5-4.45.15.3-4.07-4.51,1.22-.37,4.19,1.22-2.97-1.59-7.97-5.46-4.12-.87-4.52-4.72-4.57-4.55-.58.73-4.15-5.24-5.12-6.47-2.28-.56-2.82-5.8-.96-2.64,2,2.43-2.73-4.65-1.5-2.26.56,1.37-.86-2.11,2.06,2.5,2.92,3.67-.85-1.17-3.23-4.9-2.62-3.3-1.74-2.96-2.81-4.92-.66-.97-2.96-4.73-2.12-3.06,0,1.02-1.34-2.55.02.61.71,2.07.55,1.13,1.3,2.59,1.93,4.02-.62-1.42-1.3-2.78-1.79-3.82-.58-1.24-1.73-3.89-.7-1.88q-1.74-3.34,0,0c-1.03-2.02.12.64.7,1.88.49,1.04,1.17,2.39,1.79,3.82-.62-1.42-1.44-2.95-2.06-4.13-.79-1.6-2.27-4.99-.89-2.06-1.85-3.73-4.03-8.32-2.14-2.46-2.14-6.09-1.58-4.47.59,1.23-2.26-5.56-2.38-5.49-1.2.27-1.02-4.86.6,2.12.82,3.88-.22-1.76-2.14-9.65-1.22-4.32-1.21-6.23-1.23-6.57.9-.37-2.18-6.38-3.47-9.17-2.76-3.15-.76-6.06-.05-4.21,1.31,2.7-1.46-6.84-1.99-8.11-2.83-1.55.71-6.36-.02.47-.89,4.86.87-4.39,1.54-11.26.48-4.95,1.1-6.52,1.4-4.95,1.57,2.06-.2-7.04-.96-9.57-2.3-3.69,1.27-5.87,1.19-2.54-.42,4.1,1.4-6.56,1.36-8.03-2.02-2.21,2.92-5.4-1.75,2.52-3.08,4.37,1.33-1.85,5.59-8.99,2.44-4.04,3.39-5.37,1.69-2.28-.54,2.35,2.12-4.7,3.88-8.44,0-3.25,3.56-5.04-1.36,1.33-3.04,3.51.83-1.91-.16-1.37-1.31-.41-1.12.92-2.57,2.41-3.28,3.09,1.02-1,1.87-2,2.23-2.56s.25-.67-.67.11c.28-.55-.34-.17-1.28.6s-2.2,1.92-3.18,2.9c2.81-3.53-1.03-.95-2.9,1.05Z"/>
  </g>
</svg>