<?xml version="1.0" encoding="UTF-8"?>
<svg id="Layer_1" data-name="Layer 1" xmlns="http://www.w3.org/2000/svg" xmlns:xlink="http://www.w3.org/1999/xlink" viewBox="0 0 418.51 841.89">
  <defs>
    <style>
      .cls-1 {
        fill: url(#linear-gradient-2);
      }

      .cls-2 {
        fill: url(#radial-gradient-9);
      }

      .cls-3 {
        fill: url(#linear-gradient-10);
      }

      .cls-4 {
        fill: url(#linear-gradient-4);
      }

      .cls-5 {
        fill: url(#radial-gradient-5);
      }

      .cls-6 {
        fill: url(#radial-gradient);
      }

      .cls-7 {
        fill: url(#radial-gradient-3);
      }

      .cls-8 {
        fill: url(#linear-gradient-3);
      }

      .cls-9 {
        fill: url(#linear-gradient-5);
      }

      .cls-10 {
        fill: url(#linear-gradient-8);
      }

      .cls-11 {
        fill: url(#radial-gradient-8);
      }

      .cls-12 {
        fill: url(#radial-gradient-2);
      }

      .cls-13 {
        fill: url(#radial-gradient-4);
      }

      .cls-14 {
        fill: #201337;
      }

      .cls-15 {
        fill: url(#linear-gradient-7);
      }

      .cls-16 {
        fill: url(#linear-gradient-9);
      }

      .cls-17 {
        fill: url(#linear-gradient-6);
      }

      .cls-18 {
        fill: url(#radial-gradient-6);
      }

      .cls-19 {
        fill: url(#radial-gradient-7);
      }

      .cls-20 {
        fill: url(#linear-gradient);
      }

      .cls-21 {
        fill: #ffcd33;
      }
    </style>
    <linearGradient id="linear-gradient" x1="257.5" y1="305.09" x2="328.63" y2="305.09" gradientUnits="userSpaceOnUse">
      <stop offset="0" stop-color="#c5add3"/>
      <stop offset="1" stop-color="#201337"/>
    </linearGradient>
    <radialGradient id="radial-gradient" cx="253.38" cy="344.29" fx="253.38" fy="344.29" r="85.35" gradientUnits="userSpaceOnUse">
      <stop offset="0" stop-color="#c5add3"/>
      <stop offset=".18" stop-color="#c1a9cf"/>
      <stop offset=".34" stop-color="#b7a0c5"/>
      <stop offset=".48" stop-color="#a58fb5"/>
      <stop offset=".63" stop-color="#8c789d"/>
      <stop offset=".76" stop-color="#6c5a7f"/>
      <stop offset=".89" stop-color="#45365a"/>
      <stop offset="1" stop-color="#201337"/>
    </radialGradient>
    <linearGradient id="linear-gradient-2" x1="289.88" y1="14.22" x2="289.88" y2="160.71" gradientUnits="userSpaceOnUse">
      <stop offset="0" stop-color="#c5add3"/>
      <stop offset=".01" stop-color="#bba3c9"/>
      <stop offset=".06" stop-color="#9682a7"/>
      <stop offset=".12" stop-color="#766388"/>
      <stop offset=".19" stop-color="#5b4a6f"/>
      <stop offset=".26" stop-color="#45355a"/>
      <stop offset=".34" stop-color="#34264a"/>
      <stop offset=".45" stop-color="#281b3f"/>
      <stop offset=".59" stop-color="#211438"/>
      <stop offset="1" stop-color="#201337"/>
    </linearGradient>
    <linearGradient id="linear-gradient-3" x1="199.12" y1="56.77" x2="199.12" y2="171.7" gradientUnits="userSpaceOnUse">
      <stop offset="0" stop-color="#c5add3"/>
      <stop offset=".01" stop-color="#bba3c9"/>
      <stop offset=".06" stop-color="#9682a7"/>
      <stop offset=".12" stop-color="#766388"/>
      <stop offset=".19" stop-color="#5b4a6f"/>
      <stop offset=".26" stop-color="#45355a"/>
      <stop offset=".34" stop-color="#34264a"/>
      <stop offset=".45" stop-color="#281b3f"/>
      <stop offset=".59" stop-color="#211438"/>
      <stop offset="1" stop-color="#201337"/>
    </linearGradient>
    <radialGradient id="radial-gradient-2" cx="244.84" cy="59.04" fx="244.84" fy="59.04" r="27.83" gradientUnits="userSpaceOnUse">
      <stop offset="0" stop-color="#c5add3"/>
      <stop offset="1" stop-color="#201337"/>
    </radialGradient>
    <radialGradient id="radial-gradient-3" cx="244.76" cy="173.93" fx="244.76" fy="173.93" r="49" gradientUnits="userSpaceOnUse">
      <stop offset="0" stop-color="#c5add3"/>
      <stop offset=".12" stop-color="#bfa7cd"/>
      <stop offset=".29" stop-color="#ae97bd"/>
      <stop offset=".47" stop-color="#927ea3"/>
      <stop offset=".68" stop-color="#6c5a7f"/>
      <stop offset=".89" stop-color="#3b2c51"/>
      <stop offset="1" stop-color="#201337"/>
    </radialGradient>
    <linearGradient id="linear-gradient-4" x1="212.45" y1="403.61" x2="298.99" y2="403.61" gradientUnits="userSpaceOnUse">
      <stop offset="0" stop-color="#6b53a3"/>
      <stop offset="1" stop-color="#201337"/>
    </linearGradient>
    <linearGradient id="linear-gradient-5" x1="288.36" y1="373" x2="326.68" y2="373" xlink:href="#linear-gradient-4"/>
    <linearGradient id="linear-gradient-6" x1="219.57" y1="345.55" x2="286.84" y2="345.55" gradientTransform="translate(-58.27 -58.27) rotate(1.69) scale(1.03) skewX(3.38)" xlink:href="#linear-gradient-4"/>
    <linearGradient id="linear-gradient-7" x1="209.54" y1="276.85" x2="295.4" y2="276.85" xlink:href="#linear-gradient-4"/>
    <linearGradient id="linear-gradient-8" x1="179.92" y1="376.72" x2="250.14" y2="376.72" xlink:href="#linear-gradient-4"/>
    <linearGradient id="linear-gradient-9" x1="230.88" y1="160.84" x2="255.28" y2="160.84" gradientUnits="userSpaceOnUse">
      <stop offset="0" stop-color="#c5add3"/>
      <stop offset=".32" stop-color="#c2aad1"/>
      <stop offset=".51" stop-color="#baa2cd"/>
      <stop offset=".66" stop-color="#ab93c5"/>
      <stop offset=".8" stop-color="#977fba"/>
      <stop offset=".93" stop-color="#7d65ac"/>
      <stop offset="1" stop-color="#6b53a3"/>
    </linearGradient>
    <radialGradient id="radial-gradient-4" cx="280.98" cy="744.67" fx="280.98" fy="744.67" r="19.18" xlink:href="#radial-gradient"/>
    <radialGradient id="radial-gradient-5" cx="186.73" cy="753.23" fx="186.73" fy="753.23" r="28.82" xlink:href="#radial-gradient"/>
    <radialGradient id="radial-gradient-6" cx="79.05" cy="732.75" fx="79.05" fy="732.75" r="28.82" xlink:href="#radial-gradient"/>
    <radialGradient id="radial-gradient-7" cx="99.9" cy="637.59" fx="99.9" fy="637.59" r="39.05" xlink:href="#radial-gradient"/>
    <radialGradient id="radial-gradient-8" cx="248.28" cy="537.24" fx="248.28" fy="537.24" r="46.38" xlink:href="#radial-gradient"/>
    <radialGradient id="radial-gradient-9" cx="179.52" cy="607.25" fx="179.52" fy="607.25" r="34.5" xlink:href="#radial-gradient"/>
    <linearGradient id="linear-gradient-10" x1="7983.33" y1="-21883.07" x2="7983.33" y2="-21945.86" gradientTransform="translate(-12342.81 -19292.15) rotate(-12.67) scale(1 -1)" gradientUnits="userSpaceOnUse">
      <stop offset=".31" stop-color="#cf4327"/>
      <stop offset=".38" stop-color="#d75325"/>
      <stop offset=".54" stop-color="#e57021"/>
      <stop offset=".7" stop-color="#ef851f"/>
      <stop offset=".85" stop-color="#f5911d"/>
      <stop offset="1" stop-color="#f8961d"/>
    </linearGradient>
  </defs>
  <path class="cls-20" d="M278.21,255.94c8.98-1.41,16.23,3.18,25.27,13.4,6.92,7.82,24.76,30.6,25.14,52.76.1,5.81-1.86,24.77-13.71,30.6-15.68,7.72-43.75-10.42-53.08-33.78-10.96-27.46.48-60.49,16.38-62.98Z"/>
  <path class="cls-6" d="M179.11,323.41c0,41.02,27.16,116.02,78.15,116.02,47.66,0,70.39-75,70.39-116.02,0-13.67-29.63,28.84-46.64-8.74-10.52-23.24-.28-65.52-27.62-65.52-41.02,0-74.27,33.25-74.27,74.27Z"/>
  <path class="cls-1" d="M263.85,134.69c-2.28,10.18,21.89,30.48,40.63,25.14,6.98-1.99,11.11-6.93,16.76-13.71,12.64-15.15,16.25-31.38,17.27-36.83,1.13-6.02,4.65-26.39-5.59-48.76-.88-1.92-16.3-34.25-51.3-43.68-21.8-5.87-41.87-.36-41.9,1.78-.04,2.47,26.64-1.42,46.48,13.97,19.15,14.85,21.87,38.14,22.1,40.38.18,1.79,2.58,29.83-15.75,46.22-13.33,11.93-27.07,8.24-28.7,15.49Z"/>
  <path class="cls-14" d="M318.64,764.93c-1.49-4.49,14.26-13.43,26.47-11.08,4.55.88,7.23,3.05,10.92,6.04,8.23,6.68,10.58,13.83,11.25,16.23.73,2.65,3.03,11.63-3.64,21.49-.57.85-10.61,15.09-33.41,19.25-14.2,2.59-27.27.16-27.29-.78-.03-1.09,17.35.62,30.27-6.16,12.47-6.54,14.24-16.81,14.39-17.79.12-.79,1.68-13.14-10.26-20.37-8.68-5.26-17.63-3.63-18.69-6.83Z"/>
  <path class="cls-8" d="M242.52,57.55c.48,1.83-19.35,4.82-38.6,21.08-9.22,7.79-21.21,17.91-20.06,29.21,1.65,16.26,31.55,29.06,29.17,31.54-6.96,7.24-16.38,20.62-16.43,28.9-.06,10.84-20.76-7.22-24.93-11.43-11.52-11.63-19.65-31.82-14.22-51.3,6.61-23.73,29.8-33.67,45.46-40.38,20.25-8.68,39.15-9.38,39.62-7.62Z"/>
  <circle class="cls-12" cx="244.84" cy="59.04" r="27.82"/>
  <circle class="cls-7" cx="244.76" cy="173.93" r="48.99"/>
  <path class="cls-14" d="M212.98,416.98h0c15.67,8.75,34.39,10.21,51.23,3.97l5.71-2.11-19.78-18.24-37.16,16.38Z"/>
  <path class="cls-4" d="M280.2,367.76l-2.92,8.41c-9.39,27.06-36.4,43.9-64.83,40.42h0s5.94,6.07,5.94,6.07c20.01,20.28,52.86,24.38,74.74.03l5.85-6.79-18.79-48.14Z"/>
  <path class="cls-14" d="M280.38,364.73h0c-4.02,17.49-.18,35.87,10.51,50.3l3.62,4.89,11.85-24.35-25.98-30.84Z"/>
  <path class="cls-9" d="M288.36,325.55h0c15.08,21.95,19.42,49.54,11.79,75.06l-5.02,19.84,7.68-9.84,6.22-11.24c10.44-18.21,16.22-38.8,17.64-59.74h0s-38.32-14.08-38.32-14.08Z"/>
  <path class="cls-17" d="M214.53,347.94l.35.11c-8.88-27.67-.6-55.9,21.17-73.13l10.58-8.37-37.76-3.66-8.81,8.75c-12.94,12.85-20.66,32.4-20.97,49.36l.04,4.98.15,3.83,35.25,18.14Z"/>
  <path class="cls-15" d="M277.59,305.36l-1.22-8.43c-2.1-14.53,5.66-28.7,19.03-34.76h0s-1.69-1.17-1.69-1.17c-25.55-17.75-59.68-16.77-84.17,2.43h0s1.57.38,1.57.38c25.84,6.2,48.99,20.58,66.01,41l.46.55Z"/>
  <path class="cls-14" d="M302.48,267.58l-7.62-6.1c-15.22,9.53-17.04,13.99-19.68,31.75,0,0,0,0,0,0l2.29,12.12h0c16.55,1.37,29.81-13.47,26.6-29.77l-1.58-8.01Z"/>
  <path class="cls-14" d="M179.29,329.8l35.25,18.14-10.86,26.68h0c-8.55-6.88-15.16-15.86-19.18-26.07l-4.59-11.66-.63-7.09Z"/>
  <path class="cls-10" d="M250.14,400.6h0c-26.1-5.3-48.39-22.13-60.64-45.77l-9.58-18.48,1.37,13.08,3.13,12.37c5.15,20.35,14.86,39.26,28.39,55.31h0s37.33-16.51,37.33-16.51Z"/>
  <path class="cls-14" d="M326.68,339.63l.94-8.27c.85-7.45.42-15-1.26-22.31l-1.22-5.29-24.64,9.82c-5.49,2.19-9.87,6.51-12.13,11.97h0s38.32,14.08,38.32,14.08Z"/>
  <circle class="cls-14" cx="243.35" cy="161.28" r="14.84"/>
  <polygon class="cls-16" points="243.08 158.28 248.14 148.64 244.89 159.03 255.28 155.78 245.64 160.84 255.28 165.89 244.89 162.65 248.14 173.04 243.08 163.4 238.03 173.04 241.27 162.65 230.88 165.89 240.52 160.84 230.88 155.78 241.27 159.03 238.03 148.64 243.08 158.28"/>
  <circle class="cls-14" cx="244.45" cy="781.19" r="11.72"/>
  <circle class="cls-14" cx="154.97" cy="709.91" r="11.72"/>
  <circle class="cls-14" cx="83.69" cy="689.69" r="11.72"/>
  <circle class="cls-14" cx="30.61" cy="691.2" r="11.72"/>
  <circle class="cls-14" cx="60.44" cy="565.83" r="11.72"/>
  <circle class="cls-14" cx="169.13" cy="551.67" r="11.72"/>
  <circle class="cls-14" cx="214.12" cy="478.37" r="11.72"/>
  <circle class="cls-14" cx="311.69" cy="513.25" r="11.72"/>
  <circle class="cls-14" cx="269.23" cy="607.79" r="11.72"/>
  <circle class="cls-14" cx="130.07" cy="764.89" r="13.11"/>
  <circle class="cls-13" cx="280.98" cy="744.67" r="19.18"/>
  <circle class="cls-5" cx="186.73" cy="753.23" r="28.82"/>
  <circle class="cls-18" cx="79.05" cy="732.75" r="28.82"/>
  <circle class="cls-19" cx="99.9" cy="637.59" r="39.05"/>
  <circle class="cls-11" cx="248.28" cy="537.24" r="46.38"/>
  <circle class="cls-2" cx="179.52" cy="607.25" r="34.5"/>
  <g>
    <path class="cls-3" d="M291.42,360.21c0-2.37-2.32-1.41-4.65-.9-2.32,5.76-4.65-4.12-4.65-.9-.92-3.57-1.83.42-2.74-.56-.91-3.26-1.82,7.57-2.72-.62-.9,7.12-1.8,1.52-2.7-.68-.9,1.12-1.79,2.9-2.68-.74-.89.06-1.78-2.27-2.66-.77-.44-1.81-.88.65-1.32,2.23s-.88,2.26-1.31-3.12c-.44-4.32-.87-5.15-1.31-4.15-.44,1.02-.87,3.21-1.3,2.82-.87-.87-1.73,3.6-2.59-.57-.57-3.98-1.14,5.05-1.71,2.21-.57,7.44-1.14,1.69-1.7-3.52-.56,6.08-1.13-.56-1.69,2.36-.56,1.57-1.12-4.3-1.68-3.95-.56-.89-1.11-5.1-1.66-4.78-.55-.38-1.1.17-1.65,2.83-.27-2.96-.55-4.18-.82-4.44-.27.36-.55.46-.82,1.37-.54,1.82-1.09,4.45-1.63,1.73-.54.7-1.08-1.44-1.61-2.96-.27-.45-.53-1.71-.8-2.14-.27.8-.53.6-.8,2.89-.27-1.79-.53-1.97-.79-3.09-.26.81-.53-4.05-.79-.46-.53,2.05-1.05,1.35-1.57,2.07-1.04-1.53-2.08-.51-3.1-1.74-1.02-5.49-2.04-.19-3.04-2.32-.5,3.07-1-3.49-1.5-1.26-.5.13-.99-3.76-1.48-1.6-.98,2.37-1.95-2.64-2.91-1.56-.96.73-1.91-4.62-2.85-2.35-.94.44-1.86-1.34-2.78-2.44-1.22-4.98-2.42-.09-3.59-3.39-1.18.63-2.33-2.56-3.46-3.54-1.13-.12-2.24-3.14-3.33-3.69h0s.9-.2,2.47-.55c1.57-.09,3.82-.61,6.51-1.45,1.35-.4,2.81-3.26,4.35-1.21,1.54,4.33,3.17-2.1,4.86-.85.84-1.02,1.7-1.92,2.56.29.43-1.55.87-1.25,1.31-.62.44-.66.88.26,1.32,1.34.44.21.89,2.1,1.33-.78.45-1.2.89-.21,1.34.65.45,5.37.9-2.39,1.34-2.09.45-.35.9-1.9,1.35-1.14.9,6.2,1.8-2.23,2.69-1.6.89-1.78,1.79-2.38,2.67-.56.88-2.59,1.76-5.1,2.63-1.09.87,1.65,1.72-.3,2.56.89.84-3.46,1.67-.93,2.48-.96.81-2.77,1.6.77,2.37-.12.77-3.07,1.52-2.18,2.25-2.2.73-.74,1.43-1,2.1,1.23,1.35,1.48,2.58,1.19,3.68.57,1.09-2.67,2.05-3.59,2.83-2.03.79-.16,1.4-1.37,1.82,2.14.42,3.68.65-1.86.65-2.7,0-2.78,0,2.23,0,0-.17-1.14-.33-1.78-.47-1.38s-.28,2.94-.4,4.85c-.24.72-.44-.73-.59,3.5-.15,2.53-.26.56-.32,3.51-.06-1.61-.08,4.12-.05,3.5,0,.92,0,3.53.01,2.4,0-.67.01-1,.02-3.04,0-4.28.01-1.51.02-.9,0,2.31,0,2.89.01,3.99,0-.58,0,2.31.01.9,0,.77.02,5.08.03,2.54.01,1.72.02,4.22.03,1.55.01-5.21.02-2.6.04-3.48.01,1.33.03-.67.04,2.07.03,6.21.06,4.41.1,2.5.03-3.3.07-1.82.11-1.74.08-3.3.17.66.27.14.05-4.27.1-.96.16-.54.03.69.06.29.09,2.13.03,3.29.06,4.37.09,2.08.06-2.7.13-4.92.19-.84.07-.28.14,2.24.21,2.4.07.95.15-1.95.22,3.47.08,2.63.16.49.24.08.08,1.31.17.6.26,1.81.09-.01.18-2.53.27-3.86.09,2.97.19,2.23.29,0,.1,1.21.2-1.77.3,3.44.21,3.04.43-1.99.65-.44.23,1.66.47-.01.72,2.37.25,3.07.51,3.09.78,1.04.13,2.42.27,6.89.41,3.78.14-.09.28,1.51.43.46.29.96.59-2.6.9-1.33.31,4.38.63,2.14.96.04.33-4.23.67-4.62,1.02,3.02.35,1.25.71,3.54,1.08,2.69.37.81.75-1.48,1.13.09.39-2.37.79,2.55,1.19.92.41-2.53.82,1.32,1.25,1.71,0,3.09.26,5.12.68,5.66s1.02-.41,1.71-3.29c1.36,4.97,3.07,2.71,4.44,4.41,1.36,1.3,2.39,5.86,2.39,2.37Z"/>
    <path class="cls-21" d="M241.13,338.53c1.31-1.4,3.06-3.12.93-1.27,1.28-1.22,2.56-2.31,2.6-2.37.54-.49-.1,0-1.67,1.09.83-.6,2.06-1.57,2.88-2.18.83-.62,1.27-.91.43-.03,1.17-1.14,4.41-4.05,1.74-2.15,2.65-2.2-.54-.18-2.17.86,1.63-1.05,6.45-4.64,3.21-1.93,3.52-2.8,2.57-1.23-.4,1.97,3.06-3.26,3.87-6.23,1.33-3.89,2.52-2.44,2.46-1.98-.92.7,3.37-2.69,3.26-3.45,1.23-1.26,2.07-2.15,3.14-.77.83,3.02,2.32-3.78,1.59-4.87.13-2.48,1.48-2.4,2.16-1.74,1.7,1.52.47-3.26-.69-4.46-1.84-2.58,1.13-1.91,1.04-2.05,1.49-.98-.44-1.06-.33-.91-1.24.95.93-1.83,2-.75,2.91,1.83-.9-2.58-1.5-3.16-1.93-1,.44-2.16,1.03-1.6,3.06.03-2.02-1.63-2.76-2.36-2.01-1.02-.74-1.35,0-.82,3.05-3.13-3.05,2.31-3.73,1.84-2.64,2.97-1.09-1.12-.3-.38,2.68-.08-2.98-.3-3.45-.71-1.84.48-1.6-1.19-.49-.38,3.54-1.72-4.01,1.31-3.95,1.2-.08-.91-3.74,1.97.21-.25,2.41-2.66-2.28,2.61-4.15,4.18-.5,1.7-3.56,2.59-2.03,1.84,1.05-.31-2.51,1.79,1-.7,1.85-1.37.67-.53,1.34-1.08,1.89-1.49q-1.08,1.33,0,0c-.54.66-1.79,2.08-1.63,2.39-.74.88-.15.8,1.19-.4-.48.55-2.57,1.96-1.44,1.7-1.88,1.18-4.92,2.5-1.27,1.64-4,1.3-5.92,1.58-1.42,1.46-4.61.26-4.3.39.4.73-4.67-.29-4.43-.23.21.14-4.34-.43-.43-.4,2.45-.93-2.88.53-7.56.4-3.27,1.37-4.59-.84-4.67-.78-.46,1.26-4.28-1.97-5.01-2.46-2.37.55-2.65-2.98-1.63-1.98,1.79,1.41-3.37-3.32-3.16-3.12.11.21-2.85-3.16.86-.26,2.94.86-2.08-1.11-5.59-3.83-2.89-.61-3.17-3.31-3.2-3.19-.41.51-2.91-3.67-3.59-4.54-1.6-.39-1.98-4.07-.67-1.85,1.4,1.71-1.92-3.26-1.05-1.59.39.96-.6-1.48,1.45,1.75,2.04,2.57-.6-.82-2.26-3.43-1.83-2.31-1.22-2.08-1.97-3.45-.46-.68-2.08-3.32-1.49-2.15,0,.72-.94-1.79.02.43.5,1.45.39.8.91,1.82,1.35,2.82-.44-1-.91-1.95-1.25-2.68-.41-.87-1.21-2.73-.49-1.31q-1.22-2.34,0,0c-.72-1.41.09.45.49,1.31.35.73.82,1.68,1.25,2.68-.44-1-1.01-2.07-1.45-2.9-.56-1.12-1.59-3.5-.62-1.44-1.3-2.61-2.82-5.84-1.5-1.72-1.5-4.27-1.1-3.13.41.87-1.59-3.9-1.67-3.85-.84.19-.72-3.41.42,1.48.57,2.72-.15-1.23-1.5-6.76-.85-3.03-.85-4.37-.86-4.61.63-.26-1.53-4.47-2.43-6.43-1.93-2.21-.53-4.25-.04-2.95.92,1.89-1.02-4.8-1.4-5.68-1.99-1.08.5-4.46-.01.33-.62,3.41.61-3.08,1.08-7.89.34-3.47.77-4.57.98-3.47,1.1,1.44-.14-4.94-.67-6.71-1.61-2.59.89-4.12.83-1.78-.3,2.87.98-4.6.95-5.63-1.41-1.55,2.05-3.79-1.23,1.76-2.16,3.06.93-1.3,3.92-6.3,1.71-2.83,2.37-3.76,1.19-1.6-.38,1.65,1.49-3.3,2.72-5.91,0-2.28,2.5-3.54-.95.93-2.13,2.46.58-1.34-.11-.96-.92-.28-.79.64-1.8,1.69-2.3,2.16.72-.7,1.31-1.4,1.57-1.8s.17-.47-.47.08c.2-.38-.24-.12-.9.42s-1.54,1.34-2.23,2.04c1.97-2.47-.72-.66-2.03.74Z"/>
  </g>
</svg>