<?xml version="1.0" encoding="UTF-8"?>
<svg id="Layer_1" data-name="Layer 1" xmlns="http://www.w3.org/2000/svg" xmlns:xlink="http://www.w3.org/1999/xlink" viewBox="0 0 418.51 841.89">
  <defs>
    <style>
      .cls-1 {
        fill: url(#linear-gradient-15);
      }

      .cls-2 {
        fill: url(#linear-gradient-13);
      }

      .cls-3 {
        fill: url(#linear-gradient-28);
      }

      .cls-4 {
        fill: url(#linear-gradient-2);
      }

      .cls-5 {
        fill: url(#linear-gradient-25);
      }

      .cls-6 {
        fill: url(#linear-gradient-10);
      }

      .cls-7 {
        fill: url(#linear-gradient-12);
      }

      .cls-8 {
        fill: url(#linear-gradient-40);
      }

      .cls-9 {
        fill: url(#linear-gradient-27);
      }

      .cls-10 {
        fill: url(#linear-gradient-37);
      }

      .cls-11 {
        fill: url(#linear-gradient-39);
      }

      .cls-12 {
        fill: url(#linear-gradient-26);
      }

      .cls-13 {
        fill: url(#linear-gradient-4);
      }

      .cls-14 {
        fill: url(#linear-gradient-35);
      }

      .cls-15 {
        fill: url(#linear-gradient-30);
      }

      .cls-16 {
        fill: url(#linear-gradient-3);
      }

      .cls-17 {
        fill: url(#linear-gradient-34);
      }

      .cls-18 {
        fill: url(#linear-gradient-5);
      }

      .cls-19 {
        fill: url(#linear-gradient-38);
      }

      .cls-20 {
        fill: url(#linear-gradient-22);
      }

      .cls-21 {
        fill: url(#linear-gradient-24);
      }

      .cls-22 {
        fill: url(#linear-gradient-33);
      }

      .cls-23 {
        fill: url(#linear-gradient-8);
      }

      .cls-24 {
        fill: url(#linear-gradient-14);
      }

      .cls-25 {
        fill: url(#linear-gradient-29);
      }

      .cls-26 {
        fill: url(#linear-gradient-20);
      }

      .cls-27 {
        fill: url(#linear-gradient-17);
      }

      .cls-28 {
        fill: url(#linear-gradient-7);
      }

      .cls-29 {
        fill: url(#linear-gradient-9);
      }

      .cls-30 {
        fill: url(#linear-gradient-11);
      }

      .cls-31 {
        fill: url(#linear-gradient-19);
      }

      .cls-32 {
        fill: url(#linear-gradient-6);
      }

      .cls-33 {
        fill: url(#linear-gradient-36);
      }

      .cls-34 {
        fill: url(#linear-gradient-21);
      }

      .cls-35 {
        fill: url(#linear-gradient-32);
      }

      .cls-36 {
        fill: url(#linear-gradient-16);
      }

      .cls-37 {
        fill: url(#linear-gradient);
      }

      .cls-38 {
        fill: url(#linear-gradient-23);
      }

      .cls-39 {
        fill: url(#linear-gradient-31);
      }

      .cls-40 {
        fill: url(#linear-gradient-18);
      }

      .cls-41 {
        fill: #ffcd33;
      }
    </style>
    <linearGradient id="linear-gradient" x1="173.67" y1="379.28" x2="312.11" y2="379.28" gradientUnits="userSpaceOnUse">
      <stop offset=".39" stop-color="#a5acb4"/>
      <stop offset=".69" stop-color="#bdc2c8"/>
      <stop offset=".83" stop-color="#cbced3"/>
    </linearGradient>
    <linearGradient id="linear-gradient-2" x1="225.24" y1="796.95" x2="225.24" y2="774.75" gradientUnits="userSpaceOnUse">
      <stop offset="0" stop-color="#444952"/>
      <stop offset=".27" stop-color="#59616a"/>
      <stop offset=".83" stop-color="#8fa0a9"/>
      <stop offset="1" stop-color="#a1b4be"/>
    </linearGradient>
    <linearGradient id="linear-gradient-3" x1="140.5" y1="729.45" x2="140.5" y2="707.25" xlink:href="#linear-gradient-2"/>
    <linearGradient id="linear-gradient-4" x1="73" y1="710.3" x2="73" y2="688.1" xlink:href="#linear-gradient-2"/>
    <linearGradient id="linear-gradient-5" x1="22.74" y1="711.73" x2="22.74" y2="689.53" xlink:href="#linear-gradient-2"/>
    <linearGradient id="linear-gradient-6" x1="50.98" y1="593.01" x2="50.98" y2="570.81" xlink:href="#linear-gradient-2"/>
    <linearGradient id="linear-gradient-7" x1="153.91" y1="579.61" x2="153.91" y2="557.41" xlink:href="#linear-gradient-2"/>
    <linearGradient id="linear-gradient-8" x1="196.51" y1="510.19" x2="196.51" y2="487.99" xlink:href="#linear-gradient-2"/>
    <linearGradient id="linear-gradient-9" x1="288.91" y1="543.22" x2="288.91" y2="521.02" xlink:href="#linear-gradient-2"/>
    <linearGradient id="linear-gradient-10" x1="248.69" y1="632.74" x2="248.69" y2="610.54" xlink:href="#linear-gradient-2"/>
    <linearGradient id="linear-gradient-11" x1="116.93" y1="782.82" x2="116.93" y2="757.99" xlink:href="#linear-gradient-2"/>
    <linearGradient id="linear-gradient-12" x1="295.76" y1="604.74" x2="295.76" y2="566.92" xlink:href="#linear-gradient-2"/>
    <linearGradient id="linear-gradient-13" x1="259.82" y1="769.42" x2="259.82" y2="733.1" xlink:href="#linear-gradient"/>
    <linearGradient id="linear-gradient-14" x1="170.57" y1="786.65" x2="170.57" y2="732.08" xlink:href="#linear-gradient"/>
    <linearGradient id="linear-gradient-15" x1="68.61" y1="767.27" x2="68.61" y2="712.69" xlink:href="#linear-gradient"/>
    <linearGradient id="linear-gradient-16" x1="88.35" y1="686.84" x2="88.35" y2="612.88" xlink:href="#linear-gradient"/>
    <linearGradient id="linear-gradient-17" x1="228.86" y1="598.76" x2="228.86" y2="510.91" xlink:href="#linear-gradient"/>
    <linearGradient id="linear-gradient-18" x1="231.05" y1="246.98" x2="231.05" y2="145.17" xlink:href="#linear-gradient"/>
    <linearGradient id="linear-gradient-19" x1="163.75" y1="653.81" x2="163.75" y2="588.46" xlink:href="#linear-gradient"/>
    <linearGradient id="linear-gradient-20" x1="4949.22" y1="-4823.15" x2="4949.22" y2="-4859.02" gradientTransform="translate(425.44 -6141.62) rotate(135.24)" xlink:href="#linear-gradient"/>
    <linearGradient id="linear-gradient-21" x1="173.84" y1="185.19" x2="173.84" y2="29.77" xlink:href="#linear-gradient-2"/>
    <linearGradient id="linear-gradient-22" x1="283.71" y1="183.03" x2="283.71" y2="27.62" xlink:href="#linear-gradient-2"/>
    <linearGradient id="linear-gradient-23" x1="-1372.16" y1="-620.76" x2="-1372.16" y2="-633.04" gradientTransform="translate(1486.52 909.22)" xlink:href="#linear-gradient-2"/>
    <linearGradient id="linear-gradient-24" x1="3351.51" y1="-6472.5" x2="3351.51" y2="-6484.78" gradientTransform="translate(-3209.06 6840.11)" xlink:href="#linear-gradient-2"/>
    <linearGradient id="linear-gradient-25" x1="2350.7" y1="354.54" x2="2350.7" y2="342.25" gradientTransform="translate(-2196.28 -62.41)" xlink:href="#linear-gradient-2"/>
    <linearGradient id="linear-gradient-26" x1="-2530.68" y1="-3162.16" x2="-2530.68" y2="-3174.45" gradientTransform="translate(2623.35 3474.88)" xlink:href="#linear-gradient-2"/>
    <linearGradient id="linear-gradient-27" x1="-1494.88" y1="-5957.06" x2="-1494.88" y2="-5969.35" gradientTransform="translate(1590.09 6303.61)" xlink:href="#linear-gradient-2"/>
    <linearGradient id="linear-gradient-28" x1="131.46" y1="358.39" x2="131.46" y2="283.04" xlink:href="#linear-gradient"/>
    <linearGradient id="linear-gradient-29" x1="2689.64" y1="336.11" x2="2689.64" y2="305.32" gradientTransform="translate(2821.1) rotate(-180) scale(1 -1)" xlink:href="#linear-gradient-2"/>
    <linearGradient id="linear-gradient-30" x1="1590.01" y1="842.58" x2="1590.01" y2="830.29" gradientTransform="translate(-1211.41 1111.26) scale(1 -1)" xlink:href="#linear-gradient-2"/>
    <linearGradient id="linear-gradient-31" x1="149.22" y1="-7285.6" x2="149.22" y2="-7297.89" gradientTransform="translate(201.3 -6937.78) scale(1 -1)" xlink:href="#linear-gradient-2"/>
    <linearGradient id="linear-gradient-32" x1="5097.03" y1="-1482.16" x2="5097.03" y2="-1494.45" gradientTransform="translate(-4758.49 -1209.81) scale(1 -1)" xlink:href="#linear-gradient-2"/>
    <linearGradient id="linear-gradient-33" x1="-1361.54" y1="-72.03" x2="-1361.54" y2="-84.32" gradientTransform="translate(1761.84 220.9) scale(1 -1)" xlink:href="#linear-gradient-2"/>
    <linearGradient id="linear-gradient-34" x1="-2927.41" y1="-2979.87" x2="-2927.41" y2="-2992.15" gradientTransform="translate(3325.15 -2653.1) scale(1 -1)" xlink:href="#linear-gradient-2"/>
    <linearGradient id="linear-gradient-35" x1="3435.36" y1="350.89" x2="3435.36" y2="275.54" gradientTransform="translate(3796.86) rotate(-180) scale(1 -1)" xlink:href="#linear-gradient"/>
    <linearGradient id="linear-gradient-36" x1="-614.26" y1="328.61" x2="-614.26" y2="297.82" gradientTransform="translate(975.77)" xlink:href="#linear-gradient-2"/>
    <linearGradient id="linear-gradient-37" x1="3067.61" y1="486.92" x2="3030.33" y2="486.92" gradientTransform="translate(716.19 -2851.17) rotate(90)" xlink:href="#linear-gradient-2"/>
    <linearGradient id="linear-gradient-38" x1="3054.6" y1="486.81" x2="3043.34" y2="486.81" gradientTransform="translate(716.19 -2851.17) rotate(90)" xlink:href="#linear-gradient"/>
    <linearGradient id="linear-gradient-39" x1="3348.7" y1="-2345.72" x2="3348.7" y2="-2311.95" gradientTransform="translate(3577.24 -2130.97) rotate(-180)" xlink:href="#linear-gradient"/>
    <linearGradient id="linear-gradient-40" x1="7978.14" y1="-21803.87" x2="7978.14" y2="-21893.42" gradientTransform="translate(-12335.55 -19226.71) rotate(-12.67) scale(1 -1)" gradientUnits="userSpaceOnUse">
      <stop offset=".31" stop-color="#cf4327"/>
      <stop offset=".38" stop-color="#d75325"/>
      <stop offset=".54" stop-color="#e57021"/>
      <stop offset=".7" stop-color="#ef851f"/>
      <stop offset=".85" stop-color="#f5911d"/>
      <stop offset="1" stop-color="#f8961d"/>
    </linearGradient>
  </defs>
  <g>
    <path class="cls-37" d="M174.24,352.64c0,52.4,25.21,148.21,72.54,148.21,44.24,0,65.33-95.82,65.33-148.21s-5.74-96.89-68.94-94.88c-80.44,2.56-68.94,42.48-68.94,94.88Z"/>
    <circle class="cls-4" cx="225.24" cy="785.85" r="11.1"/>
    <circle class="cls-16" cx="140.5" cy="718.35" r="11.1"/>
    <circle class="cls-13" cx="73" cy="699.2" r="11.1"/>
    <circle class="cls-18" cx="22.74" cy="700.63" r="11.1"/>
    <circle class="cls-32" cx="50.98" cy="581.91" r="11.1"/>
    <circle class="cls-28" cx="153.91" cy="568.51" r="11.1"/>
    <circle class="cls-23" cx="196.51" cy="499.09" r="11.1"/>
    <circle class="cls-29" cx="288.91" cy="532.12" r="11.1"/>
    <circle class="cls-6" cx="248.69" cy="621.64" r="11.1"/>
    <circle class="cls-30" cx="116.93" cy="770.41" r="12.42"/>
    <circle class="cls-7" cx="295.76" cy="585.83" r="18.91"/>
    <circle class="cls-2" cx="259.82" cy="751.26" r="18.16"/>
    <circle class="cls-24" cx="170.57" cy="759.37" r="27.29"/>
    <circle class="cls-1" cx="68.61" cy="739.98" r="27.29"/>
    <circle class="cls-36" cx="88.35" cy="649.86" r="36.98"/>
    <circle class="cls-27" cx="228.86" cy="554.83" r="43.92"/>
    <circle class="cls-40" cx="231.05" cy="196.07" r="50.9"/>
    <circle class="cls-31" cx="163.75" cy="621.14" r="32.67"/>
    <path class="cls-26" d="M317.76,808.21l2.16-5.45c6.24-15.75,7.01-33.14,2.19-49.38h0s-25.87,25.72-25.87,25.72h0c10,2.92,17.6,11.07,19.81,21.25l1.71,7.86Z"/>
    <path class="cls-34" d="M196.5,182.32c5.97-4.89,6.19-15.37,3.83-22.5-2.28-6.87-6.89-10.42-10.53-13.88-14.4-13.71-19.27-31.47-21.54-39.73-2.03-7.4-8.88-32.37,4.79-48.83,5.5-6.63,15.61-13.41,24.89-11.49,9.55,1.98,14.29,12.38,14.84,11.97.69-.52-5.33-17.78-21.06-24.89-12.78-5.77-27.96-3.03-36.86,2.87-35.55,23.55-20.13,129.79,18.19,146.01,2.35,1,15.84,6.71,23.46.48Z"/>
    <path class="cls-20" d="M261.05,180.17c-5.97-4.89-6.19-15.37-3.83-22.5,2.28-6.87,6.89-10.42,10.53-13.88,14.4-13.71,19.27-31.47,21.54-39.73,2.03-7.4,8.88-32.37-4.79-48.83-5.5-6.63-15.61-13.41-24.89-11.49-9.55,1.98-14.29,12.38-14.84,11.97-.69-.52,5.33-17.78,21.06-24.89,12.78-5.77,27.96-3.03,36.86,2.87,35.55,23.55,20.13,129.79-18.19,146.01-2.35,1-15.84,6.71-23.46.48Z"/>
    <path class="cls-38" d="M109.65,276.18h9.42c2.24,0,4.07,1.82,4.07,4.07v8.22h-17.55v-8.22c0-2.24,1.82-4.07,4.07-4.07Z" transform="translate(-113.67 80.37) rotate(-26.42)"/>
    <path class="cls-21" d="M137.74,355.33h9.42c2.24,0,4.07,1.82,4.07,4.07v8.22h-17.55v-8.22c0-2.24,1.82-4.07,4.07-4.07Z" transform="translate(370.19 676.25) rotate(165.62)"/>
    <path class="cls-5" d="M149.71,279.85h9.42c2.24,0,4.07,1.82,4.07,4.07v8.22h-17.55v-8.22c0-2.24,1.82-4.07,4.07-4.07Z" transform="translate(184.31 -37.65) rotate(33.64)"/>
    <path class="cls-12" d="M87.95,300.43h9.42c2.24,0,4.07,1.82,4.07,4.07v8.22h-17.55v-8.22c0-2.24,1.82-4.07,4.07-4.07Z" transform="translate(-226.92 285.48) rotate(-69.41)"/>
    <path class="cls-9" d="M90.5,334.26h9.42c2.24,0,4.07,1.82,4.07,4.07v8.22h-17.55v-8.22c0-2.24,1.82-4.07,4.07-4.07Z" transform="translate(-169.72 574.4) rotate(-115.83)"/>
    <circle class="cls-3" cx="131.46" cy="320.71" r="37.67"/>
    <circle class="cls-25" cx="131.46" cy="320.71" r="15.4"/>
    <path class="cls-15" d="M369.82,268.68h17.55v8.22c0,2.24-1.82,4.07-4.07,4.07h-9.42c-2.24,0-4.07-1.82-4.07-4.07v-8.22h0Z" transform="translate(595.37 689.4) rotate(-153.58)"/>
    <path class="cls-39" d="M341.74,347.83h17.55v8.22c0,2.24-1.82,4.07-4.07,4.07h-9.42c-2.24,0-4.07-1.82-4.07-4.07v-8.22h0Z" transform="translate(98.87 -75.95) rotate(14.38)"/>
    <path class="cls-35" d="M329.77,272.35h17.55v8.22c0,2.24-1.82,4.07-4.07,4.07h-9.42c-2.24,0-4.07-1.82-4.07-4.07v-8.22h0Z" transform="translate(774.68 322.77) rotate(146.36)"/>
    <path class="cls-22" d="M391.52,292.93h17.55v8.22c0,2.24-1.82,4.07-4.07,4.07h-9.42c-2.24,0-4.07-1.82-4.07-4.07v-8.22h0Z" transform="translate(261.14 779) rotate(-110.59)"/>
    <path class="cls-17" d="M388.97,326.76h17.55v8.22c0,2.24-1.82,4.07-4.07,4.07h-9.42c-2.24,0-4.07-1.82-4.07-4.07v-8.22h0Z" transform="translate(-75.18 545.91) rotate(-64.17)"/>
    <circle class="cls-14" cx="361.5" cy="313.22" r="37.67"/>
    <path class="cls-33" d="M346.1,313.22c0,8.5,6.89,15.4,15.4,15.4,8.5,0,15.4-6.89,15.4-15.4s-6.89-15.4-15.4-15.4c-8.5,0-15.4,6.89-15.4,15.4Z"/>
    <ellipse class="cls-10" cx="229.27" cy="197.8" rx="28.94" ry="18.64"/>
    <ellipse class="cls-19" cx="229.38" cy="197.8" rx="25.91" ry="5.63"/>
    <ellipse class="cls-11" cx="228.54" cy="197.86" rx="3.67" ry="16.88"/>
  </g>
  <g>
    <path class="cls-8" d="M296,371.98c0-3.38-3.32-2.01-6.63-1.28-3.32,8.22-6.63-5.87-6.63-1.28-1.31-5.1-2.61.59-3.9-.8-1.3-4.65-2.59,10.8-3.88-.89-1.29,10.16-2.57,2.17-3.85-.98-1.28,1.6-2.55,4.13-3.82-1.06-1.27.08-2.53-3.23-3.79-1.1-.63-2.59-1.26.93-1.88,3.17s-1.25,3.22-1.88-4.45c-.62-6.17-1.25-7.35-1.87-5.92-.62,1.46-1.24,4.57-1.86,4.02-1.24-1.24-2.47,5.13-3.69-.82-.82-5.68-1.63,7.2-2.44,3.15-.81,10.61-1.62,2.41-2.43-5.02-.81,8.67-1.61-.8-2.41,3.37-.8,2.24-1.6-6.13-2.39-5.63-.79-1.27-1.59-7.28-2.37-6.82-.79-.54-1.57.24-2.36,4.04-.39-4.22-.78-5.97-1.17-6.33-.39.52-.78.65-1.17,1.95-.78,2.6-1.55,6.35-2.32,2.46-.77.99-1.54-2.06-2.3-4.23-.38-.65-.76-2.45-1.14-3.05-.38,1.14-.76.86-1.14,4.12-.38-2.55-.76-2.81-1.13-4.4-.38,1.15-.75-5.78-1.13-.66-.75,2.92-1.5,1.93-2.24,2.96-1.49-2.18-2.96-.73-4.42-2.49-1.46-7.83-2.9-.27-4.33-3.3-.72,4.38-1.43-4.98-2.13-1.8-.71.18-1.41-5.36-2.11-2.29-1.4,3.37-2.79-3.76-4.15-2.23-1.37,1.05-2.72-6.59-4.06-3.35-1.34.63-2.66-1.91-3.96-3.48-1.74-7.1-3.45-.12-5.12-4.83-1.68.9-3.32-3.65-4.94-5.05-1.61-.16-3.2-4.48-4.74-5.26h0s1.28-.29,3.52-.79c2.24-.13,5.44-.87,9.29-2.08,1.92-.57,4-4.64,6.21-1.72,2.2,6.18,4.52-3,6.93-1.21,1.2-1.46,2.42-2.73,3.66.41.62-2.21,1.24-1.78,1.86-.89.62-.94,1.25.37,1.88,1.92.63.3,1.26,3,1.9-1.11.63-1.71,1.27-.3,1.91.92.64,7.66,1.28-3.4,1.92-2.99.64-.5,1.28-2.7,1.92-1.63,1.28,8.84,2.56-3.18,3.84-2.28,1.28-2.54,2.55-3.4,3.81-.8,1.26-3.7,2.51-7.27,3.75-1.56,1.24,2.35,2.46-.43,3.66,1.28,1.2-4.93,2.38-1.33,3.54-1.37,1.16-3.96,2.29,1.09,3.39-.18,1.1-4.38,2.17-3.11,3.21-3.14,1.04-1.05,2.04-1.43,3,1.75,1.92,2.11,3.68,1.7,5.24.82,1.56-3.81,2.92-5.12,4.04-2.89,1.12-.24,2-1.95,2.6,3.06.6,5.25.92-2.65.92-3.85,0-3.97,0,3.18,0,0-.24-1.63-.46-2.54-.67-1.96s-.4,4.2-.57,6.92c-.35,1.03-.63-1.05-.85,4.99-.22,3.62-.37.8-.46,5.01-.09-2.29-.11,5.88-.07,5,0,1.31.01,5.03.02,3.43,0-.95.02-1.43.02-4.33,0-6.1.02-2.15.03-1.29,0,3.3.01,4.12.02,5.69,0-.83.01,3.3.02,1.28.01,1.1.03,7.24.04,3.62.01,2.45.03,6.02.05,2.22.02-7.44.03-3.71.05-4.97.02,1.89.04-.95.06,2.95.04,8.86.09,6.29.14,3.56.05-4.7.1-2.6.16-2.48.11-4.7.24.94.39.19.07-6.09.15-1.38.23-.77.04.99.08.42.12,3.04.04,4.69.08,6.23.13,2.97.09-3.86.18-7.01.27-1.19.1-.41.19,3.2.3,3.42.1,1.35.21-2.79.32,4.95.11,3.76.22.69.34.11.12,1.87.24.86.37,2.59.13-.02.26-3.61.39-5.51.13,4.24.27,3.18.41,0,.14,1.72.28-2.52.43,4.91.3,4.33.61-2.84.93-.63.33,2.36.67-.02,1.02,3.38.35,4.37.72,4.41,1.11,1.49.19,3.46.39,9.84.59,5.39.2-.12.4,2.15.61.65.41,1.36.84-3.71,1.28-1.89.44,6.24.9,3.05,1.37.06.47-6.03.95-6.59,1.45,4.31.5,1.78,1.01,5.05,1.53,3.84.53,1.15,1.06-2.1,1.62.12.55-3.38,1.12,3.64,1.7,1.31.58-3.61,1.17,1.88,1.78,2.43,0,4.4.37,7.3.97,8.07s1.46-.58,2.43-4.69c1.95,7.09,4.38,3.87,6.33,6.29,1.95,1.85,3.41,8.37,3.41,3.39Z"/>
    <path class="cls-41" d="M224.26,341.06c1.87-2,4.36-4.46,1.33-1.82,1.83-1.74,3.64-3.29,3.72-3.38.77-.7-.15.01-2.39,1.56,1.18-.86,2.93-2.24,4.1-3.11,1.19-.89,1.81-1.29.61-.05,1.66-1.63,6.29-5.78,2.48-3.07,3.77-3.14-.77-.26-3.09,1.23,2.32-1.5,9.2-6.62,4.58-2.75,5.03-4,3.67-1.75-.57,2.81,4.36-4.66,5.51-8.88,1.9-5.55,3.6-3.48,3.5-2.82-1.31,1,4.81-3.83,4.65-4.93,1.76-1.8,2.95-3.07,4.49-1.09,1.19,4.3,3.31-5.4,2.27-6.94.18-3.53,2.12-3.42,3.09-2.48,2.42,2.17.66-4.65-.99-6.36-2.62-3.68,1.62-2.73,1.49-2.92,2.12-1.4-.63-1.52-.48-1.3-1.77,1.35,1.33-2.62,2.86-1.07,4.14,2.61-1.28-3.68-2.14-4.51-2.76-1.43.63-3.08,1.48-2.28,4.36.04-2.89-2.33-3.94-3.37-2.87-1.46-1.06-1.92,0-1.17,4.35-4.47-4.36,3.3-5.33,2.63-3.77,4.24-1.56-1.6-.43-.54,3.83-.11-4.26-.43-4.92-1.01-2.62.69-2.28-1.7-.69-.54,5.05-2.46-5.72,1.87-5.64,1.71-.12-1.3-5.34,2.81.3-.36,3.44-3.79-3.26,3.73-5.91,5.96-.72,2.43-5.07,3.7-2.89,2.63,1.5-.44-3.58,2.55,1.43-1,2.63-1.95.95-.75,1.91-1.54,2.7-2.12q-1.55,1.89,0,0c-.77.95-2.56,2.97-2.33,3.41-1.06,1.26-.22,1.14,1.7-.57-.69.79-3.67,2.8-2.05,2.43-2.68,1.68-7.02,3.57-1.81,2.34-5.71,1.86-8.44,2.26-2.02,2.08-6.58.36-6.13.55.57,1.04-6.66-.41-6.31-.33.3.2-6.19-.62-.61-.57,3.5-1.33-4.11.76-10.79.57-4.67,1.96-6.55-1.2-6.67-1.11-.66,1.8-6.11-2.81-7.15-3.51-3.38.79-3.77-4.26-2.32-2.83,2.56,2.01-4.8-4.74-4.5-4.45.15.3-4.07-4.51,1.22-.37,4.19,1.22-2.97-1.59-7.97-5.46-4.12-.87-4.52-4.72-4.57-4.55-.58.73-4.15-5.24-5.12-6.47-2.28-.56-2.82-5.8-.96-2.64,2,2.43-2.73-4.65-1.5-2.26.56,1.37-.86-2.11,2.06,2.5,2.92,3.67-.85-1.17-3.23-4.9-2.62-3.3-1.74-2.96-2.81-4.92-.66-.97-2.96-4.73-2.12-3.06,0,1.02-1.34-2.55.02.61.71,2.07.55,1.13,1.3,2.59,1.93,4.02-.62-1.42-1.3-2.78-1.79-3.82-.58-1.24-1.73-3.89-.7-1.88q-1.74-3.34,0,0c-1.03-2.02.12.64.7,1.88.49,1.04,1.17,2.39,1.79,3.82-.62-1.42-1.44-2.95-2.06-4.13-.79-1.6-2.27-4.99-.89-2.06-1.85-3.73-4.03-8.32-2.14-2.46-2.14-6.09-1.58-4.47.59,1.23-2.26-5.56-2.38-5.49-1.2.27-1.02-4.86.6,2.12.82,3.88-.22-1.76-2.14-9.65-1.22-4.32-1.21-6.23-1.23-6.57.9-.37-2.18-6.38-3.47-9.17-2.76-3.15-.76-6.06-.05-4.21,1.31,2.7-1.46-6.84-1.99-8.11-2.83-1.55.71-6.36-.02.47-.89,4.86.87-4.39,1.54-11.26.48-4.95,1.1-6.52,1.4-4.95,1.57,2.06-.2-7.04-.96-9.57-2.3-3.69,1.27-5.87,1.19-2.54-.42,4.1,1.4-6.56,1.36-8.03-2.02-2.21,2.92-5.4-1.75,2.52-3.08,4.37,1.33-1.85,5.59-8.99,2.44-4.04,3.39-5.37,1.69-2.28-.54,2.35,2.12-4.7,3.88-8.44,0-3.25,3.56-5.04-1.36,1.33-3.04,3.51.83-1.91-.16-1.37-1.31-.41-1.12.92-2.57,2.41-3.28,3.09,1.02-1,1.87-2,2.23-2.56s.25-.67-.67.11c.28-.55-.34-.17-1.28.6s-2.2,1.92-3.18,2.9c2.81-3.53-1.03-.95-2.9,1.05Z"/>
  </g>
</svg>