<?xml version="1.0" encoding="UTF-8"?>
<svg id="Layer_1" data-name="Layer 1" xmlns="http://www.w3.org/2000/svg" xmlns:xlink="http://www.w3.org/1999/xlink" viewBox="0 0 496.23 811.41">
  <defs>
    <style>
      .cls-1 {
        fill: url(#linear-gradient-15);
      }

      .cls-2 {
        fill: url(#linear-gradient-13);
      }

      .cls-3 {
        fill: url(#linear-gradient-2);
      }

      .cls-4 {
        fill: url(#linear-gradient-10);
      }

      .cls-5 {
        fill: url(#linear-gradient-12);
      }

      .cls-6 {
        fill: url(#linear-gradient-4);
      }

      .cls-7 {
        fill: url(#linear-gradient-3);
      }

      .cls-8 {
        fill: url(#linear-gradient-5);
      }

      .cls-9 {
        fill: url(#linear-gradient-22);
      }

      .cls-10 {
        fill: url(#linear-gradient-8);
      }

      .cls-11 {
        fill: url(#linear-gradient-14);
      }

      .cls-12 {
        fill: url(#linear-gradient-20);
      }

      .cls-13 {
        fill: url(#linear-gradient-17);
      }

      .cls-14 {
        fill: url(#linear-gradient-7);
      }

      .cls-15 {
        fill: url(#linear-gradient-9);
      }

      .cls-16 {
        fill: url(#linear-gradient-11);
      }

      .cls-17 {
        fill: url(#linear-gradient-19);
      }

      .cls-18 {
        fill: url(#linear-gradient-6);
      }

      .cls-19 {
        fill: url(#linear-gradient-21);
      }

      .cls-20 {
        fill: url(#linear-gradient-16);
      }

      .cls-21 {
        fill: url(#linear-gradient);
      }

      .cls-22 {
        fill: url(#linear-gradient-18);
      }

      .cls-23 {
        fill: #ffcd33;
      }
    </style>
    <linearGradient id="linear-gradient" x1="254.55" y1="796.62" x2="254.55" y2="415.24" gradientUnits="userSpaceOnUse">
      <stop offset="0" stop-color="#f58120"/>
      <stop offset=".07" stop-color="#f5891c"/>
      <stop offset=".52" stop-color="#fbc308"/>
      <stop offset=".74" stop-color="#feda00"/>
    </linearGradient>
    <linearGradient id="linear-gradient-2" x1="354.17" y1="409.64" x2="354.17" y2="569.41" gradientUnits="userSpaceOnUse">
      <stop offset="0" stop-color="#f8961d"/>
      <stop offset="1" stop-color="#cf4327"/>
    </linearGradient>
    <linearGradient id="linear-gradient-3" x1="145.3" y1="423.16" x2="145.3" y2="582.94" xlink:href="#linear-gradient-2"/>
    <linearGradient id="linear-gradient-4" x1="198.29" y1="517.82" x2="198.29" y2="471.7" gradientUnits="userSpaceOnUse">
      <stop offset=".14" stop-color="#f58120"/>
      <stop offset=".21" stop-color="#f5891c"/>
      <stop offset=".7" stop-color="#fbc308"/>
      <stop offset=".93" stop-color="#feda00"/>
    </linearGradient>
    <linearGradient id="linear-gradient-5" x1="316.5" y1="522.33" x2="316.5" y2="476.21" xlink:href="#linear-gradient-4"/>
    <linearGradient id="linear-gradient-6" x1="1822.75" y1="-3751.38" x2="1822.75" y2="-3827.38" gradientTransform="translate(-8810.01 7.15) rotate(79.93) scale(1 2.38)" xlink:href="#linear-gradient-2"/>
    <linearGradient id="linear-gradient-7" x1="2015" y1="-3615.82" x2="2015" y2="-3691.82" gradientTransform="translate(-7039.96 -1259.75) rotate(86.09) scale(1 2)" xlink:href="#linear-gradient"/>
    <linearGradient id="linear-gradient-8" x1="2156.14" y1="-3364.54" x2="2156.14" y2="-3440.54" gradientTransform="translate(-4820.24 -1847.81) rotate(89.84) scale(1 1.52)" gradientUnits="userSpaceOnUse">
      <stop offset="0" stop-color="#feda00"/>
      <stop offset=".34" stop-color="#fdd304"/>
      <stop offset=".81" stop-color="#fdc00f"/>
      <stop offset=".83" stop-color="#fdc010"/>
    </linearGradient>
    <linearGradient id="linear-gradient-9" x1="3257.77" y1="-6889.8" x2="3257.77" y2="-6965.8" gradientTransform="translate(16916.24 70.12) rotate(100.64) scale(1 -2.38)" gradientUnits="userSpaceOnUse">
      <stop offset="0" stop-color="#f8961d"/>
      <stop offset="1" stop-color="#cf4327"/>
    </linearGradient>
    <linearGradient id="linear-gradient-10" x1="2641.11" y1="-7411.96" x2="2641.11" y2="-7487.96" gradientTransform="translate(15158.94 -1214.42) rotate(94.49) scale(1 -2)" xlink:href="#linear-gradient"/>
    <linearGradient id="linear-gradient-11" x1="2285.28" y1="-8374.31" x2="2285.28" y2="-8450.31" gradientTransform="translate(12945.21 -1824.65) rotate(90.74) scale(1 -1.52)" xlink:href="#linear-gradient-8"/>
    <linearGradient id="linear-gradient-12" x1="255.65" y1="369.25" x2="255.65" y2="189.06" gradientUnits="userSpaceOnUse">
      <stop offset="0" stop-color="#f58120"/>
      <stop offset=".11" stop-color="#f79817"/>
      <stop offset=".27" stop-color="#fab50d"/>
      <stop offset=".43" stop-color="#fcc905"/>
      <stop offset=".58" stop-color="#fdd501"/>
      <stop offset=".74" stop-color="#feda00"/>
    </linearGradient>
    <linearGradient id="linear-gradient-13" x1="3905.95" y1="-6253.01" x2="3905.95" y2="-6298.36" gradientTransform="translate(929.71 -7208.35) rotate(37.42) scale(1 -1)" xlink:href="#linear-gradient-2"/>
    <linearGradient id="linear-gradient-14" x1="2132.82" y1="-5619.53" x2="2132.82" y2="-5664.87" gradientTransform="translate(-3427.06 -4604.27) rotate(-17.16) scale(1 -1)" xlink:href="#linear-gradient-2"/>
    <linearGradient id="linear-gradient-15" x1="2766.31" y1="-4456.32" x2="2766.31" y2="-4501.67" gradientTransform="translate(-4864.16 1070.83) rotate(-68.73) scale(1 -1)" xlink:href="#linear-gradient-2"/>
    <linearGradient id="linear-gradient-16" x1="5603.16" y1="-5348.24" x2="5603.16" y2="-5393.59" gradientTransform="translate(6656.32 -4210.48) rotate(102.56) scale(1 -1)" xlink:href="#linear-gradient-2"/>
    <linearGradient id="linear-gradient-17" x1="5322.53" y1="-3073.14" x2="5322.53" y2="-3118.49" gradientTransform="translate(6109.56 1895.77) rotate(167.33) scale(1 -1)" xlink:href="#linear-gradient-2"/>
    <linearGradient id="linear-gradient-18" x1="2945.64" y1="-2308.28" x2="2945.64" y2="-2353.62" gradientTransform="translate(-127.33 3792.73) rotate(-121.83) scale(1 -1)" xlink:href="#linear-gradient-2"/>
    <linearGradient id="linear-gradient-19" x1="1182.7" y1="1015.58" x2="1182.7" y2="922.79" gradientTransform="translate(-676.46 -1112.06) rotate(13.11)" xlink:href="#linear-gradient-8"/>
    <linearGradient id="linear-gradient-20" x1="257.35" y1="74.46" x2="257.35" y2="127.12" gradientTransform="translate(-2.36 .92)" xlink:href="#linear-gradient-2"/>
    <linearGradient id="linear-gradient-21" x1="257.35" y1="77.12" x2="257.35" y2="124.26" gradientTransform="translate(-2.36 .92)" xlink:href="#linear-gradient-8"/>
    <linearGradient id="linear-gradient-22" x1="8020.45" y1="-21598.78" x2="8020.45" y2="-21688.34" gradientTransform="translate(-12320.05 -19087.05) rotate(-12.67) scale(1 -1)" gradientUnits="userSpaceOnUse">
      <stop offset=".31" stop-color="#cf4327"/>
      <stop offset=".38" stop-color="#d75325"/>
      <stop offset=".54" stop-color="#e57021"/>
      <stop offset=".7" stop-color="#ef851f"/>
      <stop offset=".85" stop-color="#f5911d"/>
      <stop offset="1" stop-color="#f8961d"/>
    </linearGradient>
  </defs>
  <g>
    <polygon class="cls-21" points="278.78 796.62 301.67 415.24 207.44 421.27 278.78 796.62"/>
    <polygon class="cls-3" points="396.35 569.41 366.4 409.64 311.99 430.46 396.35 569.41"/>
    <polygon class="cls-7" points="103.13 582.94 133.07 423.16 187.48 443.98 103.13 582.94"/>
    <polygon class="cls-6" points="193.39 517.82 185.63 471.7 210.95 474.48 193.39 517.82"/>
    <polygon class="cls-8" points="321.41 522.33 329.16 476.21 303.84 478.99 321.41 522.33"/>
    <path class="cls-18" d="M480.21,253.44l-13.66-9.14c-39.44-26.39-102.75-42.67-179.78-46.23h0s13.74,76.05,13.74,76.05h0c43.35-18.56,98.77-27.66,144.44-23.72l35.26,3.04Z"/>
    <path class="cls-14" d="M451.28,291.77l-10.7-10.68c-30.88-30.85-82.53-54.48-146.65-67.1h0s5.47,77.09,5.47,77.09h0c37.71-13.3,84.77-15.79,122.64-6.49l29.24,7.18Z"/>
    <path class="cls-10" d="M405.95,337.74l-7.59-11.37c-21.92-32.82-59.94-59.81-107.96-76.65h0s.37,77.29.37,77.29h0c29.26-10.78,65.09-10.15,93.36,1.63l21.83,9.1Z"/>
    <path class="cls-15" d="M22.19,255.1l13.75-9c39.7-26,103.17-41.65,180.23-44.43h0s-14.5,75.91-14.5,75.91h0c-43.16-18.99-98.49-28.65-144.19-25.17l-35.29,2.69Z"/>
    <path class="cls-4" d="M50.74,293.71l10.8-10.58c31.19-30.54,83.07-53.65,147.32-65.63h0s-6.24,77.03-6.24,77.03h0c-37.58-13.67-84.61-16.63-122.57-7.71l-29.31,6.89Z"/>
    <path class="cls-16" d="M95.61,340.13l7.7-11.29c22.24-32.6,60.53-59.21,108.73-75.57h0s-1.14,77.28-1.14,77.28h0c-29.15-11.07-64.98-10.8-93.37.7l-21.92,8.88Z"/>
    <path class="cls-5" d="M185.32,259.39c0,38.84,25.72,109.87,74,109.87,45.14,0,66.65-71.02,66.65-109.87s-31.49-70.33-70.33-70.33-70.33,31.49-70.33,70.33Z"/>
    <path class="cls-2" d="M225.77,183.32l-3.59-6.49c-10.37-18.74-14.14-40.41-10.72-61.55h0s36.59,28.06,36.59,28.06h0c-12.07,5.27-20.28,16.72-21.41,29.84l-.87,10.13Z"/>
    <path class="cls-11" d="M307.31,171.43l-7.37-.84c-21.28-2.41-41.13-11.9-56.37-26.94h0s44.08-13.55,44.08-13.55h0c-2.7,12.89,1.87,26.22,11.91,34.74l7.75,6.58Z"/>
    <path class="cls-1" d="M343.98,101.65l-5.23,5.25c-15.12,15.17-34.89,24.82-56.14,27.41h0s16.78-42.95,16.78-42.95h0c8.42,10.12,21.7,14.83,34.62,12.26l9.97-1.98Z"/>
    <path class="cls-20" d="M167.36,111.05l4.38-5.99c12.64-17.28,30.73-29.82,51.34-35.6h0s-10.09,45-10.09,45h0c-9.86-8.73-23.7-11.37-36.08-6.88l-9.56,3.47Z"/>
    <path class="cls-13" d="M207,26.19l7.28,1.41c21.02,4.07,40.07,15.08,54.09,31.27h0s-45,10.06-45,10.06h0c3.7-12.64.19-26.29-9.16-35.57l-7.21-7.17Z"/>
    <path class="cls-22" d="M304.84,26.36l1.06,7.34c3.06,21.19-1.09,42.8-11.78,61.36h0s-24.27-39.21-24.27-39.21h0c13.15-.66,24.89-8.45,30.59-20.32l4.4-9.17Z"/>
    <circle class="cls-17" cx="255.5" cy="100.19" r="46.39"/>
    <ellipse class="cls-12" cx="254.99" cy="101.71" rx="16.96" ry="26.33"/>
    <ellipse class="cls-19" cx="254.99" cy="101.61" rx="5.12" ry="23.57"/>
  </g>
  <g>
    <path class="cls-9" d="M307.81,302.27c0-3.38-3.32-2.01-6.63-1.28-3.32,8.22-6.63-5.87-6.63-1.28-1.31-5.1-2.61.59-3.9-.8-1.3-4.65-2.59,10.8-3.88-.89-1.29,10.16-2.57,2.17-3.85-.98-1.28,1.6-2.55,4.13-3.82-1.06-1.27.08-2.53-3.23-3.79-1.1-.63-2.59-1.26.93-1.88,3.17s-1.25,3.22-1.88-4.45c-.62-6.17-1.25-7.35-1.87-5.92-.62,1.46-1.24,4.57-1.86,4.02-1.24-1.24-2.47,5.13-3.69-.82-.82-5.68-1.63,7.2-2.44,3.15-.81,10.61-1.62,2.41-2.43-5.02-.81,8.67-1.61-.8-2.41,3.37-.8,2.24-1.6-6.13-2.39-5.63-.79-1.27-1.59-7.28-2.37-6.82-.79-.54-1.57.24-2.36,4.04-.39-4.22-.78-5.97-1.17-6.33-.39.52-.78.65-1.17,1.95-.78,2.6-1.55,6.35-2.32,2.46-.77.99-1.54-2.06-2.3-4.23-.38-.65-.76-2.45-1.14-3.05-.38,1.14-.76.86-1.14,4.12-.38-2.55-.76-2.81-1.13-4.4-.38,1.15-.75-5.78-1.13-.66-.75,2.92-1.5,1.93-2.24,2.96-1.49-2.18-2.96-.73-4.42-2.49-1.46-7.83-2.9-.27-4.33-3.3-.72,4.38-1.43-4.98-2.13-1.8-.71.18-1.41-5.36-2.11-2.29-1.4,3.37-2.79-3.76-4.15-2.23-1.37,1.05-2.72-6.59-4.06-3.35-1.34.63-2.66-1.91-3.96-3.48-1.74-7.1-3.45-.12-5.12-4.83-1.68.9-3.32-3.65-4.94-5.05-1.61-.16-3.2-4.48-4.74-5.26h0s1.28-.29,3.52-.79c2.24-.13,5.44-.87,9.29-2.08,1.92-.57,4-4.64,6.21-1.72,2.2,6.18,4.52-3,6.93-1.21,1.2-1.46,2.42-2.73,3.66.41.62-2.21,1.24-1.78,1.86-.89.62-.94,1.25.37,1.88,1.92.63.3,1.26,3,1.9-1.11.63-1.71,1.27-.3,1.91.92.64,7.66,1.28-3.4,1.92-2.99.64-.5,1.28-2.7,1.92-1.63,1.28,8.84,2.56-3.18,3.84-2.28,1.28-2.54,2.55-3.4,3.81-.8,1.26-3.7,2.51-7.27,3.75-1.56,1.24,2.35,2.46-.43,3.66,1.28,1.2-4.93,2.38-1.33,3.54-1.37,1.16-3.96,2.29,1.09,3.39-.18,1.1-4.38,2.17-3.11,3.21-3.14,1.04-1.05,2.04-1.43,3,1.75,1.92,2.11,3.68,1.7,5.24.82,1.56-3.81,2.92-5.12,4.04-2.89,1.12-.24,2-1.95,2.6,3.06.6,5.25.92-2.65.92-3.85,0-3.97,0,3.18,0,0-.24-1.63-.46-2.54-.67-1.96s-.4,4.2-.57,6.92c-.35,1.03-.63-1.05-.85,4.99-.22,3.62-.37.8-.46,5.01-.09-2.29-.11,5.88-.07,5,0,1.31.01,5.03.02,3.43,0-.95.02-1.43.02-4.33,0-6.1.02-2.15.03-1.29,0,3.3.01,4.12.02,5.69,0-.83.01,3.3.02,1.28.01,1.1.03,7.24.04,3.62.01,2.45.03,6.02.05,2.22.02-7.44.03-3.71.05-4.97.02,1.89.04-.95.06,2.95.04,8.86.09,6.29.14,3.56.05-4.7.1-2.6.16-2.48.11-4.7.24.94.39.19.07-6.09.15-1.38.23-.77.04.99.08.42.12,3.04.04,4.69.08,6.23.13,2.97.09-3.86.18-7.01.27-1.19.1-.41.19,3.2.3,3.42.1,1.35.21-2.79.32,4.95.11,3.76.22.69.34.11.12,1.87.24.86.37,2.59.13-.02.26-3.61.39-5.51.13,4.24.27,3.18.41,0,.14,1.72.28-2.52.43,4.91.3,4.33.61-2.84.93-.63.33,2.36.67-.02,1.02,3.38.35,4.37.72,4.41,1.11,1.49.19,3.46.39,9.84.59,5.39.2-.12.4,2.15.61.65.41,1.36.84-3.71,1.28-1.89.44,6.24.9,3.05,1.37.06.47-6.03.95-6.59,1.45,4.31.5,1.78,1.01,5.05,1.53,3.84.53,1.15,1.06-2.1,1.62.12.55-3.38,1.12,3.64,1.7,1.31.58-3.61,1.17,1.88,1.78,2.43,0,4.4.37,7.3.97,8.07s1.46-.58,2.43-4.69c1.95,7.09,4.38,3.87,6.33,6.29,1.95,1.85,3.41,8.37,3.41,3.39Z"/>
    <path class="cls-23" d="M236.07,271.35c1.87-2,4.36-4.46,1.33-1.82,1.83-1.74,3.64-3.29,3.72-3.38.77-.7-.15.01-2.39,1.56,1.18-.86,2.93-2.24,4.1-3.11,1.19-.89,1.81-1.29.61-.05,1.66-1.63,6.29-5.78,2.48-3.07,3.77-3.14-.77-.26-3.09,1.23,2.32-1.5,9.2-6.62,4.58-2.75,5.03-4,3.67-1.75-.57,2.81,4.36-4.66,5.51-8.88,1.9-5.55,3.6-3.48,3.5-2.82-1.31,1,4.81-3.83,4.65-4.93,1.76-1.8,2.95-3.07,4.49-1.09,1.19,4.3,3.31-5.4,2.27-6.94.18-3.53,2.12-3.42,3.09-2.48,2.42,2.17.66-4.65-.99-6.36-2.62-3.68,1.62-2.73,1.49-2.92,2.12-1.4-.63-1.52-.48-1.3-1.77,1.35,1.33-2.62,2.86-1.07,4.14,2.61-1.28-3.68-2.14-4.51-2.76-1.43.63-3.08,1.48-2.28,4.36.04-2.89-2.33-3.94-3.37-2.87-1.46-1.06-1.92,0-1.17,4.35-4.47-4.36,3.3-5.33,2.63-3.77,4.24-1.56-1.6-.43-.54,3.83-.11-4.26-.43-4.92-1.01-2.62.69-2.28-1.7-.69-.54,5.05-2.46-5.72,1.87-5.64,1.71-.12-1.3-5.34,2.81.3-.36,3.44-3.79-3.26,3.73-5.91,5.96-.72,2.43-5.07,3.7-2.89,2.63,1.5-.44-3.58,2.55,1.43-1,2.63-1.95.95-.75,1.91-1.54,2.7-2.12q-1.55,1.89,0,0c-.77.95-2.56,2.97-2.33,3.41-1.06,1.26-.22,1.14,1.7-.57-.69.79-3.67,2.8-2.05,2.43-2.68,1.68-7.02,3.57-1.81,2.34-5.71,1.86-8.44,2.26-2.02,2.08-6.58.36-6.13.55.57,1.04-6.66-.41-6.31-.33.3.2-6.19-.62-.61-.57,3.5-1.33-4.11.76-10.79.57-4.67,1.96-6.55-1.2-6.67-1.11-.66,1.8-6.11-2.81-7.15-3.51-3.38.79-3.77-4.26-2.32-2.83,2.56,2.01-4.8-4.74-4.5-4.45.15.3-4.07-4.51,1.22-.37,4.19,1.22-2.97-1.59-7.97-5.46-4.12-.87-4.52-4.72-4.57-4.55-.58.73-4.15-5.24-5.12-6.47-2.28-.56-2.82-5.8-.96-2.64,2,2.43-2.73-4.65-1.5-2.26.56,1.37-.86-2.11,2.06,2.5,2.92,3.67-.85-1.17-3.23-4.9-2.62-3.3-1.74-2.96-2.81-4.92-.66-.97-2.96-4.73-2.12-3.06,0,1.02-1.34-2.55.02.61.71,2.07.55,1.13,1.3,2.59,1.93,4.02-.62-1.42-1.3-2.78-1.79-3.82-.58-1.24-1.73-3.89-.7-1.88q-1.74-3.34,0,0c-1.03-2.02.12.64.7,1.88.49,1.04,1.17,2.39,1.79,3.82-.62-1.42-1.44-2.95-2.06-4.13-.79-1.6-2.27-4.99-.89-2.06-1.85-3.73-4.03-8.32-2.14-2.46-2.14-6.09-1.58-4.47.59,1.23-2.26-5.56-2.38-5.49-1.2.27-1.02-4.86.6,2.12.82,3.88-.22-1.76-2.14-9.65-1.22-4.32-1.21-6.23-1.23-6.57.9-.37-2.18-6.38-3.47-9.17-2.76-3.15-.76-6.06-.05-4.21,1.31,2.7-1.46-6.84-1.99-8.11-2.83-1.55.71-6.36-.02.47-.89,4.86.87-4.39,1.54-11.26.48-4.95,1.1-6.52,1.4-4.95,1.57,2.06-.2-7.04-.96-9.57-2.3-3.69,1.27-5.87,1.19-2.54-.42,4.1,1.4-6.56,1.36-8.03-2.02-2.21,2.92-5.4-1.75,2.52-3.08,4.37,1.33-1.85,5.59-8.99,2.44-4.04,3.39-5.37,1.69-2.28-.54,2.35,2.12-4.7,3.88-8.44,0-3.25,3.56-5.04-1.36,1.33-3.04,3.51.83-1.91-.16-1.37-1.31-.41-1.12.92-2.57,2.41-3.28,3.09,1.02-1,1.87-2,2.23-2.56s.25-.67-.67.11c.28-.55-.34-.17-1.28.6s-2.2,1.92-3.18,2.9c2.81-3.53-1.03-.95-2.9,1.05Z"/>
  </g>
</svg>